# This file uses centimeters as units for non-parametric coordinates.

v 3.399189 0.000000 -10.461622
v -8.899187 0.000000 -6.465639
v -8.899188 0.000000 6.465638
v 3.399187 0.000000 10.461622
v 11.000000 0.000000 0.000000
v 4.253291 3.804226 -13.090278
v -11.135255 3.804226 -8.090238
v -11.135256 3.804226 8.090236
v 4.253289 3.804226 13.090278
v 13.763932 3.804226 0.000000
v 5.635257 2.351141 -17.343533
v -14.753289 2.351141 -10.718894
v -14.753290 2.351141 10.718892
v 5.635254 2.351141 17.343532
v 18.236068 2.351141 0.000000
v 5.635257 -2.351141 -17.343533
v -14.753289 -2.351141 -10.718894
v -14.753290 -2.351141 10.718892
v 5.635254 -2.351141 17.343532
v 18.236068 -2.351141 0.000000
v 4.253291 -3.804227 -13.090278
v -11.135255 -3.804227 -8.090238
v -11.135256 -3.804227 8.090236
v 4.253289 -3.804227 13.090278
v 13.763932 -3.804227 0.000000
vt 0.000000 1.000000
vt 0.200000 1.000000
vt 0.400000 1.000000
vt 0.600000 1.000000
vt 0.800000 1.000000
vt 1.000000 1.000000
vt 0.000000 0.800000
vt 0.200000 0.800000
vt 0.400000 0.800000
vt 0.600000 0.800000
vt 0.800000 0.800000
vt 1.000000 0.800000
vt 0.000000 0.600000
vt 0.200000 0.600000
vt 0.400000 0.600000
vt 0.600000 0.600000
vt 0.800000 0.600000
vt 1.000000 0.600000
vt 0.000000 0.400000
vt 0.200000 0.400000
vt 0.400000 0.400000
vt 0.600000 0.400000
vt 0.800000 0.400000
vt 1.000000 0.400000
vt 0.000000 0.200000
vt 0.200000 0.200000
vt 0.400000 0.200000
vt 0.600000 0.200000
vt 0.800000 0.200000
vt 1.000000 0.200000
vt 0.000000 0.000000
vt 0.200000 0.000000
vt 0.400000 0.000000
vt 0.600000 0.000000
vt 0.800000 0.000000
vt 1.000000 0.000000
vn 0.266405 0.506732 0.819909
vn 0.266405 0.506732 0.819909
vn 0.266405 0.506732 0.819909
vn 0.266405 0.506732 0.819909
vn 0.862104 0.506732 0.000000
vn 0.862104 0.506732 0.000000
vn 0.862104 0.506732 0.000000
vn 0.862104 0.506732 0.000000
vn 0.266405 0.506732 -0.819909
vn 0.266405 0.506732 -0.819909
vn 0.266405 0.506732 -0.819909
vn 0.266405 0.506732 -0.819909
vn -0.697457 0.506732 -0.506732
vn -0.697457 0.506732 -0.506732
vn -0.697457 0.506732 -0.506732
vn -0.697457 0.506732 -0.506732
vn -0.697457 0.506732 0.506732
vn -0.697457 0.506732 0.506732
vn -0.697457 0.506732 0.506732
vn -0.697457 0.506732 0.506732
vn -0.115167 0.927956 -0.354448
vn -0.115167 0.927957 -0.354448
vn -0.115167 0.927956 -0.354448
vn -0.115167 0.927957 -0.354448
vn -0.372689 0.927956 -0.000000
vn -0.372688 0.927957 -0.000000
vn -0.372689 0.927956 -0.000000
vn -0.372688 0.927957 -0.000000
vn -0.115167 0.927956 0.354448
vn -0.115167 0.927957 0.354448
vn -0.115167 0.927956 0.354448
vn -0.115167 0.927957 0.354448
vn 0.301511 0.927956 0.219061
vn 0.301512 0.927956 0.219061
vn 0.301511 0.927956 0.219061
vn 0.301512 0.927956 0.219061
vn 0.301511 0.927957 -0.219061
vn 0.301511 0.927957 -0.219061
vn 0.301511 0.927957 -0.219061
vn 0.301511 0.927957 -0.219061
vn -0.309017 0.000000 -0.951057
vn -0.309017 0.000000 -0.951057
vn -0.309017 0.000000 -0.951057
vn -0.309017 0.000000 -0.951057
vn -1.000000 0.000000 -0.000000
vn -1.000000 0.000000 -0.000000
vn -1.000000 0.000000 -0.000000
vn -1.000000 0.000000 -0.000000
vn -0.309017 0.000000 0.951057
vn -0.309017 0.000000 0.951056
vn -0.309017 0.000000 0.951057
vn -0.309017 0.000000 0.951056
vn 0.809017 0.000000 0.587785
vn 0.809017 0.000000 0.587785
vn 0.809017 0.000000 0.587785
vn 0.809017 0.000000 0.587785
vn 0.809017 0.000000 -0.587785
vn 0.809017 0.000000 -0.587785
vn 0.809017 0.000000 -0.587785
vn 0.809017 0.000000 -0.587785
vn -0.115167 -0.927956 -0.354448
vn -0.115167 -0.927957 -0.354448
vn -0.115167 -0.927956 -0.354448
vn -0.115167 -0.927957 -0.354448
vn -0.372688 -0.927957 -0.000000
vn -0.372689 -0.927956 -0.000000
vn -0.372688 -0.927957 -0.000000
vn -0.372689 -0.927956 -0.000000
vn -0.115167 -0.927957 0.354448
vn -0.115167 -0.927956 0.354448
vn -0.115167 -0.927957 0.354448
vn -0.115167 -0.927956 0.354448
vn 0.301511 -0.927956 0.219061
vn 0.301511 -0.927956 0.219061
vn 0.301512 -0.927956 0.219061
vn 0.301511 -0.927956 0.219061
vn 0.301511 -0.927957 -0.219061
vn 0.301511 -0.927957 -0.219061
vn 0.301511 -0.927957 -0.219061
vn 0.301511 -0.927957 -0.219061
vn 0.266405 -0.506732 0.819909
vn 0.266405 -0.506732 0.819909
vn 0.266405 -0.506732 0.819909
vn 0.266405 -0.506732 0.819909
vn 0.862103 -0.506732 0.000000
vn 0.862104 -0.506732 0.000000
vn 0.862104 -0.506732 0.000000
vn 0.862104 -0.506732 0.000000
vn 0.266405 -0.506732 -0.819909
vn 0.266405 -0.506732 -0.819909
vn 0.266405 -0.506732 -0.819909
vn 0.266405 -0.506732 -0.819909
vn -0.697457 -0.506732 -0.506732
vn -0.697457 -0.506732 -0.506732
vn -0.697457 -0.506732 -0.506732
vn -0.697457 -0.506732 -0.506732
vn -0.697457 -0.506732 0.506732
vn -0.697457 -0.506732 0.506732
vn -0.697457 -0.506732 0.506732
vn -0.697457 -0.506732 0.506732
f 2/2/1 1/1/2 7/8/3
f 7/8/3 1/1/2 6/7/4
f 3/3/5 2/2/6 8/9/7
f 8/9/7 2/2/6 7/8/8
f 4/4/9 3/3/10 9/10/11
f 9/10/11 3/3/10 8/9/12
f 5/5/13 4/4/14 10/11/15
f 10/11/15 4/4/14 9/10/16
f 1/6/17 5/5/18 6/12/19
f 6/12/19 5/5/18 10/11/20
f 7/8/21 6/7/22 12/14/23
f 12/14/23 6/7/22 11/13/24
f 8/9/25 7/8/26 13/15/27
f 13/15/27 7/8/26 12/14/28
f 9/10/29 8/9/30 14/16/31
f 14/16/31 8/9/30 13/15/32
f 10/11/33 9/10/34 15/17/35
f 15/17/35 9/10/34 14/16/36
f 6/12/37 10/11/38 11/18/39
f 11/18/39 10/11/38 15/17/40
f 12/14/41 11/13/42 17/20/43
f 17/20/43 11/13/42 16/19/44
f 13/15/45 12/14/46 18/21/47
f 18/21/47 12/14/46 17/20/48
f 14/16/49 13/15/50 19/22/51
f 19/22/51 13/15/50 18/21/52
f 15/17/53 14/16/54 20/23/55
f 20/23/55 14/16/54 19/22/56
f 11/18/57 15/17/58 16/24/59
f 16/24/59 15/17/58 20/23/60
f 17/20/61 16/19/62 22/26/63
f 22/26/63 16/19/62 21/25/64
f 18/21/65 17/20/66 23/27/67
f 23/27/67 17/20/66 22/26/68
f 19/22/69 18/21/70 24/28/71
f 24/28/71 18/21/70 23/27/72
f 20/23/73 19/22/74 25/29/75
f 25/29/75 19/22/74 24/28/76
f 16/24/77 20/23/78 21/30/79
f 21/30/79 20/23/78 25/29/80
f 22/26/81 21/25/82 2/32/83
f 2/32/83 21/25/82 1/31/84
f 23/27/85 22/26/86 3/33/87
f 3/33/87 22/26/86 2/32/88
f 24/28/89 23/27/90 4/34/91
f 4/34/91 23/27/90 3/33/92
f 25/29/93 24/28/94 5/35/95
f 5/35/95 24/28/94 4/34/96
f 21/30/97 25/29/98 1/36/99
f 1/36/99 25/29/98 5/35/100
