# This file uses centimeters as units for non-parametric coordinates.

v 3.554800 0.038241 6.176943
v 0.796373 -0.114639 1.065717
v 0.830423 -0.551339 -0.791411
v 0.925077 -0.005510 -1.137123
v 2.687595 -0.111871 7.012625
v 1.497417 -0.718053 7.995930
v 1.306109 -0.311804 7.405627
v 2.316753 -4.303825 0.584293
v 3.155714 -4.355384 0.219788
v 4.250937 -1.865150 4.678614
v 4.798421 -2.227978 1.541559
v 2.973480 -5.332233 4.582488
v 3.691005 -4.941499 1.960326
v 2.997598 -5.457969 4.255611
v 4.252185 0.353959 0.837493
v 3.596773 -1.925157 -1.328637
v 4.755304 -1.675857 0.884422
v 1.920113 0.149722 -1.688911
v 3.229585 0.296820 -1.046254
v 3.089783 -0.741832 -1.744525
vt 0.572683 0.223402
vt 0.579819 0.216266
vt 0.510479 0.393299
vt 0.510479 0.350847
vt 0.510927 0.396411
vt 0.510927 0.407410
vt 0.516477 0.424312
vt 0.550959 0.236924
vt 0.555255 0.232629
vt 0.519703 0.174923
vt 0.519703 0.283753
vt 0.517186 0.273789
vt 0.517186 0.190820
vt 0.530484 0.351845
vt 0.530484 0.354319
vt 0.552508 0.340703
vt 0.576672 0.349935
vt 0.595175 0.263285
vt 0.615755 0.305239
vt 0.592752 0.412971
vt 0.539125 0.248951
vt 0.539125 0.604769
vt 0.566532 0.442775
vt 0.566532 0.310441
vt 0.539442 0.256836
vt 0.539442 0.256957
vt 0.604856 0.278191
vt 0.602822 0.280225
vt 0.577294 0.351929
vt 0.615470 0.306823
vt 0.597460 0.391168
vt 0.544201 0.398988
vt 0.544086 0.399104
vt 0.579137 0.343642
vt 0.578408 0.344371
vt 0.570420 0.367312
vt 0.570529 0.367203
vn -0.988946 0.139269 -0.050881
vn -0.988946 0.139269 -0.050881
vn -0.988946 0.139269 -0.050881
vn -0.935656 -0.346982 0.064437
vn -0.935656 -0.346982 0.064437
vn -0.935655 -0.346982 0.064437
vn -0.935656 -0.346982 0.064437
vn -0.935655 -0.346982 0.064437
vn -0.935655 -0.346982 0.064437
vn -0.935655 -0.346982 0.064437
vn -0.131568 0.990443 0.041380
vn -0.131568 0.990443 0.041380
vn -0.131568 0.990443 0.041380
vn -0.131568 0.990443 0.041380
vn -0.131568 0.990443 0.041380
vn -0.131568 0.990443 0.041380
vn -0.131568 0.990443 0.041380
vn -0.131568 0.990443 0.041380
vn 0.038750 0.828973 0.557944
vn 0.038750 0.828973 0.557944
vn 0.038750 0.828973 0.557944
vn -0.379394 -0.447220 -0.809972
vn -0.379394 -0.447220 -0.809972
vn -0.379394 -0.447220 -0.809972
vn -0.379394 -0.447220 -0.809972
vn -0.379394 -0.447220 -0.809972
vn -0.379394 -0.447219 -0.809972
vn -0.379394 -0.447220 -0.809972
vn 0.960352 0.241266 0.139697
vn 0.960352 0.241266 0.139697
vn 0.960352 0.241267 0.139697
vn 0.960352 0.241267 0.139698
vn 0.960351 0.241267 0.139699
vn 0.691586 -0.273353 0.668570
vn 0.691586 -0.273353 0.668570
vn 0.691586 -0.273353 0.668570
vn 0.691586 -0.273354 0.668570
vn 0.691586 -0.273354 0.668570
vn 0.830104 -0.398902 -0.389621
vn 0.830104 -0.398902 -0.389621
vn 0.830104 -0.398902 -0.389621
vn 0.830104 -0.398903 -0.389621
vn 0.830104 -0.398902 -0.389621
vn -0.173782 -0.948218 -0.265861
vn -0.173782 -0.948218 -0.265861
vn -0.173782 -0.948218 -0.265861
vn -0.173782 -0.948218 -0.265862
vn 0.917587 -0.343630 0.199882
vn 0.917587 -0.343630 0.199882
vn 0.917587 -0.343630 0.199882
vn 0.917587 -0.343629 0.199880
vn 0.917587 -0.343630 0.199882
vn 0.858194 0.201803 -0.471995
vn 0.858194 0.201803 -0.471995
vn 0.858194 0.201803 -0.471995
vn 0.858194 0.201803 -0.471995
vn 0.858193 0.201803 -0.471995
vn 0.337937 0.493351 -0.801501
vn 0.337937 0.493351 -0.801501
vn 0.337937 0.493351 -0.801501
f 4/7/1 3/6/2 2/3/3
f 3/5/4 8/14/5 2/4/6
f 6/10/7 7/13/8 12/21/9
f 7/13/8 2/4/6 12/21/9
f 12/21/9 2/4/6 14/25/10
f 2/4/6 8/14/5 14/25/10
f 7/12/11 5/9/12 2/3/13
f 5/9/12 1/2/14 2/3/13
f 1/2/14 15/27/15 2/3/13
f 15/27/15 19/34/16 2/3/13
f 19/34/16 18/32/17 2/3/13
f 18/32/17 4/7/18 2/3/13
f 6/11/19 5/9/20 7/13/21
f 8/15/22 3/6/23 9/16/24
f 9/16/24 3/6/23 16/29/25
f 16/29/25 3/6/23 20/36/26
f 3/6/23 4/7/27 20/36/26
f 4/7/27 18/33/28 20/36/26
f 1/1/29 10/17/30 15/28/31
f 10/17/30 11/20/32 15/28/31
f 11/20/32 17/31/33 15/28/31
f 12/22/34 10/18/35 6/11/36
f 6/11/36 10/18/35 5/8/37
f 10/18/35 1/1/38 5/8/37
f 16/29/39 17/30/40 9/16/41
f 17/30/40 11/19/42 9/16/41
f 11/19/42 13/24/43 9/16/41
f 14/26/44 8/15/45 13/23/46
f 13/23/46 8/15/45 9/16/47
f 11/20/48 10/18/49 13/24/50
f 12/21/51 14/26/52 10/18/49
f 10/18/49 14/26/52 13/24/50
f 17/30/53 16/29/54 15/28/55
f 16/29/54 20/37/56 15/28/55
f 20/37/56 19/35/57 15/28/55
f 18/32/58 19/35/59 20/36/60
