# This file uses centimeters as units for non-parametric coordinates.

v 2.099324 -6.001615 9.500001
v 0.573123 -6.001934 9.500000
v 3.651747 0.362498 6.496901
v 2.323264 -3.983578 9.500001
v 1.392541 -0.855715 9.500000
v 1.393822 -0.776520 8.177486
v 9.500000 -0.035667 9.500000
v 9.500000 0.358300 8.248874
v 4.713650 -2.850139 9.499999
v 3.875058 0.456284 6.648068
v 3.581495 -9.500000 9.500000
v 1.048193 -7.926229 9.500000
v 1.039694 -6.780761 7.917343
v 0.830037 -7.482497 9.072190
v 9.500000 -0.096285 7.841117
v 2.936929 -5.578366 4.612327
v 3.554800 0.038242 6.176941
v 2.687598 -0.111870 7.012624
v 1.497418 -0.718052 7.995930
v 2.973481 -5.332233 4.582487
v 4.250938 -1.865149 4.678614
v 4.019362 -9.500000 9.500000
v 9.500000 -2.561651 9.500000
v 3.916784 -9.500000 9.210876
v 9.500000 -5.368967 6.192980
v 4.376998 -7.479353 6.009236
vt 0.505130 0.069439
vt 0.507541 0.046027
vt 0.550543 0.253095
vt 0.506198 0.082372
vt 0.518323 0.113741
vt 0.519438 0.169093
vt 0.625000 0.124531
vt 0.641462 0.129714
vt 0.625000 0.237201
vt 0.526283 0.117404
vt 0.553356 0.248121
vt 0.547125 0.000000
vt 0.547125 1.000000
vt 0.513792 0.020708
vt 0.513680 0.105151
vt 0.513680 0.499693
vt 0.510922 0.251166
vt 0.646827 0.123733
vt 0.625000 0.266251
vt 0.540078 0.261061
vt 0.549533 0.261968
vt 0.537428 0.225675
vt 0.520952 0.177318
vt 0.540703 0.265125
vt 0.558933 0.311056
vt 0.561829 0.292152
vt 0.552886 0.000000
vt 0.552886 1.000000
vt 0.625000 0.091294
vt 0.551537 0.090392
vt 0.551537 0.996196
vt 0.641251 0.098593
vt 0.558331 0.438513
vn -0.000188 0.897222 -0.441579
vn -0.661613 0.576944 -0.478960
vn -0.416837 0.760874 -0.497311
vn -0.966645 -0.099550 -0.235981
vn -0.876126 0.072324 -0.476626
vn -0.982598 -0.165305 -0.084702
vn -0.958973 -0.273432 -0.074874
vn -0.982543 -0.165761 -0.084456
vn -0.919892 0.371336 -0.126130
vn -0.801240 0.592126 -0.086034
vn -0.566859 0.823409 -0.025840
vn 0.514139 0.856143 0.051766
vn 0.211101 0.796467 0.566637
vn 0.487867 0.863335 0.128994
vn 0.194871 0.744458 0.638598
vn 0.049775 0.693249 0.718977
vn -0.084029 0.656580 0.749561
vn -0.417459 0.907095 0.053915
vn -0.958312 -0.285155 -0.018004
vn -0.958312 -0.285155 -0.018004
vn -0.958312 -0.285155 -0.018004
vn 0.000000 0.000001 1.000000
vn 0.000000 0.000000 1.000000
vn 0.000000 0.000000 1.000000
vn 0.000000 0.000000 1.000000
vn 0.000000 0.000000 1.000000
vn 0.000000 0.000000 1.000000
vn 0.000000 -0.000000 1.000000
vn 0.000000 -0.000000 1.000000
vn 0.000000 -0.000000 1.000000
vn 0.000000 -0.000000 1.000000
vn 0.218103 0.651650 -0.726487
vn 0.218103 0.651650 -0.726487
vn 0.218103 0.651650 -0.726487
vn 0.218103 0.651651 -0.726486
vn 0.218103 0.651651 -0.726486
vn 0.218103 0.651650 -0.726487
vn -0.489181 0.831912 0.261961
vn -0.309133 0.708533 0.634364
vn -0.224650 0.626250 0.746554
vn -0.207449 0.608238 0.766167
vn 0.000000 -1.000000 0.000000
vn 0.000000 -1.000000 0.000000
vn 0.000000 -1.000000 0.000000
vn -0.942642 -0.232719 0.239306
vn -0.942642 -0.232719 0.239306
vn -0.942642 -0.232719 0.239306
vn -0.450104 -0.724534 -0.521973
vn -0.450104 -0.724534 -0.521974
vn -0.450104 -0.724534 -0.521974
vn -0.450104 -0.724534 -0.521974
vn -0.450104 -0.724535 -0.521973
vn -0.450105 -0.724535 -0.521972
vn -0.450104 -0.724534 -0.521973
vn -0.581091 0.653008 -0.485710
vn -0.581091 0.653008 -0.485710
vn -0.581091 0.653008 -0.485710
vn -0.691586 0.273354 -0.668570
vn -0.691586 0.273354 -0.668570
vn -0.691586 0.273354 -0.668571
vn -0.691586 0.273354 -0.668570
vn -0.691587 0.273352 -0.668570
vn 1.000000 0.000000 0.000000
vn 1.000000 0.000000 0.000000
vn 1.000000 0.000000 0.000000
vn 1.000000 0.000000 0.000000
vn 1.000000 0.000000 0.000000
vn 0.428698 0.269539 -0.862303
vn 0.373256 0.112379 -0.920897
vn 0.335526 0.097696 -0.936951
vn 0.238634 -0.069193 -0.968641
vn 0.225164 -0.419657 -0.879312
vn 0.221480 -0.462918 -0.858285
vn 0.694447 -0.548547 0.465660
vn 0.691617 -0.617026 0.375426
vn 0.689861 -0.639582 0.339155
vn 0.388246 -0.824890 -0.410879
vn 0.351764 -0.813609 -0.462928
f 1/1/1 13/16/2 2/2/3
f 2/2/3 13/16/2 14/17/4
f 19/23/5 20/24/6 6/6/7
f 6/6/7 20/24/6 4/4/8
f 4/4/8 20/24/6 1/1/9
f 20/24/6 16/20/10 1/1/9
f 16/20/10 13/15/11 1/1/9
f 5/5/12 9/10/13 6/6/14
f 6/6/14 9/10/13 19/23/15
f 19/23/15 9/10/13 18/22/16
f 9/10/13 10/11/17 18/22/16
f 10/11/17 3/3/18 18/22/16
f 4/4/19 5/5/20 6/6/21
f 5/5/22 4/4/23 9/10/24
f 7/7/25 9/10/24 23/29/26
f 23/29/26 9/10/24 22/27/27
f 9/10/24 4/4/23 22/27/27
f 4/4/23 1/1/28 22/27/27
f 22/27/27 1/1/28 11/12/29
f 11/12/29 1/1/28 12/14/30
f 1/1/28 2/2/31 12/14/30
f 21/25/32 17/21/33 15/19/34
f 17/21/33 3/3/35 15/19/34
f 3/3/35 10/11/36 15/19/34
f 10/11/36 8/9/37 15/19/34
f 7/7/38 8/9/39 9/10/40
f 9/10/40 8/9/39 10/11/41
f 11/13/42 24/31/43 22/28/44
f 14/17/45 12/14/46 2/2/47
f 16/20/48 26/33/49 13/15/50
f 26/33/49 24/30/51 13/15/50
f 13/15/50 24/30/51 14/17/52
f 14/17/52 24/30/51 12/14/53
f 24/30/51 11/12/54 12/14/53
f 17/21/55 18/22/56 3/3/57
f 20/24/58 19/23/59 21/26/60
f 19/23/59 18/22/61 21/26/60
f 17/21/62 21/26/60 18/22/61
f 25/32/63 15/18/64 23/29/65
f 15/18/64 8/8/66 23/29/65
f 23/29/65 8/8/66 7/7/67
f 15/18/68 25/32/69 21/26/70
f 21/26/70 25/32/69 20/24/71
f 20/24/71 25/32/69 16/20/72
f 25/32/69 26/33/73 16/20/72
f 23/29/74 22/28/75 25/32/76
f 22/28/75 24/30/77 25/32/76
f 24/30/77 26/33/78 25/32/76
