# This file uses centimeters as units for non-parametric coordinates.

v 9.500000 3.692344 2.620317
v 4.883344 2.103075 1.549373
v 9.500000 -1.523390 3.784367
v 6.918834 -1.575089 2.428487
v 9.500000 -0.640414 4.394426
v 9.500000 1.528624 -2.101421
v 3.819659 -1.999764 -1.772695
v 9.500000 -1.858457 1.406572
v 3.678820 1.348508 -0.488732
v 7.900928 1.173327 -2.669636
v 3.739449 -1.340839 -2.502102
v 4.252186 0.353959 0.837495
v 4.755304 -1.675855 0.884422
v 3.596773 -1.925156 -1.328637
v 3.229585 0.296819 -1.046255
v 3.089783 -0.741832 -1.744524
vt 0.683512 0.173583
vt 0.648414 0.238617
vt 0.571396 0.406507
vt 0.571763 0.366741
vt 0.700206 0.104955
vt 0.687334 0.128806
vt 0.623176 0.249937
vt 0.623230 0.244119
vt 0.692179 0.116573
vt 0.675393 0.147675
vt 0.654747 0.400092
vt 0.777650 0.145113
vt 0.575855 0.381268
vt 0.731493 0.100547
vt 0.720924 0.120128
vt 0.553885 0.417500
vt 0.553686 0.438995
vt 0.695598 0.285678
vt 0.626417 0.429203
vt 0.580785 0.392166
vt 0.559846 0.501112
vt 0.560985 0.377935
vt 0.575157 0.349981
vt 0.575256 0.339288
vt 0.563074 0.391698
vt 0.545789 0.495256
vt 0.545878 0.485726
vt 0.549885 0.501578
vt 0.549873 0.502906
vn -0.873667 0.123760 0.470520
vn -0.873667 0.123760 0.470520
vn -0.873667 0.123760 0.470520
vn -0.873667 0.123759 0.470520
vn -0.387853 -0.523937 0.758327
vn -0.387853 -0.523937 0.758327
vn -0.387853 -0.523937 0.758327
vn -0.211425 0.888544 -0.407172
vn -0.182161 0.909578 -0.373476
vn -0.171380 0.916698 -0.360963
vn -0.109157 0.951465 -0.287749
vn -0.109157 0.951465 -0.287749
vn 1.000000 0.000000 0.000000
vn 1.000000 -0.000000 0.000000
vn 1.000000 -0.000000 0.000000
vn 1.000000 -0.000000 0.000000
vn 1.000000 0.000000 0.000000
vn 0.376704 -0.666401 -0.643432
vn 0.376704 -0.666401 -0.643432
vn 0.376704 -0.666401 -0.643432
vn 0.376704 -0.666401 -0.643431
vn 0.376704 -0.666401 -0.643431
vn -0.326238 0.358197 0.874794
vn -0.451676 0.151676 0.879195
vn -0.422228 0.205146 0.882971
vn -0.572677 -0.123209 0.810470
vn -0.572677 -0.123209 0.810470
vn -0.572677 -0.123209 0.810470
vn -0.053389 -0.988805 0.139337
vn -0.053389 -0.988805 0.139337
vn -0.053389 -0.988805 0.139337
vn -0.053389 -0.988805 0.139337
vn -0.053388 -0.988805 0.139337
vn -0.053389 -0.988805 0.139337
vn -0.818957 -0.467729 -0.332474
vn -0.818957 -0.467729 -0.332474
vn -0.818957 -0.467729 -0.332474
vn -0.818957 -0.467728 -0.332475
vn -0.364191 0.552873 -0.749463
vn -0.364191 0.552873 -0.749464
vn -0.364191 0.552873 -0.749464
vn -0.364191 0.552873 -0.749464
vn -0.364191 0.552873 -0.749464
vn -0.858193 -0.201804 0.471995
vn -0.858193 -0.201804 0.471995
vn -0.858193 -0.201804 0.471995
vn -0.858194 -0.201803 0.471995
vn -0.858194 -0.201802 0.471995
f 2/3/1 9/17/2 12/21/3
f 12/21/3 9/17/2 15/26/4
f 5/10/5 4/8/6 3/5/7
f 1/1/8 6/11/9 2/4/10
f 6/11/9 10/19/11 2/4/10
f 10/19/11 9/16/12 2/4/10
f 6/12/13 1/1/14 8/14/15
f 1/1/14 5/9/16 8/14/15
f 8/14/15 5/9/16 3/5/17
f 8/15/18 7/13/19 6/12/20
f 6/12/20 7/13/19 10/18/21
f 7/13/19 11/20/22 10/18/21
f 1/2/23 2/4/24 5/10/25
f 5/10/25 2/4/24 4/7/26
f 2/4/24 12/22/27 4/7/26
f 12/22/27 13/23/28 4/7/26
f 3/6/29 4/8/30 8/15/31
f 8/15/31 4/8/30 7/13/32
f 7/13/32 4/8/30 14/25/33
f 13/24/34 14/25/33 4/8/30
f 16/28/35 11/20/36 14/25/37
f 14/25/37 11/20/36 7/13/38
f 9/16/39 10/18/40 15/27/41
f 15/27/41 10/18/40 16/29/42
f 16/29/42 10/18/40 11/20/43
f 13/23/44 12/21/45 14/25/46
f 14/25/46 12/21/45 16/28/47
f 12/21/45 15/27/48 16/28/47
