# This file uses centimeters as units for non-parametric coordinates.

v 9.500000 -0.096285 7.841117
v 2.936929 -5.578366 4.612327
v 9.500000 -0.640415 4.394426
v 9.500000 -1.523391 3.784367
v 6.918834 -1.575089 2.428488
v 2.973481 -5.332231 4.582487
v 4.250937 -1.865150 4.678614
v 2.997598 -5.457970 4.255611
v 3.691005 -4.941500 1.960328
v 4.798420 -2.227977 1.541560
v 9.500000 -5.368967 6.192980
v 9.500000 -2.281937 4.066351
v 4.376998 -7.479354 6.009236
v 5.121086 -6.874231 3.440675
vt 0.646827 0.123733
vt 0.625000 0.145561
vt 0.538644 0.817364
vt 0.538644 0.208058
vt 0.692179 0.116573
vt 0.644194 0.241379
vt 0.700206 0.104955
vt 0.697122 0.187088
vt 0.601200 0.452891
vt 0.634306 0.366784
vt 0.539125 0.809545
vt 0.539125 0.210185
vt 0.555933 0.633393
vt 0.558829 0.630497
vt 0.539442 0.249799
vt 0.539442 0.221180
vt 0.548566 0.561178
vt 0.548566 0.577778
vt 0.566436 0.601795
vt 0.577183 0.573843
vt 0.641251 0.098593
vt 0.625000 0.114845
vt 0.696495 0.094975
vt 0.690263 0.260951
vt 0.557592 0.628736
vt 0.557592 0.314787
vt 0.567383 0.625476
vt 0.567383 0.734210
vn -0.232373 0.960728 -0.151671
vn -0.232373 0.960728 -0.151671
vn -0.232373 0.960728 -0.151671
vn -0.232373 0.960728 -0.151671
vn -0.232373 0.960728 -0.151670
vn 0.446752 -0.311740 -0.838589
vn 0.446752 -0.311740 -0.838589
vn 0.446752 -0.311740 -0.838589
vn 0.446752 -0.311740 -0.838589
vn 0.446752 -0.311738 -0.838589
vn 0.446752 -0.311740 -0.838589
vn 0.387853 0.523937 -0.758327
vn 0.387853 0.523937 -0.758327
vn 0.387853 0.523937 -0.758327
vn -0.983696 0.131167 -0.123033
vn -0.983696 0.131167 -0.123033
vn -0.983696 0.131167 -0.123033
vn -0.917587 0.343629 -0.199882
vn -0.917587 0.343629 -0.199882
vn -0.917587 0.343629 -0.199882
vn -0.917587 0.343629 -0.199883
vn -0.917587 0.343630 -0.199882
vn 1.000000 0.000000 0.000000
vn 1.000000 0.000000 0.000000
vn 1.000000 0.000000 0.000000
vn 1.000000 0.000000 0.000000
vn 1.000000 0.000000 0.000000
vn -0.428697 -0.269539 0.862303
vn -0.335526 -0.097696 0.936951
vn -0.373256 -0.112379 0.920897
vn -0.238634 0.069193 0.968641
vn -0.225163 0.419657 0.879312
vn -0.221479 0.462917 0.858286
vn -0.608824 -0.714504 -0.344699
vn -0.608824 -0.714504 -0.344699
vn -0.608824 -0.714504 -0.344699
vn -0.608824 -0.714504 -0.344699
vn -0.608824 -0.714504 -0.344699
vn 0.381997 -0.918107 -0.105635
vn 0.493504 -0.796382 -0.349615
vn 0.567584 -0.576635 -0.587657
vn 0.580338 -0.462001 -0.670644
f 1/1/1 3/6/2 7/14/3
f 3/6/2 5/9/4 7/14/3
f 5/9/4 10/19/5 7/14/3
f 14/27/6 9/17/7 12/24/8
f 9/17/7 10/20/9 12/24/8
f 10/20/9 5/10/10 12/24/8
f 5/10/10 4/8/11 12/24/8
f 3/5/12 4/8/13 5/9/14
f 6/12/15 8/16/16 2/4/17
f 10/20/18 9/18/19 7/14/20
f 6/11/21 7/14/20 8/16/22
f 7/14/20 9/18/19 8/16/22
f 11/21/23 12/23/24 1/1/25
f 12/23/24 4/7/26 1/1/25
f 4/7/26 3/5/27 1/1/25
f 1/2/28 7/13/29 11/22/30
f 7/13/29 6/11/31 11/22/30
f 6/11/31 2/3/32 11/22/30
f 13/25/33 11/22/30 2/3/32
f 13/26/34 2/4/35 14/28/36
f 9/18/37 14/28/36 8/15/38
f 14/28/36 2/4/35 8/15/38
f 13/26/39 14/27/40 11/22/41
f 11/22/41 14/27/40 12/23/42
