# This file uses centimeters as units for non-parametric coordinates.

v 0.736336 0.427371 -1.432696
v 0.477676 0.899976 -1.120361
v 3.651747 0.362498 6.496902
v 5.450554 4.028693 3.529248
v 5.140429 4.360189 3.346069
v 0.228136 0.230325 5.874671
v -1.116054 3.260754 4.081804
v -1.057849 4.471180 4.382454
v 1.151882 -0.232246 7.376036
v 4.883344 2.103076 1.549372
v -0.428836 5.914883 3.228118
v 3.221256 2.564915 -0.286503
v 1.183935 0.683908 -1.842543
v 0.814584 3.154275 -1.178228
v 3.678821 1.348509 -0.488731
v 1.174204 6.795998 2.304019
v 0.437467 6.893209 2.366621
v 0.090716 6.687354 2.115734
v 0.824821 3.928204 -0.913058
v 0.968490 4.000428 -0.823668
v 0.796373 -0.114640 1.065719
v 0.925077 -0.005510 -1.137122
v 3.554800 0.038241 6.176943
v 2.687596 -0.111871 7.012625
v 1.306107 -0.311804 7.405627
v 4.252185 0.353958 0.837494
v 1.920113 0.149722 -1.688911
v 3.229586 0.296820 -1.046254
vt 0.599615 0.198545
vt 0.591527 0.204610
vt 0.587564 0.129770
vt 0.631060 0.198043
vt 0.631274 0.198356
vt 0.622206 0.205180
vt 0.535271 0.150600
vt 0.522586 0.207755
vt 0.513054 0.226203
vt 0.539440 0.127301
vt 0.644062 0.178529
vt 0.644755 0.179543
vt 0.518187 0.258968
vt 0.611772 0.199864
vt 0.602557 0.196657
vt 0.572912 0.231612
vt 0.633955 0.181495
vt 0.633620 0.181006
vt 0.542701 0.275354
vt 0.529384 0.279868
vt 0.525573 0.278847
vt 0.565279 0.241742
vt 0.566520 0.241267
vt 0.585553 0.176000
vt 0.604118 0.191098
vt 0.590498 0.125503
vt 0.568092 0.123528
vt 0.541977 0.124943
vt 0.645584 0.155034
vt 0.647221 0.157427
vt 0.618175 0.182173
vt 0.636315 0.171312
vt 0.636261 0.171233
vn 0.922601 -0.372982 0.098447
vn 0.922601 -0.372982 0.098447
vn 0.922601 -0.372982 0.098447
vn 0.922601 -0.372982 0.098447
vn 0.922601 -0.372982 0.098447
vn 0.733018 0.370564 -0.570409
vn 0.733018 0.370564 -0.570409
vn 0.733018 0.370564 -0.570409
vn 0.733019 0.370564 -0.570409
vn 0.733018 0.370564 -0.570409
vn -0.929923 0.130149 -0.343953
vn -0.929923 0.130149 -0.343953
vn -0.929923 0.130149 -0.343953
vn -0.929923 0.130149 -0.343953
vn -0.929923 0.130149 -0.343953
vn -0.929923 0.130149 -0.343953
vn -0.929923 0.130149 -0.343953
vn -0.894612 -0.440657 -0.074099
vn -0.894612 -0.440657 -0.074099
vn -0.894612 -0.440657 -0.074099
vn -0.894612 -0.440657 -0.074099
vn -0.894612 -0.440657 -0.074099
vn -0.894612 -0.440657 -0.074099
vn -0.860015 -0.083672 0.503363
vn -0.860015 -0.083672 0.503363
vn -0.860015 -0.083672 0.503363
vn -0.860015 -0.083672 0.503363
vn 0.873667 -0.123760 -0.470520
vn 0.873667 -0.123760 -0.470520
vn 0.873667 -0.123759 -0.470520
vn 0.873667 -0.123759 -0.470520
vn -0.699251 0.086287 -0.709650
vn -0.699251 0.086287 -0.709650
vn -0.699251 0.086287 -0.709650
vn -0.699251 0.086288 -0.709650
vn -0.302312 -0.623890 -0.720672
vn -0.302312 -0.623890 -0.720672
vn -0.302312 -0.623890 -0.720672
vn -0.302312 -0.623890 -0.720672
vn 0.394475 0.293172 -0.870884
vn 0.394475 0.293172 -0.870884
vn 0.394475 0.293172 -0.870884
vn 0.394475 0.293172 -0.870884
vn 0.394475 0.293172 -0.870884
vn 0.394476 0.293172 -0.870884
vn 0.394475 0.293172 -0.870884
vn 0.394476 0.293172 -0.870884
vn 0.530686 0.614292 -0.583967
vn 0.530686 0.614292 -0.583967
vn 0.530686 0.614292 -0.583967
vn 0.530686 0.614292 -0.583967
vn -0.616071 0.751988 0.234459
vn -0.616070 0.751988 0.234459
vn -0.616070 0.751988 0.234459
vn 0.041409 0.743589 -0.667353
vn 0.041409 0.743589 -0.667354
vn 0.041409 0.743589 -0.667353
vn 0.041409 0.743589 -0.667354
vn 0.041409 0.743589 -0.667354
vn 0.581090 -0.653008 0.485710
vn 0.581091 -0.653008 0.485710
vn 0.581090 -0.653008 0.485710
vn -0.459853 -0.887946 0.009358
vn -0.459853 -0.887946 0.009358
vn -0.459853 -0.887946 0.009358
vn -0.459853 -0.887946 0.009358
vn 0.144562 0.578744 0.802594
vn 0.144562 0.578743 0.802595
vn 0.144561 0.578743 0.802595
vn 0.144561 0.578743 0.802595
vn 0.144562 0.578743 0.802595
vn 0.144562 0.578743 0.802595
vn 0.144561 0.578743 0.802595
vn 0.144560 0.578743 0.802595
vn 0.144562 0.578743 0.802595
vn 0.144562 0.578743 0.802595
vn 0.131568 -0.990443 -0.041380
vn 0.131568 -0.990443 -0.041380
vn 0.131568 -0.990443 -0.041380
vn 0.131568 -0.990443 -0.041380
vn 0.131568 -0.990443 -0.041380
vn 0.131568 -0.990443 -0.041380
vn 0.131568 -0.990443 -0.041380
vn 0.131569 -0.990443 -0.041380
f 26/29/1 10/11/2 23/26/3
f 4/4/4 3/3/5 10/11/2
f 3/3/5 23/26/3 10/11/2
f 15/17/6 12/14/7 10/12/8
f 4/5/9 10/12/8 5/6/10
f 5/6/10 10/12/8 12/14/7
f 2/2/11 7/8/12 14/16/13
f 14/16/13 7/8/12 19/22/14
f 7/8/12 8/9/15 19/22/14
f 8/9/15 11/13/16 19/22/14
f 11/13/16 18/21/17 19/22/14
f 6/7/18 7/8/19 21/24/20
f 1/1/21 22/25/22 2/2/23
f 22/25/22 21/24/20 2/2/23
f 7/8/19 2/2/23 21/24/20
f 7/8/24 6/7/25 8/9/26
f 8/9/26 6/7/25 9/10/27
f 10/11/28 26/30/29 15/18/30
f 15/18/30 26/30/29 28/32/31
f 14/16/32 13/15/33 2/2/34
f 2/2/34 13/15/33 1/1/35
f 27/31/36 22/25/37 13/15/38
f 13/15/38 22/25/37 1/1/39
f 19/22/40 20/23/41 14/16/42
f 20/23/41 12/14/43 14/16/42
f 14/16/42 12/14/43 13/15/44
f 12/14/43 15/18/45 13/15/44
f 15/18/45 28/33/46 13/15/44
f 28/33/46 27/31/47 13/15/44
f 20/23/48 16/19/49 12/14/50
f 12/14/50 16/19/49 5/6/51
f 17/20/52 18/21/53 11/13/54
f 19/22/55 18/21/56 20/23/57
f 16/19/58 20/23/57 17/20/59
f 17/20/59 20/23/57 18/21/56
f 24/27/60 23/26/61 3/3/62
f 25/28/63 9/10/64 21/24/65
f 21/24/65 9/10/64 6/7/66
f 4/5/67 5/6/68 3/3/69
f 5/6/68 16/19/70 3/3/69
f 3/3/69 16/19/70 24/27/71
f 24/27/71 16/19/70 25/28/72
f 25/28/72 16/19/70 9/10/73
f 16/19/70 17/20/74 9/10/73
f 17/20/74 11/13/75 9/10/73
f 11/13/75 8/9/76 9/10/73
f 25/28/77 21/24/78 24/27/79
f 24/27/79 21/24/78 23/26/80
f 23/26/80 21/24/78 26/29/81
f 26/29/81 21/24/78 28/32/82
f 28/32/82 21/24/78 27/31/83
f 21/24/78 22/25/84 27/31/83
