# This file uses centimeters as units for non-parametric coordinates.

v 3.581495 -9.500000 9.500000
v 1.950953 -9.500000 2.755046
v 0.210012 -9.500000 9.500000
v 1.048192 -7.926229 9.500000
v -1.271660 -6.412481 0.378095
v 3.479333 -4.893233 -0.313377
v -0.424937 -4.725217 1.328420
v 2.651302 -9.500000 -2.407394
v -2.919853 -9.500000 6.162763
v -2.539250 -9.500000 6.912088
v -2.369394 -8.409681 6.525359
v 7.643715 -9.500000 -2.884945
v 4.618707 -6.718009 -1.595715
v 4.616221 -7.435834 -1.961058
v 5.175030 -9.500000 -2.371130
v -0.538566 -4.932564 1.940940
v 1.039692 -6.780762 7.917343
v -2.351489 -8.374539 6.524595
v 0.830036 -7.482498 9.072188
v 2.936930 -5.578365 4.612322
v 2.316755 -4.303827 0.584293
v 3.155713 -4.355383 0.219788
v 2.997599 -5.457968 4.255604
v 3.691004 -4.941499 1.960327
v 3.717668 -9.500000 5.653257
v 3.916785 -9.500000 9.210876
v 4.376999 -7.479355 6.009234
v 5.121086 -6.874230 3.440676
vt 0.547125 0.000000
vt 0.547125 1.000000
vt 0.462769 0.403255
vt 0.462769 0.865582
vt 0.502763 0.000000
vt 0.502763 1.000000
vt 0.513792 0.020708
vt 0.513792 0.286486
vt 0.483268 0.337950
vt 0.453841 0.273580
vt 0.523450 0.347159
vt 0.494409 0.289860
vt 0.449611 0.191867
vt 0.534886 0.843324
vt 0.534886 0.656866
vt 0.461581 0.131733
vt 0.461581 0.956089
vt 0.466589 0.842924
vt 0.466589 0.965949
vt 0.468824 0.659788
vt 0.468824 0.119075
vt 0.586487 0.864618
vt 0.547287 0.537735
vt 0.550734 0.591848
vt 0.568093 0.843801
vt 0.568093 0.781220
vt 0.492914 0.270114
vt 0.451474 0.179466
vt 0.513680 0.078621
vt 0.469059 0.650074
vt 0.469059 0.119158
vt 0.510922 0.169500
vt 0.538644 0.183908
vt 0.501700 0.250500
vt 0.517560 0.285314
vt 0.537915 0.192006
vt 0.536956 0.299605
vt 0.589010 0.896695
vt 0.551537 0.996196
vt 0.555341 0.943349
vt 0.557592 0.566710
vt 0.570386 0.388979
vt 0.560695 0.573978
vn 0.000000 0.000000 1.000000
vn 0.000000 0.000000 1.000000
vn 0.000000 0.000000 1.000000
vn 0.000000 -1.000000 0.000000
vn 0.000000 -1.000000 0.000000
vn 0.000000 -1.000000 0.000000
vn 0.000000 -1.000000 0.000000
vn 0.000000 -1.000000 0.000000
vn 0.000000 -1.000000 0.000000
vn 0.000000 -1.000000 -0.000000
vn 0.000000 -1.000000 -0.000000
vn 0.000000 -1.000000 0.000000
vn 0.000000 -1.000000 0.000000
vn -0.643858 0.342914 0.684001
vn -0.643858 0.342914 0.684001
vn -0.643858 0.342914 0.684000
vn -0.643858 0.342915 0.684000
vn -0.643857 0.342915 0.684001
vn -0.643857 0.342914 0.684001
vn -0.295352 0.577073 -0.761416
vn -0.295352 0.577073 -0.761416
vn -0.295352 0.577073 -0.761416
vn -0.295352 0.577074 -0.761415
vn -0.295352 0.577072 -0.761416
vn -0.891053 0.453748 -0.011699
vn -0.778138 -0.434455 -0.453597
vn -0.891053 0.453748 -0.011699
vn -0.361778 -0.775705 -0.517106
vn -0.710719 -0.516144 -0.477989
vn -0.891053 0.453748 -0.011699
vn -0.891053 0.453748 -0.011698
vn -0.854093 0.286927 0.433818
vn -0.854093 0.286927 0.433818
vn -0.854093 0.286927 0.433818
vn 0.061954 -0.567447 -0.821076
vn -0.656411 -0.142406 -0.740841
vn -0.682392 -0.234710 -0.692281
vn -0.934815 0.271881 -0.228477
vn -0.265104 0.438089 -0.858952
vn -0.265103 0.438088 -0.858952
vn 0.014082 0.198501 -0.979999
vn 0.014082 0.198501 -0.979999
vn 0.014082 0.198501 -0.980000
vn 0.037183 0.453173 -0.890647
vn -0.177566 0.173163 -0.968754
vn -0.060241 0.332845 -0.941055
vn -0.201817 0.137998 -0.969653
vn -0.515900 0.770451 0.374502
vn -0.515901 0.770451 0.374501
vn -0.515901 0.770451 0.374501
vn -0.515901 0.770451 0.374501
vn -0.061765 0.948816 0.309732
vn -0.061765 0.948816 0.309732
vn -0.061765 0.948816 0.309731
vn -0.061765 0.948816 0.309731
vn -0.061765 0.948816 0.309731
vn -0.061765 0.948816 0.309731
vn 0.900554 -0.132394 0.414094
vn 0.863084 0.484352 0.143139
vn 0.945897 0.142250 0.291622
vn 0.701298 0.711258 -0.047892
vn 0.825307 0.560940 -0.064925
vn 0.825307 0.560939 -0.064925
vn 0.825307 0.560939 -0.064925
vn 0.173780 0.948218 0.265861
vn 0.173780 0.948218 0.265862
vn 0.173780 0.948218 0.265862
vn 0.173780 0.948218 0.265862
vn 0.450105 0.724534 0.521973
vn 0.450105 0.724534 0.521973
vn 0.450105 0.724534 0.521973
vn 0.450104 0.724534 0.521973
vn 0.450105 0.724534 0.521973
vn 0.450103 0.724534 0.521975
vn 0.450104 0.724534 0.521973
vn 0.608824 0.714503 0.344700
vn 0.608824 0.714504 0.344700
vn 0.608824 0.714503 0.344700
vn 0.608824 0.714504 0.344700
vn 0.608824 0.714504 0.344700
vn 0.952051 -0.301264 -0.053285
vn 0.949218 -0.313778 0.022998
vn 0.943900 -0.321375 0.075967
vn 0.923313 -0.334512 0.188668
f 4/7/1 3/5/2 1/1/3
f 12/22/4 25/38/5 15/25/6
f 15/25/6 25/38/5 8/14/7
f 8/14/7 25/38/5 2/4/8
f 2/4/8 25/38/5 9/17/9
f 9/17/9 25/38/5 10/19/10
f 10/19/10 25/38/5 3/6/11
f 25/38/5 26/39/12 3/6/11
f 3/6/11 26/39/12 1/2/13
f 10/18/14 3/5/15 11/20/16
f 11/20/16 3/5/15 18/30/17
f 4/8/18 19/32/19 3/5/15
f 19/32/19 18/30/17 3/5/15
f 5/9/20 7/13/21 6/11/22
f 7/13/21 21/34/23 6/11/22
f 21/34/23 22/35/24 6/11/22
f 7/12/25 5/9/26 16/27/27
f 2/3/28 9/16/29 5/9/26
f 9/16/29 11/21/30 5/9/26
f 11/21/30 18/31/31 5/9/26
f 18/31/31 16/27/27 5/9/26
f 9/17/32 10/18/33 11/21/34
f 5/10/35 6/11/36 2/3/37
f 2/3/37 6/11/36 8/15/38
f 6/11/36 13/23/39 8/15/38
f 13/23/39 14/24/40 8/15/38
f 14/24/41 15/26/42 8/15/43
f 13/23/44 12/22/45 14/24/46
f 12/22/45 15/26/47 14/24/46
f 19/32/48 17/29/49 18/30/50
f 18/30/50 17/29/49 16/27/51
f 17/29/52 20/33/53 16/28/54
f 20/33/53 23/36/55 16/28/54
f 21/34/56 7/13/57 23/36/55
f 23/36/55 7/13/57 16/28/54
f 25/38/58 12/22/59 28/43/60
f 12/22/59 13/23/61 28/43/60
f 28/43/60 13/23/61 24/37/62
f 22/35/63 24/37/62 6/11/64
f 24/37/62 13/23/61 6/11/64
f 22/35/65 21/34/66 24/37/67
f 24/37/67 21/34/66 23/36/68
f 20/33/69 17/29/70 27/42/71
f 27/42/71 17/29/70 26/40/72
f 17/29/70 19/32/73 26/40/72
f 19/32/73 4/8/74 26/40/72
f 26/40/72 4/8/74 1/2/75
f 27/41/76 28/43/77 20/33/78
f 24/37/79 23/36/80 28/43/77
f 28/43/77 23/36/80 20/33/78
f 26/39/81 25/38/82 27/42/83
f 27/42/83 25/38/82 28/43/84
