# This file uses centimeters as units for non-parametric coordinates.

v 9.500000 -9.500000 9.500000
v 9.500000 -2.561651 9.500000
v 4.019362 -9.500000 9.500000
v 9.500000 -9.500000 4.073790
v 3.916784 -9.500000 9.210876
v 3.717667 -9.500000 5.653258
v 9.500000 -5.368967 6.192981
v 9.500000 -2.281937 4.066353
v 4.376998 -7.479354 6.009236
v 5.121086 -6.874231 3.440676
vt 0.625000 0.000000
vt 0.625000 1.000000
vt 0.625000 0.091294
vt 0.552886 0.000000
vt 0.552886 1.000000
vt 0.625000 0.884251
vt 0.740749 0.000000
vt 0.551537 0.060121
vt 0.551537 0.996196
vt 0.589010 0.896695
vt 0.589010 0.633758
vt 0.641251 0.098593
vt 0.625000 0.125071
vt 0.696495 0.094975
vt 0.686081 0.174530
vt 0.557592 0.470521
vt 0.561811 0.463647
vt 0.572866 0.706603
vt 0.572866 0.762576
vn 1.000000 0.000000 0.000000
vn 1.000000 0.000000 0.000000
vn 1.000000 0.000000 0.000000
vn 1.000000 0.000000 0.000000
vn 1.000000 0.000000 0.000000
vn 0.000000 0.000000 1.000000
vn 0.000000 0.000000 1.000000
vn 0.000000 0.000000 1.000000
vn 0.000000 -1.000000 0.000000
vn 0.000000 -1.000000 -0.000000
vn 0.000000 -1.000000 0.000000
vn 0.000000 -1.000000 -0.000007
vn 0.000000 -1.000000 -0.000000
vn -0.694447 0.548547 -0.465660
vn -0.689861 0.639582 -0.339155
vn -0.691617 0.617026 -0.375427
vn -0.388246 0.824890 0.410879
vn -0.351765 0.813609 0.462928
vn -0.952051 0.301264 0.053285
vn -0.943900 0.321375 -0.075967
vn -0.949218 0.313778 -0.022998
vn -0.923313 0.334512 -0.188668
vn 0.142496 -0.001020 -0.989795
vn 0.045246 -0.162217 -0.985717
vn 0.000752 -0.233213 -0.972425
vn -0.218703 -0.557776 -0.800659
vn -0.580338 0.462001 0.670644
vn -0.493504 0.796382 0.349614
vn -0.567584 0.576635 0.587657
vn -0.381997 0.918107 0.105634
f 8/14/1 7/12/2 4/7/3
f 2/3/4 1/1/5 7/12/2
f 1/1/5 4/7/3 7/12/2
f 2/3/6 3/4/7 1/1/8
f 4/6/9 1/2/10 6/10/11
f 3/5/12 5/9/13 1/2/10
f 5/9/13 6/10/11 1/2/10
f 2/3/14 7/13/15 3/4/16
f 3/4/16 7/13/15 5/8/17
f 7/13/15 9/16/18 5/8/17
f 5/8/19 9/17/20 6/10/21
f 6/10/21 9/17/20 10/19/22
f 8/15/23 4/6/24 10/18/25
f 10/18/25 4/6/24 6/11/26
f 8/15/27 10/19/28 7/12/29
f 7/12/29 10/19/28 9/16/30
