# This file uses centimeters as units for non-parametric coordinates.

v -0.335242 -9.500000 -9.500000
v -1.607057 -9.500000 -4.739404
v -2.282758 -5.182583 -6.426556
v 6.456705 -9.500000 -9.500000
v 4.779959 -2.364978 -9.500000
v 4.062510 -4.059704 -3.294246
v 2.651301 -9.500000 -2.407394
v 5.175029 -9.500000 -2.371130
v 4.616220 -7.435836 -1.961059
v -3.624886 -0.508600 -9.500000
v 1.207689 -0.403035 -9.500000
v -2.391363 -3.904232 -7.268470
v 1.292836 -0.221658 -7.290941
v 3.981177 -1.574181 -6.090723
v 3.797302 -1.723266 -4.873113
v 1.555027 -0.341839 -7.060312
vt 0.495589 0.750000
vt 0.478854 0.812639
vt 0.516960 0.652760
vt 0.494565 0.630413
vt 0.480777 0.591135
vt 0.584957 0.750000
vt 0.562894 0.656118
vt 0.592596 0.527841
vt 0.575366 0.510610
vt 0.534886 0.843324
vt 0.593550 0.597187
vt 0.568093 0.843801
vt 0.569053 0.727385
vt 0.612361 0.545682
vt 0.475021 0.671166
vt 0.515891 0.630303
vt 0.486397 0.630790
vt 0.477256 0.604750
vt 0.524749 0.550177
vt 0.519189 0.542879
vt 0.577389 0.526641
vt 0.578784 0.528472
vt 0.583023 0.495186
vt 0.580651 0.492814
vt 0.530982 0.544016
vt 0.525824 0.537245
vn 0.000000 -1.000000 0.000000
vn 0.000000 -1.000000 0.000000
vn 0.000000 -1.000000 0.000000
vn 0.000000 -1.000000 0.000000
vn 0.000000 -1.000000 0.000000
vn 0.000000 0.000000 -1.000000
vn 0.000000 0.000000 -1.000000
vn 0.000000 0.000000 -1.000000
vn 0.000000 0.000000 -1.000000
vn 0.000000 0.000000 -1.000000
vn -0.939113 -0.343589 -0.003713
vn -0.943851 -0.272075 -0.187406
vn -0.942842 -0.330976 -0.038778
vn -0.936815 -0.244419 -0.250274
vn -0.936815 -0.244419 -0.250274
vn -0.464000 0.258482 0.847285
vn -0.464000 0.258482 0.847285
vn -0.464000 0.258482 0.847285
vn -0.464000 0.258482 0.847285
vn -0.464000 0.258482 0.847285
vn 0.958905 0.225345 0.172398
vn 0.958905 0.225345 0.172398
vn 0.958905 0.225345 0.172398
vn 0.958905 0.225345 0.172398
vn 0.958905 0.225345 0.172399
vn 0.958905 0.225345 0.172398
vn 0.958905 0.225345 0.172398
vn -0.014082 -0.198501 0.979999
vn -0.014082 -0.198501 0.979999
vn -0.014082 -0.198501 0.980000
vn -0.456987 0.461828 0.760183
vn -0.456987 0.461827 0.760183
vn -0.456987 0.461827 0.760183
vn -0.456987 0.461827 0.760183
vn -0.456984 0.461828 0.760185
vn -0.456988 0.461827 0.760183
vn -0.021767 0.996478 -0.080978
vn -0.368628 0.550373 0.749135
vn -0.292548 0.782521 0.549615
vn -0.394860 0.400081 0.827055
vn 0.479430 0.872937 -0.090153
vn 0.479430 0.872937 -0.090153
vn 0.479430 0.872937 -0.090153
vn 0.479430 0.872937 -0.090153
vn 0.479429 0.872938 -0.090153
vn 0.391488 0.904371 0.169852
vn 0.391488 0.904371 0.169852
vn 0.391488 0.904371 0.169852
f 4/6/1 8/12/2 1/1/3
f 8/12/2 7/10/4 1/1/3
f 2/2/5 1/1/3 7/10/4
f 10/15/6 11/16/7 1/1/8
f 11/16/7 5/7/9 1/1/8
f 1/1/8 5/7/9 4/6/10
f 10/15/11 1/1/12 12/17/13
f 12/17/13 1/1/12 3/4/14
f 2/3/15 3/4/14 1/1/12
f 3/5/16 2/3/17 6/9/18
f 2/3/17 7/11/19 6/9/18
f 7/11/19 9/14/20 6/9/18
f 4/6/21 5/7/22 8/12/23
f 8/12/23 5/7/22 9/13/24
f 9/13/24 5/7/22 6/9/25
f 5/7/22 14/21/26 6/9/25
f 14/21/26 15/24/27 6/9/25
f 7/10/28 8/12/29 9/14/30
f 6/8/31 15/23/32 3/5/33
f 15/23/32 16/26/34 3/5/33
f 16/26/34 13/20/35 3/5/33
f 13/20/35 12/18/36 3/5/33
f 11/16/37 10/15/38 13/19/39
f 13/19/39 10/15/38 12/18/40
f 5/7/41 11/16/42 14/22/43
f 14/22/43 11/16/42 16/25/44
f 16/25/44 11/16/42 13/19/45
f 16/26/46 15/24/47 14/22/48
