# This file uses centimeters as units for non-parametric coordinates.

v 0.477676 0.899976 -1.120361
v -1.185581 -0.662933 -0.882699
v -1.116055 3.260754 4.081804
v -1.057849 4.471180 4.382454
v -6.487774 1.690404 4.596243
v -7.824443 0.184635 0.030361
v -7.611958 1.813944 2.956877
v -1.676075 -0.940529 -0.813532
v -1.554963 -0.936720 -0.735403
v -3.750433 0.690069 4.335432
v -4.982117 0.994584 4.853923
v -5.829015 1.066102 4.683055
v -7.759671 0.112436 0.021774
v -0.428836 5.914882 3.228118
v 0.814584 3.154277 -1.178227
v -0.674055 5.251785 -0.983064
v 0.090717 6.687353 2.115734
v -0.361863 6.895241 1.816334
v 0.682337 3.885933 -1.163626
v 0.824821 3.928204 -0.913058
v -6.200582 1.893779 4.672638
v -4.791291 4.144911 3.221099
v -4.575453 2.238185 5.039563
v -1.091024 4.537199 4.411769
v -0.640751 5.684257 3.560223
v -1.518195 6.371221 2.570893
vt 0.568045 0.361792
vt 0.530699 0.320947
vt 0.541043 0.343494
vt 0.516823 0.282668
vt 0.510479 0.284829
vt 0.395292 0.220138
vt 0.373645 0.172952
vt 0.302324 0.159412
vt 0.308326 0.165414
vt 0.351790 0.210489
vt 0.352003 0.210954
vt 0.528975 0.334088
vt 0.520819 0.316310
vt 0.522737 0.311848
vt 0.526488 0.320025
vt 0.472650 0.236046
vt 0.434461 0.207320
vt 0.436577 0.211931
vt 0.415475 0.213041
vt 0.404605 0.189348
vt 0.313276 0.171878
vt 0.311158 0.167261
vt 0.515645 0.314722
vt 0.562748 0.378792
vt 0.510577 0.362569
vt 0.511161 0.363152
vt 0.522705 0.339832
vt 0.510474 0.340161
vt 0.510338 0.339865
vt 0.555924 0.381212
vt 0.558207 0.379035
vt 0.401068 0.222536
vt 0.380672 0.178079
vt 0.412142 0.252413
vt 0.412674 0.253572
vt 0.431412 0.210519
vt 0.432380 0.212629
vt 0.509166 0.284192
vt 0.509274 0.284426
vt 0.512034 0.306341
vt 0.484404 0.313366
vt 0.483974 0.312428
vn 0.638703 -0.608000 0.471587
vn 0.638703 -0.608000 0.471587
vn 0.638703 -0.608000 0.471587
vn 0.638703 -0.608000 0.471587
vn 0.638703 -0.608000 0.471587
vn -0.203567 -0.079105 0.975860
vn -0.203568 -0.079105 0.975860
vn -0.203568 -0.079105 0.975860
vn -0.203568 -0.079105 0.975860
vn -0.203568 -0.079105 0.975860
vn 0.362318 -0.770767 -0.524065
vn 0.362318 -0.770767 -0.524065
vn 0.362318 -0.770767 -0.524065
vn -0.136870 -0.004972 -0.990577
vn -0.136871 -0.004972 -0.990576
vn -0.136871 -0.004972 -0.990576
vn -0.136871 -0.004972 -0.990576
vn -0.136871 -0.004972 -0.990576
vn -0.136871 -0.004972 -0.990576
vn -0.136871 -0.004972 -0.990576
vn -0.136871 -0.004972 -0.990576
vn -0.657065 -0.637354 0.402548
vn -0.657065 -0.637354 0.402548
vn -0.657065 -0.637354 0.402549
vn -0.657065 -0.637354 0.402549
vn -0.657065 -0.637354 0.402548
vn -0.131575 -0.959077 0.250717
vn -0.131575 -0.959077 0.250717
vn -0.131575 -0.959077 0.250717
vn -0.131575 -0.959077 0.250718
vn -0.131575 -0.959077 0.250717
vn -0.131575 -0.959077 0.250717
vn 0.791257 0.132550 0.596945
vn 0.791257 0.132550 0.596945
vn 0.791258 0.132550 0.596943
vn 0.791258 0.132549 0.596943
vn 0.929923 -0.130149 0.343953
vn 0.929923 -0.130149 0.343953
vn 0.929923 -0.130149 0.343953
vn 0.929923 -0.130149 0.343953
vn 0.929923 -0.130149 0.343953
vn 0.929923 -0.130149 0.343953
vn 0.929923 -0.130149 0.343953
vn -0.000032 0.821384 0.570375
vn -0.000033 0.821383 0.570376
vn -0.000033 0.821383 0.570377
vn -0.000033 0.821383 0.570377
vn -0.000034 0.821383 0.570377
vn 0.845594 0.162986 -0.508338
vn 0.845594 0.162986 -0.508338
vn 0.845594 0.162986 -0.508338
vn 0.601846 0.657585 -0.453170
vn 0.601846 0.657585 -0.453170
vn 0.601846 0.657585 -0.453170
vn 0.601846 0.657585 -0.453171
vn 0.601846 0.657585 -0.453170
vn 0.324811 -0.242673 0.914116
vn 0.324811 -0.242671 0.914117
vn 0.324811 -0.242671 0.914116
vn 0.324811 -0.242671 0.914117
vn 0.324811 -0.242671 0.914116
vn 0.324811 -0.242671 0.914117
vn -0.591929 0.664596 0.455995
vn -0.591929 0.664596 0.455995
vn -0.591929 0.664596 0.455995
vn -0.591930 0.664596 0.455994
vn -0.571921 0.733665 -0.366936
vn -0.571921 0.733665 -0.366936
vn -0.571921 0.733665 -0.366936
vn -0.571921 0.733665 -0.366936
vn -0.571920 0.733666 -0.366936
vn -0.571921 0.733666 -0.366935
vn -0.295762 0.641538 0.707781
vn -0.295763 0.641538 0.707781
vn -0.295763 0.641538 0.707781
vn -0.295763 0.641538 0.707781
vn -0.295763 0.641538 0.707781
vn -0.295763 0.641538 0.707781
f 10/16/1 9/14/2 3/4/3
f 9/14/2 2/2/4 3/4/3
f 3/4/3 2/2/4 1/1/5
f 23/36/6 21/33/7 11/17/8
f 11/17/8 21/33/7 12/20/9
f 5/7/10 12/20/9 21/33/7
f 9/15/11 8/13/12 2/2/13
f 6/9/14 16/26/15 13/22/16
f 13/22/16 16/26/15 8/12/17
f 8/12/17 16/26/15 2/3/18
f 2/3/18 16/26/15 1/1/19
f 1/1/19 16/26/15 15/24/20
f 16/26/15 19/30/21 15/24/20
f 12/19/22 5/6/23 13/21/24
f 13/21/24 5/6/23 6/9/25
f 5/6/23 7/10/26 6/9/25
f 13/22/27 8/13/28 12/19/29
f 12/19/29 8/13/28 11/17/30
f 8/13/28 9/14/31 11/17/30
f 9/14/31 10/16/32 11/17/30
f 14/23/33 25/40/34 4/5/35
f 4/5/35 25/40/34 24/38/36
f 1/1/37 15/24/38 3/4/39
f 15/24/38 20/31/40 3/4/39
f 3/4/39 20/31/40 4/5/41
f 4/5/41 20/31/40 14/23/42
f 20/31/40 17/27/43 14/23/42
f 25/40/44 14/23/45 26/41/46
f 26/41/46 14/23/45 18/28/47
f 17/27/48 18/28/47 14/23/45
f 19/30/49 20/31/50 15/24/51
f 17/27/52 20/31/53 18/28/54
f 19/30/55 16/25/56 20/31/53
f 16/25/56 18/28/54 20/31/53
f 24/39/57 23/37/58 4/5/59
f 4/5/59 23/37/58 3/4/60
f 11/18/61 10/16/62 23/37/58
f 23/37/58 10/16/62 3/4/60
f 22/35/63 7/11/64 21/32/65
f 21/32/65 7/11/64 5/6/66
f 6/8/67 7/10/68 16/25/69
f 7/10/68 22/34/70 16/25/69
f 18/29/71 16/25/69 26/42/72
f 22/34/70 26/42/72 16/25/69
f 21/33/73 23/37/74 22/35/75
f 23/37/74 24/38/76 22/35/75
f 26/42/77 22/35/75 25/40/78
f 24/38/76 25/40/78 22/35/75
