# This file uses centimeters as units for non-parametric coordinates.

v -1.172410 -3.559863 0.959144
v -1.294669 -3.415497 0.890564
v -2.384144 -8.344224 6.514552
v 1.950954 -9.500000 2.755046
v -2.919852 -9.500000 6.162765
v -2.369396 -8.409685 6.525360
v -1.271661 -6.412483 0.378093
v -0.424938 -4.725217 1.328420
v -0.538567 -4.932566 1.940941
v -2.351488 -8.374538 6.524596
v -9.500000 -5.783299 1.635039
v -5.650029 -4.045657 4.239018
v -1.461612 -3.276020 0.786718
v -1.494204 -3.298734 0.897869
v -5.645811 -4.034317 4.225011
v -9.500000 -9.500000 1.411147
v -7.447024 -9.500000 3.077176
v -9.500000 -8.781780 1.669639
v -9.500000 -9.500000 -0.106180
v -3.449760 -6.653973 -1.341412
v -3.102689 -9.500000 -0.932854
v -9.500000 -4.349674 -0.926690
v -4.880767 -2.827397 -1.766115
v -8.108734 -2.971656 -1.326009
vt 0.449651 0.652390
vt 0.446626 0.644828
vt 0.464334 0.891086
vt 0.464291 0.890918
vt 0.373277 0.516734
vt 0.462769 0.865582
vt 0.461581 0.956089
vt 0.464771 0.895172
vt 0.464731 0.895013
vt 0.428174 0.645201
vt 0.458935 0.765111
vt 0.465975 0.705440
vt 0.466061 0.719668
vt 0.464834 0.892881
vt 0.330071 0.559293
vt 0.271514 0.048904
vt 0.379512 0.511967
vt 0.379497 0.511908
vt 0.442051 0.635892
vt 0.442319 0.634247
vt 0.379476 0.511597
vt 0.379477 0.511601
vt 0.268568 0.000000
vt 0.375000 0.893568
vt 0.402013 0.915489
vt 0.366318 0.831804
vt 0.271969 0.009450
vt 0.248603 0.000000
vt 0.375000 0.873603
vt 0.357253 0.490443
vt 0.425218 0.755377
vt 0.364987 0.495574
vt 0.459175 0.862726
vt 0.237807 0.067767
vt 0.261023 0.270123
vt 0.357281 0.519369
vt 0.354896 0.510073
vt 0.263899 0.197140
vt 0.263899 0.197140
vn 0.741536 0.581610 0.334447
vn 0.741536 0.581610 0.334447
vn 0.741536 0.581610 0.334447
vn 0.604107 0.138821 -0.784719
vn 0.604107 0.138821 -0.784719
vn 0.604107 0.138821 -0.784719
vn 0.604107 0.138821 -0.784719
vn 0.604107 0.138821 -0.784719
vn 0.604107 0.138821 -0.784719
vn 0.604107 0.138821 -0.784719
vn -0.190139 0.118083 0.974630
vn -0.190139 0.118083 0.974630
vn -0.190139 0.118083 0.974630
vn 0.402966 0.648185 0.646123
vn 0.402961 0.648191 0.646120
vn 0.402961 0.648191 0.646120
vn 0.402961 0.648191 0.646120
vn 0.402961 0.648192 0.646119
vn 0.402961 0.648191 0.646120
vn 0.402961 0.648191 0.646120
vn 0.402962 0.648191 0.646119
vn 0.361778 0.775706 0.517105
vn 0.778138 0.434455 0.453597
vn 0.710719 0.516145 0.477988
vn 0.891053 -0.453748 0.011699
vn 0.891054 -0.453747 0.011699
vn 0.891054 -0.453747 0.011698
vn 0.891053 -0.453748 0.011699
vn 0.488611 0.815594 0.309945
vn 0.488611 0.815594 0.309945
vn 0.488611 0.815594 0.309945
vn -0.017189 0.980584 0.195345
vn -0.017189 0.980584 0.195345
vn -0.017189 0.980584 0.195345
vn -0.017191 0.980584 0.195346
vn -0.017189 0.980584 0.195345
vn -1.000000 0.000000 0.000000
vn -1.000000 0.000000 0.000000
vn -1.000000 0.000000 0.000000
vn -1.000000 0.000000 0.000000
vn -1.000000 0.000000 0.000000
vn -0.563172 0.009534 0.826285
vn -0.563172 0.009534 0.826285
vn -0.563172 0.009535 0.826285
vn -0.563172 0.009535 0.826285
vn -0.563172 0.009535 0.826285
vn -0.563172 0.009535 0.826284
vn -0.563171 0.009533 0.826285
vn -0.606881 -0.269150 0.747833
vn -0.606881 -0.269150 0.747833
vn -0.606881 -0.269150 0.747833
vn 0.000000 -1.000000 0.000000
vn 0.000000 -1.000000 0.000000
vn 0.000000 -1.000000 0.000000
vn 0.000000 -1.000000 0.000000
vn 0.000000 -1.000000 0.000000
vn 0.000000 -1.000000 0.000000
vn 0.621711 -0.036499 -0.782396
vn 0.595616 -0.012199 -0.803177
vn 0.598131 -0.014502 -0.801267
vn 0.589467 -0.006605 -0.807765
vn -0.586525 0.706781 0.395537
vn -0.586525 0.706781 0.395537
vn -0.586525 0.706781 0.395537
vn -0.586537 0.706761 0.395554
vn -0.586525 0.706781 0.395537
vn -0.126586 -0.156063 -0.979602
vn -0.126586 -0.156063 -0.979602
vn -0.126586 -0.156063 -0.979602
vn -0.126586 -0.156063 -0.979602
vn -0.126586 -0.156063 -0.979602
vn -0.126586 -0.156063 -0.979602
f 9/13/1 8/12/2 1/1/3
f 23/36/4 13/19/5 20/31/6
f 20/31/6 13/19/5 7/11/7
f 13/19/5 2/2/8 7/11/7
f 2/2/8 1/1/9 7/11/7
f 8/12/10 7/11/7 1/1/9
f 6/9/11 10/14/12 3/4/13
f 10/14/14 9/13/15 3/4/16
f 3/4/16 9/13/15 12/18/17
f 12/18/17 9/13/15 15/21/18
f 15/21/18 9/13/15 14/20/19
f 14/20/19 9/13/15 2/2/20
f 9/13/15 1/1/21 2/2/20
f 4/5/22 7/11/23 5/7/24
f 5/7/24 7/11/23 6/8/25
f 6/8/25 7/11/23 10/14/26
f 8/12/27 9/13/28 7/11/23
f 9/13/28 10/14/26 7/11/23
f 13/19/29 14/20/30 2/2/31
f 24/39/32 15/21/33 23/37/34
f 13/19/35 23/37/34 14/20/36
f 23/37/34 15/21/33 14/20/36
f 22/34/37 19/28/38 11/16/39
f 16/23/40 18/27/41 19/28/38
f 18/27/41 11/16/39 19/28/38
f 18/26/42 17/25/43 11/15/44
f 11/15/44 17/25/43 12/17/45
f 12/17/45 17/25/43 3/3/46
f 3/3/46 17/25/43 6/8/47
f 17/25/43 5/7/48 6/8/47
f 16/24/49 17/25/50 18/27/51
f 4/6/52 5/7/53 21/33/54
f 5/7/53 17/25/55 21/33/54
f 19/29/56 21/33/54 16/24/57
f 21/33/54 17/25/55 16/24/57
f 20/30/58 7/10/59 21/32/60
f 21/32/60 7/10/59 4/5/61
f 24/38/62 22/35/63 15/22/64
f 12/18/65 15/22/64 11/15/66
f 22/35/63 11/15/66 15/22/64
f 21/33/67 19/28/68 20/30/69
f 19/28/68 22/35/70 20/30/69
f 22/35/70 24/39/71 20/30/69
f 24/39/71 23/36/72 20/30/69
