# This file uses centimeters as units for non-parametric coordinates.

v 9.500000 9.500000 9.500000
v 9.500000 9.500000 3.306657
v 9.500000 7.196371 3.787394
v 3.926029 9.500000 4.804305
v 2.257452 9.500000 9.500000
v 9.500000 3.129273 9.500000
v 9.500000 3.963306 7.287320
v 7.273149 5.920965 4.651879
v 5.804226 7.111319 4.798146
v 3.071921 8.462956 9.500000
vt 0.625000 0.250000
vt 0.625000 0.331491
vt 0.706491 0.250000
vt 0.700166 0.219689
vt 0.595422 0.268022
vt 0.551658 0.311785
vt 0.529703 0.250000
vt 0.625000 0.166175
vt 0.681362 0.177149
vt 0.653969 0.208429
vt 0.627521 0.229286
vt 0.540420 0.236355
vn 0.000000 1.000000 0.000000
vn 0.000000 1.000000 0.000000
vn 0.000000 1.000000 0.000000
vn 0.000000 1.000000 0.000000
vn -0.254368 -0.197566 -0.946712
vn -0.254368 -0.197566 -0.946712
vn -0.254368 -0.197566 -0.946712
vn -0.254368 -0.197566 -0.946712
vn -0.254368 -0.197567 -0.946712
vn 0.155380 -0.725635 -0.670307
vn 0.155380 -0.725635 -0.670307
vn 0.155380 -0.725635 -0.670307
vn 0.000000 0.000000 1.000000
vn 0.000000 0.000000 1.000000
vn 0.000000 0.000000 1.000000
vn 0.000000 0.000000 1.000000
vn 1.000000 0.000000 0.000000
vn 1.000000 0.000000 0.000000
vn 1.000000 0.000000 0.000000
vn 1.000000 0.000000 0.000000
vn 1.000000 0.000000 0.000000
vn -0.757428 -0.594864 -0.269146
vn -0.757428 -0.594864 -0.269146
vn -0.757428 -0.594864 -0.269146
vn -0.757428 -0.594865 -0.269146
vn -0.631504 -0.761080 -0.148188
vn -0.626279 -0.765049 -0.149912
vn -0.607900 -0.773898 -0.177597
vn -0.497736 -0.816240 -0.293277
vn -0.631538 -0.774234 -0.041490
f 2/2/1 4/6/2 1/1/3
f 1/1/3 4/6/2 5/7/4
f 4/5/5 2/3/6 9/11/7
f 2/3/6 3/4/8 9/11/7
f 3/4/8 8/10/9 9/11/7
f 3/4/10 7/9/11 8/10/12
f 5/7/13 10/12/14 1/1/15
f 1/1/15 10/12/14 6/8/16
f 6/8/17 7/9/18 1/1/19
f 7/9/18 3/4/20 1/1/19
f 3/4/20 2/3/21 1/1/19
f 9/11/22 10/12/23 4/5/24
f 4/5/24 10/12/23 5/7/25
f 10/12/26 9/11/27 6/8/28
f 6/8/28 9/11/27 7/9/29
f 9/11/27 8/10/30 7/9/29
