# This file uses centimeters as units for non-parametric coordinates.

v 9.500000 9.500000 -9.500000
v 9.500000 9.500000 -5.473740
v 9.500000 2.101062 -9.500000
v 4.779958 -2.364978 -9.500000
v 9.500000 -0.430321 -5.832797
v 1.207690 -0.403036 -9.500000
v 1.292836 -0.221658 -7.290942
v 2.696215 3.040818 -9.500000
v 9.500000 5.207137 -6.319194
v 1.555028 -0.341839 -7.060312
v 3.981176 -1.574182 -6.090724
v 9.500000 1.277005 -4.339326
v 6.956474 -0.718897 -5.091750
v 1.277438 -0.148586 -7.175445
v 0.958755 0.832597 -7.368608
v 6.304520 9.500000 -0.123070
v 4.702817 9.500000 -9.500000
v 1.438396 6.925568 -9.500000
v 8.098393 9.233623 -5.481339
v 1.435333 5.511641 -7.573399
vt 0.625000 0.500000
vt 0.875000 0.250000
vt 0.625000 0.447023
vt 0.822023 0.250000
vt 0.625000 0.644051
vt 0.875000 0.105949
vt 0.691713 0.331261
vt 0.562894 0.656118
vt 0.826747 0.119338
vt 0.813949 0.132136
vt 0.552996 0.536731
vt 0.515891 0.630303
vt 0.598607 0.319888
vt 0.528261 0.516024
vt 0.510576 0.613278
vt 0.540442 0.537962
vt 0.643775 0.399532
vt 0.814115 0.229192
vt 0.600898 0.317329
vt 0.535632 0.499300
vt 0.607490 0.375366
vt 0.635920 0.303669
vt 0.807096 0.141803
vt 0.766052 0.182847
vt 0.718878 0.212744
vt 0.725813 0.205809
vt 0.530384 0.503489
vt 0.526309 0.514849
vt 0.548406 0.433619
vt 0.548399 0.433612
vt 0.597040 0.435213
vt 0.610014 0.448187
vt 0.561879 0.500000
vt 0.518926 0.533874
vt 0.522415 0.525076
vt 0.609720 0.440455
vt 0.593754 0.424489
vt 0.520203 0.465164
vt 0.520201 0.465162
vn 1.000000 0.000000 0.000000
vn 1.000000 0.000000 0.000000
vn 1.000000 0.000000 0.000000
vn 1.000000 0.000000 0.000000
vn 1.000000 0.000000 0.000000
vn 1.000000 0.000000 0.000000
vn 0.000000 0.000000 -1.000000
vn -0.000000 0.000000 -1.000000
vn -0.000000 0.000000 -1.000000
vn -0.000000 0.000000 -1.000000
vn 0.000000 0.000000 -1.000000
vn 0.000000 0.000000 -1.000000
vn 0.000000 0.000000 -1.000000
vn -0.479430 -0.872937 0.090153
vn -0.479430 -0.872937 0.090153
vn -0.479430 -0.872937 0.090153
vn -0.479430 -0.872937 0.090153
vn -0.479429 -0.872938 0.090153
vn 0.614388 -0.649330 -0.448217
vn 0.539676 -0.795758 -0.274807
vn 0.483296 -0.859016 -0.168868
vn 0.184026 -0.947136 0.262809
vn 0.184026 -0.947136 0.262809
vn 0.282051 -0.631664 0.722114
vn 0.282051 -0.631664 0.722114
vn 0.282051 -0.631664 0.722114
vn -0.628803 -0.692241 0.354132
vn -0.628803 -0.692241 0.354132
vn -0.628803 -0.692241 0.354132
vn -0.952786 -0.297421 0.061146
vn -0.932397 0.254628 -0.256515
vn -0.952786 -0.297422 0.061145
vn -0.904972 0.313627 -0.287515
vn -0.869802 0.375951 -0.319539
vn -0.157990 -0.253578 0.954326
vn -0.154116 -0.012384 0.987975
vn -0.241889 0.106409 0.964451
vn -0.231419 0.165571 0.958661
vn -0.326961 0.377010 0.866579
vn -0.336795 0.075382 0.938556
vn -0.336795 0.075381 0.938556
vn -0.336795 0.075383 0.938556
vn -0.336795 0.075382 0.938556
vn 0.000000 1.000000 0.000000
vn 0.000000 1.000000 0.000000
vn 0.000000 1.000000 0.000000
vn 0.000000 1.000000 0.000000
vn -0.927654 -0.300359 -0.221908
vn -0.850052 -0.023509 -0.526174
vn -0.903374 -0.146810 -0.402941
vn -0.801312 0.055546 -0.595662
vn 0.184988 -0.976511 0.110477
vn 0.154869 -0.830162 0.535580
vn 0.131587 -0.712059 0.689679
vn 0.031388 -0.193137 0.980670
vn -0.097840 -0.995062 0.016712
vn -0.652482 0.483671 0.583377
vn -0.390973 -0.879271 0.272071
vn -0.536758 0.680617 0.498650
vn -0.536758 0.680617 0.498649
f 2/4/1 9/18/2 1/2/3
f 1/2/3 9/18/2 3/6/4
f 9/18/2 12/23/5 3/6/4
f 12/23/5 5/9/6 3/6/4
f 1/1/7 3/5/8 17/33/9
f 17/33/9 3/5/8 18/34/10
f 18/34/10 3/5/8 8/15/11
f 3/5/8 4/8/12 8/15/11
f 4/8/12 6/12/13 8/15/11
f 4/7/14 11/22/15 6/11/16
f 11/22/15 10/19/17 6/11/16
f 10/19/17 7/13/18 6/11/16
f 3/6/19 5/10/20 4/8/21
f 5/10/20 13/25/22 4/8/21
f 13/25/22 11/21/23 4/8/21
f 5/9/24 12/24/25 13/26/26
f 10/20/27 14/28/28 7/14/29
f 14/27/30 15/30/31 7/14/32
f 7/14/32 15/30/31 6/11/33
f 15/30/31 8/16/34 6/11/33
f 19/36/35 20/39/36 9/17/37
f 20/39/36 15/30/38 9/17/37
f 9/17/37 15/30/38 12/23/39
f 12/23/39 15/30/38 13/26/40
f 15/30/38 14/28/41 13/26/40
f 14/28/41 10/19/42 13/26/40
f 10/19/42 11/21/43 13/26/40
f 16/32/44 2/3/45 17/33/46
f 17/33/46 2/3/45 1/1/47
f 18/35/48 8/16/49 20/38/50
f 20/38/50 8/16/49 15/29/51
f 16/31/52 19/37/53 2/3/54
f 2/3/54 19/37/53 9/17/55
f 16/32/56 17/33/57 19/37/58
f 18/35/59 20/39/60 17/33/57
f 17/33/57 20/39/60 19/37/58
