# This file uses centimeters as units for non-parametric coordinates.

v -9.500000 -1.238697 9.500000
v -6.668693 -1.482899 9.500000
v -9.500000 2.017415 6.228698
v -9.500000 -1.350519 8.932752
v -6.398984 -1.913457 7.433861
v -6.487773 1.690403 4.596243
v -5.006057 -0.437923 5.629164
v -4.982116 0.994583 4.853926
v -5.829014 1.066100 4.683056
v -5.231547 -0.743916 5.760416
v -2.541688 6.775247 9.500000
v -9.500000 4.872304 9.500000
v -6.200575 1.893781 4.672640
v -9.500000 4.022221 8.212006
v -4.575452 2.238186 5.039565
v -2.637583 4.386149 8.109324
v -5.407007 5.973181 9.500000
v -2.491420 5.006075 9.034668
vt 0.375000 0.108701
vt 0.412254 0.105488
vt 0.331957 0.151545
vt 0.367536 0.107230
vt 0.375000 0.114694
vt 0.397177 0.179402
vt 0.392799 0.175024
vt 0.368938 0.250537
vt 0.368938 0.247512
vt 0.396458 0.238397
vt 0.396458 0.233419
vt 0.394345 0.276246
vt 0.394345 0.274339
vt 0.378555 0.252504
vt 0.378555 0.253038
vt 0.394828 0.227101
vt 0.394335 0.226608
vt 0.466557 0.192366
vt 0.375000 0.189109
vt 0.375360 0.263036
vt 0.375360 0.259718
vt 0.358053 0.177924
vt 0.407919 0.315538
vt 0.407919 0.311777
vt 0.455447 0.242787
vt 0.455447 0.241597
vt 0.456315 0.194225
vt 0.464308 0.212436
vt 0.464308 0.212772
vn 0.000000 0.000000 1.000000
vn 0.000000 0.000000 1.000000
vn 0.000000 0.000000 1.000000
vn 0.000000 0.000000 1.000000
vn 0.000000 0.000000 1.000000
vn -0.084320 -0.977624 0.192718
vn -0.084320 -0.977625 0.192718
vn -0.084321 -0.977624 0.192718
vn -0.084321 -0.977624 0.192718
vn 0.435111 -0.217447 0.873725
vn 0.822472 -0.511645 0.248514
vn 0.581877 -0.320996 0.747249
vn 0.827976 -0.517524 0.215928
vn 0.827976 -0.517524 0.215928
vn 0.827976 -0.517524 0.215928
vn 0.827973 -0.517530 0.215923
vn -0.440419 -0.562076 -0.700073
vn -0.440419 -0.562076 -0.700073
vn -0.440419 -0.562076 -0.700073
vn -0.440419 -0.562076 -0.700073
vn -0.440418 -0.562076 -0.700073
vn -0.440420 -0.562075 -0.700072
vn 0.887523 -0.230685 -0.398858
vn 0.887523 -0.230685 -0.398858
vn 0.887523 -0.230685 -0.398858
vn 0.887523 -0.230685 -0.398859
vn 0.135642 -0.473303 -0.870394
vn 0.135640 -0.473304 -0.870394
vn 0.135641 -0.473303 -0.870394
vn 0.135640 -0.473304 -0.870394
vn -1.000000 0.000000 0.000000
vn -1.000000 0.000000 0.000000
vn -1.000000 0.000000 0.000000
vn -1.000000 0.000000 0.000000
vn -1.000000 0.000000 0.000000
vn 0.203569 0.079104 -0.975860
vn 0.203569 0.079104 -0.975860
vn 0.203569 0.079104 -0.975860
vn 0.203569 0.079105 -0.975860
vn 0.203569 0.079105 -0.975860
vn -0.295159 0.671954 -0.679235
vn -0.295159 0.671953 -0.679235
vn -0.295159 0.671952 -0.679236
vn -0.295159 0.671952 -0.679236
vn -0.070502 0.251864 -0.965191
vn -0.070502 0.251864 -0.965191
vn -0.070502 0.251864 -0.965191
vn -0.219030 0.814342 -0.537470
vn -0.069569 0.779469 -0.622566
vn -0.178925 0.775278 -0.605747
vn -0.114914 0.767972 -0.630090
vn 0.034196 0.769381 -0.637874
vn 0.176420 0.804650 -0.566935
vn 0.135958 0.776453 -0.615334
f 11/18/1 17/27/2 2/2/3
f 17/27/2 12/19/4 2/2/3
f 1/1/5 2/2/3 12/19/4
f 1/1/6 4/5/7 2/2/8
f 2/2/8 4/5/7 5/6/9
f 11/18/10 2/2/11 18/28/12
f 18/28/12 2/2/11 16/26/13
f 2/2/11 5/7/14 16/26/13
f 16/26/13 5/7/14 7/11/15
f 5/7/14 10/17/16 7/11/15
f 4/4/17 3/3/18 5/6/19
f 3/3/18 6/9/20 5/6/19
f 6/9/20 9/15/21 5/6/19
f 9/15/21 10/16/22 5/6/19
f 7/10/23 8/12/24 16/25/25
f 8/12/24 15/23/26 16/25/25
f 8/12/27 7/11/28 9/14/29
f 9/14/29 7/11/28 10/16/30
f 12/19/31 14/22/32 1/1/33
f 1/1/33 14/22/32 4/4/34
f 14/22/32 3/3/35 4/4/34
f 15/24/36 8/13/37 13/21/38
f 8/13/37 9/14/39 13/21/38
f 13/21/38 9/14/39 6/9/40
f 13/20/41 6/8/42 14/22/43
f 14/22/43 6/8/42 3/3/44
f 18/29/45 17/27/46 11/18/47
f 12/19/48 17/27/49 14/22/50
f 14/22/50 17/27/49 13/20/51
f 13/20/51 17/27/49 15/24/52
f 18/28/53 16/25/54 17/27/49
f 17/27/49 16/25/54 15/24/52
