# This file uses centimeters as units for non-parametric coordinates.

v 9.500000 9.500000 -5.473741
v 5.140432 4.360188 3.346071
v 6.010515 5.025754 4.060013
v 9.500000 9.500000 3.306658
v 9.500000 7.196372 3.787394
v 7.273146 5.920967 4.651879
v 5.804227 7.111319 4.798145
v 3.926030 9.500000 4.804305
v 0.652739 9.500000 2.738133
v 3.221256 2.564913 -0.286503
v 9.500000 5.207138 -6.319196
v 9.500000 6.016046 -3.635523
v 1.174203 6.796000 2.304021
v 1.039460 9.500000 -1.522953
v 1.997317 8.851031 3.555970
v 6.304520 9.500000 -0.123071
v 8.098392 9.233622 -5.481339
v 0.968489 4.000427 -0.823669
vt 0.625000 0.447023
vt 0.822023 0.250000
vt 0.613809 0.193330
vt 0.615172 0.194693
vt 0.623900 0.200991
vt 0.625000 0.331491
vt 0.706491 0.250000
vt 0.700166 0.219689
vt 0.642410 0.209202
vt 0.600296 0.247488
vt 0.551658 0.311785
vt 0.532983 0.321331
vt 0.597695 0.180815
vt 0.603706 0.186826
vt 0.814115 0.229192
vt 0.797836 0.204158
vt 0.492224 0.222953
vt 0.491958 0.222687
vt 0.530744 0.324635
vt 0.530949 0.324430
vt 0.517342 0.295505
vt 0.784155 0.274045
vt 0.610014 0.448187
vt 0.774090 0.276086
vt 0.526565 0.197276
vt 0.529550 0.200261
vn 0.000000 1.000000 0.000000
vn 0.000000 1.000000 0.000000
vn 0.000000 1.000000 0.000000
vn 0.000000 1.000000 0.000000
vn 0.000000 1.000000 0.000000
vn 0.000000 1.000000 0.000000
vn -0.031390 0.193137 -0.980669
vn -0.154870 0.830162 -0.535580
vn -0.131589 0.712059 -0.689679
vn -0.184988 0.976511 -0.110477
vn -0.530686 -0.614292 0.583967
vn -0.530686 -0.614292 0.583967
vn -0.530686 -0.614292 0.583967
vn -0.530686 -0.614292 0.583967
vn -0.533345 -0.040218 0.844941
vn -0.449485 -0.289624 0.845033
vn -0.432451 -0.329334 0.839360
vn -0.428205 -0.338854 0.837746
vn -0.428205 -0.338854 0.837747
vn -0.428204 -0.338854 0.837747
vn -0.428205 -0.338853 0.837746
vn 1.000000 0.000000 0.000000
vn 1.000000 0.000000 0.000000
vn 1.000000 0.000000 0.000000
vn 1.000000 0.000000 0.000000
vn 1.000000 0.000000 0.000000
vn 0.530971 -0.836876 0.133073
vn 0.530971 -0.836876 0.133073
vn 0.530971 -0.836876 0.133073
vn 0.530971 -0.836876 0.133073
vn 0.530971 -0.836876 0.133073
vn 0.530972 -0.836876 0.133073
vn -0.187273 -0.344151 0.920048
vn -0.187273 -0.344151 0.920048
vn -0.187273 -0.344151 0.920048
vn 0.254368 0.197566 0.946712
vn 0.254368 0.197566 0.946712
vn 0.254368 0.197566 0.946712
vn 0.254368 0.197566 0.946712
vn 0.254368 0.197566 0.946712
vn -0.415662 -0.908737 -0.037724
vn -0.415662 -0.908737 -0.037724
vn -0.415662 -0.908737 -0.037724
vn -0.145920 -0.539336 -0.829352
vn -0.323898 -0.572979 -0.752852
vn -0.145920 -0.539336 -0.829352
vn -0.932317 -0.346255 0.104367
vn -0.359292 -0.577192 -0.733320
vn -0.676094 0.689188 -0.260608
vn -0.679180 0.344851 -0.647914
vn -0.561319 0.615154 -0.553630
vn -0.219666 -0.091604 -0.971265
vn -0.986466 0.115522 0.116356
vn -0.945030 0.250445 0.210229
f 1/1/1 16/23/2 4/6/3
f 4/6/3 16/23/2 8/11/4
f 16/23/2 14/19/5 8/11/4
f 14/19/5 9/12/6 8/11/4
f 11/15/7 17/24/8 1/2/9
f 1/2/9 17/24/8 16/22/10
f 2/3/11 13/18/12 10/13/13
f 10/13/13 13/18/12 18/25/14
f 9/12/15 15/21/16 8/11/17
f 13/17/18 2/4/19 15/21/16
f 15/21/16 2/4/19 8/11/17
f 2/4/19 3/5/20 8/11/17
f 3/5/20 7/10/21 8/11/17
f 11/15/22 1/2/23 12/16/24
f 1/2/23 4/7/25 12/16/24
f 4/7/25 5/8/26 12/16/24
f 12/16/27 5/8/28 10/14/29
f 10/14/29 5/8/28 2/4/30
f 2/4/30 5/8/28 3/5/31
f 5/8/28 6/9/32 3/5/31
f 6/9/33 7/10/34 3/5/35
f 8/11/36 7/10/37 4/6/38
f 4/6/38 7/10/37 5/8/39
f 7/10/37 6/9/40 5/8/39
f 9/12/41 14/20/42 15/21/43
f 18/26/44 17/24/45 10/13/46
f 11/15/47 12/16/48 17/24/45
f 17/24/45 12/16/48 10/13/46
f 17/24/49 18/25/50 16/22/51
f 16/22/51 18/25/50 14/19/52
f 18/25/50 13/17/53 14/19/52
f 14/19/52 13/17/53 15/21/54
