# This file uses centimeters as units for non-parametric coordinates.

v -9.500000 0.124698 -9.500000
v -9.500000 0.377363 -3.348950
v 1.207690 -0.403035 -9.500000
v -3.624885 -0.508599 -9.500000
v -2.391364 -3.904233 -7.268469
v 1.292836 -0.221658 -7.290942
v -9.500000 -3.670561 -9.500000
v -5.439036 -4.058387 -9.500000
v -9.500000 -2.031066 -1.887872
v -6.058793 2.556726 -9.500000
v 2.696215 3.040818 -9.500000
v -6.278549 2.570209 -5.390766
v -4.686071 -2.623611 -2.591657
v -2.627594 -3.972443 -7.047977
v -9.500000 -4.024554 -6.394176
v -5.231596 -4.282565 -7.706952
v -8.687859 -2.514091 -1.774222
v -9.500000 -5.696852 -3.318447
v 0.743075 0.470469 -5.667822
v 1.277438 -0.148586 -7.175445
v 0.635464 0.896854 -5.902721
v 0.958754 0.832597 -7.368608
vt 0.125000 0.126641
vt 0.375000 0.623359
vt 0.205935 0.129965
vt 0.288583 0.453473
vt 0.515891 0.630303
vt 0.510890 0.620367
vt 0.475021 0.671166
vt 0.466531 0.571879
vt 0.537684 0.493757
vt 0.539957 0.496029
vt 0.125000 0.076703
vt 0.375000 0.673297
vt 0.428434 0.678400
vt 0.225160 0.098275
vt 0.329627 0.507191
vt 0.258927 0.270772
vt 0.420279 0.591359
vt 0.510576 0.613278
vt 0.501186 0.594622
vt 0.359656 0.479909
vt 0.460981 0.368480
vt 0.460834 0.368929
vt 0.463225 0.562452
vt 0.303001 0.399301
vt 0.165866 0.072045
vt 0.429553 0.597389
vt 0.358320 0.485594
vt 0.317997 0.327760
vt 0.224138 0.090707
vt 0.267196 0.259250
vt 0.543551 0.395127
vt 0.543542 0.395155
vt 0.538608 0.485872
vt 0.541000 0.488263
vt 0.536638 0.404253
vt 0.540080 0.407694
vt 0.531105 0.480214
vt 0.534882 0.487718
vn 0.000000 0.000000 -1.000000
vn 0.000000 0.000000 -1.000000
vn 0.000000 0.000000 -1.000000
vn -0.000000 0.000000 -1.000000
vn -0.000000 0.000000 -1.000000
vn -0.000000 0.000000 -1.000000
vn 0.000000 0.000000 -1.000000
vn -0.576824 0.816180 -0.033526
vn -0.576824 0.816180 -0.033526
vn -0.576824 0.816180 -0.033526
vn -0.576824 0.816180 -0.033526
vn 0.394860 -0.400082 -0.827055
vn 0.368627 -0.550373 -0.749135
vn 0.292548 -0.782521 -0.549615
vn 0.021767 -0.996478 0.080978
vn -1.000000 0.000000 0.000000
vn -1.000000 0.000000 0.000000
vn -1.000000 0.000000 0.000000
vn -1.000000 0.000000 0.000000
vn -1.000000 0.000000 0.000000
vn -1.000000 0.000000 0.000000
vn -0.094462 -0.989124 -0.112738
vn -0.094462 -0.989124 -0.112738
vn -0.094462 -0.989124 -0.112738
vn -0.094462 -0.989124 -0.112738
vn -0.039245 0.709758 0.703351
vn 0.187960 0.968314 0.164437
vn 0.070769 0.876559 0.476063
vn 0.235881 0.971736 0.009426
vn 0.235881 0.971736 0.009426
vn 0.185559 0.509663 0.840126
vn 0.185559 0.509664 0.840126
vn 0.185559 0.509664 0.840126
vn 0.185559 0.509663 0.840126
vn 0.185559 0.509664 0.840126
vn 0.185559 0.509663 0.840126
vn 0.185559 0.509663 0.840126
vn 0.623268 -0.620640 0.475756
vn 0.623268 -0.620640 0.475756
vn 0.623268 -0.620640 0.475756
vn 0.623267 -0.620640 0.475757
vn 0.623270 -0.620638 0.475755
vn 0.623268 -0.620639 0.475756
vn 0.879282 -0.449365 -0.157907
vn 0.425256 -0.529714 -0.733867
vn 0.504085 -0.538532 -0.675190
vn 0.197399 -0.515541 -0.833817
vn 0.151932 -0.978439 -0.139905
vn -0.327475 -0.343502 0.880208
vn -0.327475 -0.343502 0.880208
vn -0.327475 -0.343502 0.880208
vn 0.036213 -0.951729 0.304796
vn 0.218929 -0.931097 0.291769
vn 0.036213 -0.951729 0.304796
vn 0.312171 -0.948931 -0.045593
vn 0.542426 -0.838863 -0.045638
vn 0.165039 -0.464303 0.870164
vn 0.952787 0.297420 -0.061144
vn 0.952786 0.297422 -0.061144
vn 0.932397 -0.254628 0.256515
vn 0.904972 -0.313627 0.287515
vn 0.869802 -0.375951 0.319539
vn 0.922489 0.336766 0.188686
vn 0.922489 0.336766 0.188686
vn 0.922489 0.336766 0.188686
vn 0.922489 0.336766 0.188686
f 11/18/1 3/5/2 10/17/3
f 3/5/2 4/7/4 10/17/3
f 10/17/3 4/7/4 1/2/5
f 4/7/4 8/13/6 1/2/5
f 1/2/5 8/13/6 7/12/7
f 2/4/8 12/20/9 1/1/10
f 1/1/10 12/20/9 10/16/11
f 5/8/12 4/7/13 6/9/14
f 6/9/14 4/7/13 3/6/15
f 18/29/16 9/14/17 15/25/18
f 9/14/17 2/3/19 15/25/18
f 2/3/19 1/1/20 15/25/18
f 7/11/21 15/25/18 1/1/20
f 8/13/22 16/26/23 7/12/24
f 7/12/24 16/26/23 15/24/25
f 11/18/26 10/16/27 22/38/28
f 10/16/27 12/20/29 22/38/28
f 12/20/29 21/36/30 22/38/28
f 21/35/31 12/20/32 19/32/33
f 19/32/33 12/20/32 13/22/34
f 12/20/32 2/4/35 13/22/34
f 9/15/36 17/27/37 2/4/35
f 17/27/37 13/22/34 2/4/35
f 13/21/38 14/23/39 19/31/40
f 14/23/39 5/8/41 19/31/40
f 6/9/42 20/33/43 5/8/41
f 5/8/41 20/33/43 19/31/40
f 8/13/44 4/7/45 16/26/46
f 4/7/45 5/8/47 16/26/46
f 14/23/48 16/26/46 5/8/47
f 18/30/49 17/28/50 9/14/51
f 14/23/52 13/22/53 16/26/54
f 16/26/54 13/22/53 15/24/55
f 15/24/55 13/22/53 18/29/56
f 17/28/57 18/29/56 13/22/53
f 20/34/58 6/10/59 22/37/60
f 6/10/59 3/6/61 22/37/60
f 22/37/60 3/6/61 11/19/62
f 21/35/63 19/31/64 22/38/65
f 22/38/65 19/31/64 20/34/66
