# This file uses centimeters as units for non-parametric coordinates.

v -1.461612 -3.276020 0.786718
v -1.554964 -0.936720 -0.735403
v -1.676075 -0.940529 -0.813532
v -1.494204 -3.298734 0.897869
v -3.750432 0.690069 4.335431
v -4.982116 0.994584 4.853923
v -3.616307 -0.644890 4.971454
v -5.006057 -0.437924 5.629164
v -4.835136 -1.004201 5.835961
v -7.759673 0.112436 0.021773
v -5.645811 -4.034317 4.225012
v -5.231546 -0.743915 5.760416
v -5.829015 1.066102 4.683055
v -5.120729 -1.219284 5.936020
v -4.880766 -2.827397 -1.766115
v -4.893788 -2.748016 -1.824316
v -8.108734 -2.971655 -1.326008
v -8.261023 -2.570693 -1.611093
vt 0.480768 0.325389
vt 0.478078 0.319621
vt 0.477629 0.376127
vt 0.477558 0.375976
vt 0.475043 0.376348
vt 0.480339 0.321984
vt 0.477684 0.316290
vt 0.449767 0.258554
vt 0.449776 0.258572
vt 0.422855 0.227842
vt 0.451462 0.228704
vt 0.426067 0.198528
vt 0.425748 0.197845
vt 0.428637 0.187676
vt 0.302725 0.185141
vt 0.312737 0.195153
vt 0.425706 0.220146
vt 0.425713 0.220162
vt 0.421367 0.188561
vt 0.420973 0.187716
vt 0.401784 0.214696
vt 0.422748 0.178707
vt 0.435779 0.404234
vt 0.407505 0.343614
vt 0.407188 0.345360
vt 0.393306 0.390931
vt 0.393306 0.390930
vt 0.382476 0.383708
vt 0.277507 0.158657
vn 0.916074 0.243748 0.318426
vn 0.916074 0.243748 0.318426
vn 0.916074 0.243748 0.318426
vn 0.916074 0.243747 0.318426
vn 0.916074 0.243748 0.318426
vn 0.491194 -0.461203 -0.738932
vn 0.491193 -0.461203 -0.738932
vn 0.491193 -0.461203 -0.738932
vn 0.491194 -0.461202 -0.738933
vn 0.491193 -0.461203 -0.738932
vn 0.017189 -0.980584 -0.195345
vn 0.017189 -0.980584 -0.195345
vn 0.017189 -0.980584 -0.195345
vn 0.017189 -0.980584 -0.195346
vn 0.017189 -0.980584 -0.195345
vn 0.594940 -0.495594 0.632797
vn 0.594940 -0.495594 0.632797
vn 0.594940 -0.495594 0.632797
vn 0.594941 -0.495594 0.632798
vn 0.594940 -0.495594 0.632797
vn 0.057205 0.357658 0.932099
vn 0.057206 0.357658 0.932099
vn 0.057207 0.357658 0.932099
vn 0.057207 0.357658 0.932099
vn 0.438392 0.422098 0.793502
vn 0.438391 0.422098 0.793502
vn 0.438392 0.422098 0.793502
vn 0.438391 0.422099 0.793502
vn 0.438392 0.422099 0.793502
vn -0.135637 0.473305 0.870394
vn -0.135638 0.473304 0.870394
vn -0.135640 0.473304 0.870394
vn -0.135640 0.473304 0.870394
vn 0.131575 0.959077 -0.250718
vn 0.131575 0.959077 -0.250718
vn 0.131575 0.959077 -0.250717
vn 0.131575 0.959077 -0.250718
vn 0.131575 0.959077 -0.250717
vn 0.131575 0.959077 -0.250718
vn -0.916715 -0.068281 0.393665
vn -0.916715 -0.068281 0.393664
vn -0.916715 -0.068281 0.393664
vn -0.916715 -0.068281 0.393664
vn -0.916715 -0.068281 0.393664
vn -0.916715 -0.068281 0.393664
vn -0.916715 -0.068281 0.393664
vn -0.026379 0.523279 -0.851753
vn -0.026379 0.523279 -0.851753
vn -0.026379 0.523279 -0.851753
vn -0.026379 0.523279 -0.851753
vn -0.081978 -0.598010 -0.797285
vn -0.081979 -0.598009 -0.797286
vn -0.081978 -0.598009 -0.797286
vn -0.081979 -0.598009 -0.797286
f 2/4/1 5/8/2 1/2/3
f 1/2/3 5/8/2 4/7/4
f 5/8/2 7/11/5 4/7/4
f 16/25/6 3/5/7 15/24/8
f 2/3/9 1/1/10 3/5/7
f 1/1/10 15/24/8 3/5/7
f 11/18/11 17/26/12 4/6/13
f 4/6/13 17/26/12 1/1/14
f 17/26/12 15/23/15 1/1/14
f 11/17/16 4/7/17 14/22/18
f 14/22/18 4/7/17 9/14/19
f 4/7/17 7/11/20 9/14/19
f 8/13/21 12/20/22 9/14/23
f 9/14/23 12/20/22 14/22/24
f 9/14/25 7/11/26 8/13/27
f 8/13/27 7/11/26 6/10/28
f 7/11/26 5/9/29 6/10/28
f 12/19/30 8/12/31 13/21/32
f 13/21/32 8/12/31 6/10/33
f 10/15/34 13/21/35 3/5/36
f 13/21/35 6/10/37 3/5/36
f 3/5/36 6/10/37 2/3/38
f 6/10/37 5/9/39 2/3/38
f 18/28/40 17/27/41 10/16/42
f 17/27/41 11/17/43 10/16/42
f 11/17/43 14/22/44 10/16/42
f 14/22/44 12/19/45 10/16/42
f 13/21/46 10/16/42 12/19/45
f 18/29/47 10/16/48 16/25/49
f 16/25/49 10/16/48 3/5/50
f 15/23/51 17/27/52 16/25/53
f 16/25/53 17/27/52 18/29/54
