# This file uses centimeters as units for non-parametric coordinates.

v -9.500000 9.500000 9.500000
v -9.500000 9.500000 6.842505
v -2.541692 6.775247 9.500000
v 2.183297 9.500000 9.500000
v 0.652737 9.500000 2.738128
v -0.428837 5.914881 3.228120
v 0.425358 4.019567 9.500000
v -1.499840 5.067576 9.350483
v -5.878714 9.500001 2.133090
v -5.895323 9.500000 -0.185281
v -4.975242 9.054026 1.592604
v 1.039463 9.500000 -1.522951
v 0.090716 6.687354 2.115734
v 0.437468 6.893210 2.366621
v 1.997327 8.851045 3.555977
v -2.505729 9.500000 3.775570
v -0.361864 6.895242 1.816334
v -9.500000 8.139212 9.500000
v -9.500000 8.477663 8.296928
v -5.407006 5.973180 9.500000
v -0.640751 5.684258 3.560224
v -2.491425 5.006076 9.034671
v -2.095506 4.917416 8.694390
v -1.411309 5.019713 7.198090
v -1.518195 6.371222 2.570892
v -3.978585 7.558304 2.424352
vt 0.375000 0.250000
vt 0.340033 0.250000
vt 0.375000 0.284967
vt 0.466557 0.192366
vt 0.528728 0.250000
vt 0.532983 0.321331
vt 0.494357 0.317603
vt 0.480542 0.192152
vt 0.480265 0.194415
vt 0.422648 0.346933
vt 0.440957 0.360486
vt 0.434536 0.350292
vt 0.530744 0.324635
vt 0.501194 0.348124
vt 0.505756 0.346241
vt 0.526281 0.329972
vt 0.467030 0.368507
vt 0.495239 0.350876
vt 0.375000 0.232095
vt 0.375000 0.252378
vt 0.359170 0.236548
vt 0.456315 0.194225
vt 0.491569 0.308491
vt 0.467218 0.199385
vt 0.472428 0.204446
vt 0.481430 0.233174
vt 0.480024 0.326250
vt 0.447650 0.326760
vn 0.000000 1.000000 0.000000
vn 0.000000 1.000000 0.000000
vn 0.000000 1.000000 0.000000
vn 0.000001 1.000000 0.000000
vn 0.000000 1.000000 0.000000
vn 0.000000 1.000000 0.000000
vn 0.000000 1.000000 0.000000
vn 0.000000 1.000000 0.000000
vn -1.000000 0.000000 0.000000
vn -1.000000 0.000000 0.000000
vn -1.000000 0.000000 0.000000
vn -1.000000 0.000000 0.000000
vn -0.598902 -0.655161 -0.460523
vn -0.598902 -0.655161 -0.460523
vn -0.598902 -0.655161 -0.460523
vn -0.598902 -0.655161 -0.460523
vn -0.598902 -0.655161 -0.460523
vn 0.930836 -0.298581 -0.210696
vn 0.609032 -0.626071 -0.486945
vn 0.899041 -0.434294 -0.055803
vn -0.133207 -0.802643 -0.581395
vn 0.931292 -0.357014 0.072356
vn 0.945221 -0.286850 0.155804
vn 0.845156 -0.186507 0.500926
vn 0.518560 -0.162460 0.839465
vn -0.544125 -0.074169 0.835720
vn 0.530688 -0.715624 -0.454150
vn 0.285955 0.234790 -0.929033
vn 0.630725 -0.469974 -0.617503
vn 0.454888 0.249798 -0.854797
vn -0.237843 0.282719 -0.929247
vn -0.581527 0.125912 -0.803724
vn -0.441110 -0.897447 0.003160
vn -0.441110 -0.897447 0.003160
vn -0.441110 -0.897447 0.003160
vn 0.415651 0.908742 0.037723
vn 0.415651 0.908742 0.037723
vn 0.415651 0.908742 0.037723
vn 0.000033 -0.821384 -0.570376
vn 0.000033 -0.821384 -0.570376
vn 0.000033 -0.821384 -0.570376
vn 0.000033 -0.821384 -0.570376
vn 0.000033 -0.821383 -0.570377
vn 0.616071 -0.751988 -0.234458
vn 0.616071 -0.751988 -0.234458
vn 0.616071 -0.751988 -0.234458
vn -0.803234 -0.256861 -0.537437
vn -0.259116 -0.643810 -0.719977
vn -0.733476 -0.351348 -0.581866
vn 0.823852 -0.521516 -0.222011
vn 0.802109 -0.546032 -0.241807
vn 0.409830 -0.770290 -0.488563
vn 0.000000 0.000000 1.000000
vn 0.000000 0.000000 1.000000
vn 0.000000 0.000000 1.000000
vn 0.000000 0.000000 1.000000
vn 0.000000 0.000000 1.000000
vn 0.000000 0.000000 1.000000
vn 0.070502 -0.251862 0.965192
vn 0.070502 -0.251862 0.965192
vn 0.070502 -0.251862 0.965192
vn -0.180896 -0.194771 0.964023
vn -0.315409 -0.343030 0.884787
vn -0.323087 -0.276364 0.905118
vn -0.327707 -0.441015 0.835532
vn 0.616710 -0.183802 0.765432
vn 0.212647 -0.976654 0.030464
vn 0.212647 -0.976654 0.030464
vn 0.212647 -0.976654 0.030464
vn -0.453923 -0.857745 -0.241303
vn -0.441956 -0.854057 -0.274339
vn -0.405216 -0.871479 -0.276268
vn -0.410783 -0.872214 -0.265517
vn -0.357133 -0.895548 -0.265423
vn -0.409088 -0.878398 -0.247112
vn -0.409090 -0.878397 -0.247113
vn -0.409087 -0.878398 -0.247112
vn -0.409088 -0.878398 -0.247112
f 12/13/1 16/17/2 5/6/3
f 10/11/4 9/10/5 16/17/2
f 4/5/6 5/6/3 1/1/7
f 5/6/3 16/17/2 1/1/7
f 1/1/7 16/17/2 2/3/8
f 16/17/2 9/10/5 2/3/8
f 2/2/9 19/21/10 1/1/11
f 1/1/11 19/21/10 18/19/12
f 19/20/13 2/3/14 26/28/15
f 11/12/16 26/28/15 9/10/17
f 2/3/14 9/10/17 26/28/15
f 4/5/18 7/8/19 5/6/20
f 7/8/19 8/9/21 5/6/20
f 8/9/21 24/26/22 5/6/20
f 24/26/22 21/23/23 5/6/20
f 21/23/23 6/7/24 5/6/20
f 6/7/24 14/15/25 5/6/20
f 5/6/20 14/15/25 15/16/26
f 10/11/27 16/17/28 11/12/29
f 11/12/29 16/17/28 26/28/30
f 26/28/30 16/17/28 25/27/31
f 16/17/28 17/18/32 25/27/31
f 9/10/33 10/11/34 11/12/35
f 15/16/36 12/13/37 5/6/38
f 21/23/39 25/27/40 6/7/41
f 6/7/41 25/27/40 13/14/42
f 17/18/43 13/14/42 25/27/40
f 13/14/44 14/15/45 6/7/46
f 16/17/47 12/13/48 17/18/49
f 15/16/50 14/15/51 12/13/48
f 14/15/51 13/14/52 12/13/48
f 12/13/48 13/14/52 17/18/49
f 7/8/53 4/5/54 3/4/55
f 4/5/54 1/1/56 3/4/55
f 3/4/55 1/1/56 20/22/57
f 18/19/58 20/22/57 1/1/56
f 20/22/59 22/24/60 3/4/61
f 7/8/62 3/4/63 8/9/64
f 8/9/64 3/4/63 23/25/65
f 22/24/66 23/25/65 3/4/63
f 23/25/67 24/26/68 8/9/69
f 18/19/70 19/20/71 20/22/72
f 19/20/71 26/28/73 20/22/72
f 20/22/72 26/28/73 22/24/74
f 26/28/73 25/27/75 22/24/74
f 22/24/74 25/27/75 23/25/76
f 23/25/76 25/27/75 24/26/77
f 25/27/75 21/23/78 24/26/77
