# This file uses centimeters as units for non-parametric coordinates.

v -9.500000 -9.500000 9.500000
v -9.500000 -9.500000 1.411147
v -5.101463 -9.500000 9.500000
v -9.500000 -4.863869 9.500000
v -9.500000 -8.781777 1.669640
v -7.447016 -9.500000 3.077182
v -3.935867 -9.500000 7.606896
v -9.500000 -7.933188 7.036047
vt 0.375000 0.000000
vt 0.375000 1.000000
vt 0.268568 0.000000
vt 0.375000 0.893568
vt 0.432876 0.000000
vt 0.432876 1.000000
vt 0.375000 0.061002
vt 0.271969 0.009450
vt 0.318931 0.217960
vt 0.402013 0.915489
vt 0.448212 0.975091
vt 0.426037 0.788913
vt 0.368421 0.065271
vn 0.000000 0.000000 1.000000
vn 0.000000 0.000000 1.000000
vn 0.000000 0.000000 1.000000
vn 0.000000 -1.000000 0.000000
vn 0.000000 -1.000000 0.000000
vn 0.000000 -1.000000 0.000000
vn 0.000000 -1.000000 0.000000
vn 0.000000 -1.000000 0.000000
vn 0.606880 0.269150 -0.747833
vn 0.606880 0.269150 -0.747833
vn 0.606880 0.269150 -0.747833
vn -1.000000 0.000000 0.000000
vn -1.000000 0.000000 0.000000
vn -1.000000 0.000000 0.000000
vn -1.000000 0.000000 0.000000
vn -1.000000 0.000000 0.000000
vn 0.550741 0.522516 -0.650893
vn 0.429941 0.878338 -0.208982
vn 0.541354 0.610349 -0.578282
vn 0.252909 0.954876 0.155718
vn 0.285294 0.932579 -0.221142
vn 0.337329 0.922018 -0.189978
vn 0.308368 0.928359 -0.207507
vn 0.412360 0.899840 -0.142292
f 1/1/1 3/5/2 4/7/3
f 2/4/4 6/10/5 1/2/6
f 1/2/6 6/10/5 3/6/7
f 6/10/5 7/11/8 3/6/7
f 2/3/9 5/8/10 6/9/11
f 4/7/12 8/13/13 1/1/14
f 2/3/15 1/1/14 5/8/16
f 8/13/13 5/8/16 1/1/14
f 4/7/17 3/6/18 8/13/19
f 8/13/19 3/6/18 7/12/20
f 7/11/21 6/9/22 8/13/23
f 8/13/23 6/9/22 5/8/24
