# This file uses centimeters as units for non-parametric coordinates.

v 2.323265 -3.983577 9.500000
v 0.228136 0.230326 5.874670
v -1.116054 3.260754 4.081804
v -1.002267 -1.670228 6.302978
v -0.930067 -2.024848 9.500000
v -0.925868 -3.480628 9.500000
v -3.535527 -3.950701 9.500000
v -2.174882 -2.981031 8.846614
v 1.393822 -0.776520 8.177488
v 1.392540 -0.855716 9.500000
v 1.151881 -0.232243 7.376034
v -1.057849 4.471180 4.382454
v -2.502049 3.318295 9.500000
v -4.982116 0.994584 4.853923
v -3.750432 0.690069 4.335432
v -3.616309 -0.644890 4.971454
v -4.835135 -1.004201 5.835961
v -5.006057 -0.437926 5.629164
v -1.499840 5.067576 9.350483
v -4.575452 2.238185 5.039563
v -2.637583 4.386150 8.109325
v -1.091024 4.537199 4.411768
v -2.095504 4.917417 8.694391
v -1.411309 5.019713 7.198095
vt 0.506198 0.082372
vt 0.506198 0.713019
vt 0.506258 0.563594
vt 0.506258 0.631711
vt 0.486079 0.497150
vt 0.486079 0.542681
vt 0.488819 0.427225
vt 0.488819 0.706479
vt 0.502240 0.077687
vt 0.502240 0.729341
vt 0.487818 0.079202
vt 0.479109 0.084834
vt 0.471383 0.094600
vt 0.518340 0.640896
vt 0.521936 0.637300
vt 0.518323 0.113741
vt 0.518323 0.626373
vt 0.519024 0.608214
vt 0.519024 0.627898
vt 0.486446 0.486641
vt 0.486446 0.458533
vt 0.481942 0.188129
vt 0.411949 0.217954
vt 0.427385 0.233391
vt 0.427063 0.322317
vt 0.443073 0.338328
vt 0.430123 0.378389
vt 0.430123 0.297203
vt 0.429286 0.174114
vt 0.421932 0.180799
vt 0.426487 0.185354
vt 0.479970 0.194232
vt 0.412394 0.235543
vt 0.436508 0.259658
vt 0.460912 0.204830
vt 0.462549 0.206466
vt 0.485978 0.480558
vt 0.485978 0.481469
vt 0.470837 0.203463
vt 0.481327 0.309308
vt 0.481327 0.306238
vn 0.860014 0.083672 -0.503363
vn 0.860014 0.083672 -0.503363
vn 0.860014 0.083672 -0.503363
vn 0.860014 0.083672 -0.503363
vn -0.324814 0.242667 -0.914116
vn -0.324811 0.242670 -0.914116
vn -0.324811 0.242670 -0.914116
vn -0.324811 0.242670 -0.914117
vn -0.324810 0.242671 -0.914117
vn -0.324811 0.242670 -0.914117
vn -0.259815 -0.431537 -0.863871
vn 0.057431 -0.774418 -0.630062
vn 0.125220 -0.748562 -0.651133
vn 0.511498 -0.817741 -0.263949
vn 0.634994 -0.536378 -0.555951
vn 0.634993 -0.536378 -0.555951
vn 0.293471 -0.386986 -0.874138
vn 0.293471 -0.386985 -0.874138
vn 0.293471 -0.386985 -0.874138
vn 0.293471 -0.386985 -0.874138
vn 0.293471 -0.386985 -0.874138
vn 0.463948 0.001338 -0.885862
vn 0.230788 -0.861774 -0.451754
vn 0.677651 -0.658474 -0.327416
vn 0.007825 -0.890348 -0.455213
vn -0.091150 -0.867478 -0.489054
vn -0.091150 -0.867478 -0.489055
vn 0.119760 -0.664861 -0.737304
vn 0.119760 -0.664861 -0.737304
vn 0.119760 -0.664861 -0.737304
vn -0.470228 0.066855 -0.880009
vn -0.890948 0.087304 0.445635
vn -0.998480 -0.053309 0.013994
vn -0.783818 -0.096879 0.613387
vn -0.865648 0.065582 0.496340
vn -0.709318 0.452578 0.540408
vn -0.763639 0.434656 0.477420
vn -0.897415 0.303325 0.320375
vn 0.958312 0.285155 0.018004
vn 0.958312 0.285155 0.018004
vn 0.958312 0.285155 0.018004
vn -0.000000 0.000000 1.000000
vn 0.000000 0.000000 1.000000
vn -0.000001 0.000000 1.000000
vn 0.000000 0.000000 1.000000
vn -0.000000 0.000000 1.000000
vn 0.000000 0.000000 1.000000
vn 0.730525 0.681622 0.041525
vn 0.737278 0.667221 0.106007
vn 0.784147 0.316725 0.533665
vn 0.809404 0.505230 0.299345
vn 0.868453 -0.493568 0.046696
vn 0.877971 0.371212 0.302274
vn 0.897989 0.439179 0.027169
vn 0.897988 0.439180 0.027171
vn -0.438392 -0.422098 -0.793502
vn -0.438391 -0.422098 -0.793502
vn -0.438391 -0.422098 -0.793502
vn -0.438391 -0.422098 -0.793503
vn -0.438391 -0.422098 -0.793503
vn -0.887523 0.230685 0.398858
vn -0.887523 0.230685 0.398858
vn -0.887523 0.230685 0.398858
vn -0.887523 0.230685 0.398858
vn -0.212646 0.976654 -0.030465
vn -0.212646 0.976654 -0.030465
vn -0.212646 0.976654 -0.030465
vn -0.564480 0.799988 -0.203422
vn -0.564480 0.799988 -0.203422
vn -0.564480 0.799988 -0.203422
vn -0.564480 0.799989 -0.203422
vn -0.564480 0.799989 -0.203422
f 3/5/1 12/21/2 2/3/3
f 2/3/3 12/21/2 11/18/4
f 22/37/5 12/20/6 20/34/7
f 12/20/6 3/6/8 20/34/7
f 14/24/9 20/34/7 15/26/10
f 3/6/8 15/26/10 20/34/7
f 1/2/11 5/10/12 9/15/13
f 5/10/12 4/8/14 9/15/13
f 9/15/13 4/8/14 11/19/15
f 4/8/14 2/4/16 11/19/15
f 3/6/17 2/4/18 15/25/19
f 15/25/19 2/4/18 16/28/20
f 4/7/21 16/28/20 2/4/18
f 6/11/22 8/13/23 5/9/24
f 5/9/24 8/13/23 4/8/25
f 8/13/23 17/29/26 4/8/25
f 17/29/26 16/27/27 4/8/25
f 7/12/28 8/13/29 6/11/30
f 7/12/31 13/22/32 8/13/33
f 8/13/33 13/22/32 17/29/34
f 17/29/34 13/22/32 18/31/35
f 19/32/36 23/39/37 13/22/32
f 23/39/37 21/36/38 13/22/32
f 13/22/32 21/36/38 18/31/35
f 9/14/39 10/17/40 1/2/41
f 1/1/42 10/16/43 5/9/44
f 7/12/45 6/11/46 13/22/47
f 6/11/46 5/9/44 13/22/47
f 10/16/43 13/22/47 5/9/44
f 10/17/48 9/15/49 13/22/50
f 9/15/49 11/18/51 13/22/50
f 19/32/52 13/22/50 24/40/53
f 13/22/50 11/18/51 24/40/53
f 11/18/51 12/20/54 24/40/53
f 12/20/54 22/38/55 24/40/53
f 17/29/56 18/30/57 16/27/58
f 18/30/57 14/24/59 16/27/58
f 14/24/59 15/25/60 16/27/58
f 18/30/61 21/35/62 14/23/63
f 21/35/62 20/33/64 14/23/63
f 24/41/65 23/39/66 19/32/67
f 20/33/68 21/36/69 22/37/70
f 22/37/70 21/36/69 24/40/71
f 21/36/69 23/39/72 24/40/71
