# This file uses centimeters as units for non-parametric coordinates.

v 9.500000 -5.215472 -1.407548
v 9.500000 -0.430320 -5.832797
v 4.265194 -3.062046 -2.423113
v 9.500000 -1.858458 1.406572
v 9.500000 1.528623 -2.101421
v 3.819659 -1.999764 -1.772696
v 9.500000 1.277004 -4.339327
v 6.956476 -0.718896 -5.091750
v 4.055428 -1.737643 -3.608799
v 9.500000 1.720857 -3.513121
v 7.900927 1.173326 -2.669635
v 3.739449 -1.340839 -2.502103
vt 0.768520 0.056375
vt 0.757466 0.074726
vt 0.740592 0.333571
vt 0.826747 0.119338
vt 0.590219 0.418369
vt 0.590456 0.383085
vt 0.731493 0.100547
vt 0.711777 0.133276
vt 0.681165 0.312327
vt 0.777650 0.145113
vt 0.567662 0.504580
vt 0.568179 0.427742
vt 0.787667 0.190116
vt 0.807096 0.141803
vt 0.707247 0.304209
vt 0.660563 0.420294
vt 0.574122 0.489613
vt 0.574136 0.487503
vt 0.670448 0.365620
vt 0.796225 0.147643
vt 0.645736 0.371954
vt 0.671385 0.327504
vt 0.566787 0.456880
vt 0.566485 0.501754
vn 1.000000 0.000000 0.000000
vn 1.000000 0.000000 0.000000
vn 1.000000 0.000000 0.000000
vn 1.000000 0.000000 0.000000
vn 1.000000 0.000000 0.000000
vn 1.000000 0.000000 0.000000
vn -0.282051 0.631664 -0.722114
vn -0.282051 0.631664 -0.722113
vn -0.282051 0.631664 -0.722114
vn -0.135604 -0.672686 -0.727396
vn -0.135604 -0.672686 -0.727396
vn -0.135604 -0.672686 -0.727396
vn -0.135605 -0.672686 -0.727396
vn -0.135605 -0.672687 -0.727396
vn -0.381682 -0.593784 0.708336
vn -0.381682 -0.593784 0.708336
vn -0.381682 -0.593784 0.708336
vn -0.381682 -0.593784 0.708335
vn -0.941472 -0.295055 -0.163013
vn -0.941472 -0.295055 -0.163013
vn -0.941472 -0.295055 -0.163013
vn -0.941472 -0.295055 -0.163013
vn -0.376704 0.666401 0.643431
vn -0.376704 0.666401 0.643431
vn -0.376704 0.666401 0.643431
vn -0.376704 0.666401 0.643432
vn -0.376704 0.666401 0.643432
vn -0.258957 0.957056 0.130324
vn -0.258957 0.957056 0.130324
vn -0.258957 0.957056 0.130324
vn -0.482770 0.771470 -0.414447
vn -0.482770 0.771470 -0.414448
vn -0.482770 0.771470 -0.414448
vn -0.482770 0.771470 -0.414448
vn -0.482770 0.771470 -0.414448
vn -0.482769 0.771470 -0.414448
f 1/1/1 2/4/2 4/7/3
f 2/4/2 7/14/4 4/7/3
f 7/14/4 10/20/5 4/7/3
f 10/20/5 5/10/6 4/7/3
f 2/3/7 8/16/8 7/13/9
f 1/2/10 3/5/11 2/4/12
f 2/4/12 3/5/11 8/15/13
f 3/5/11 9/18/14 8/15/13
f 4/8/15 6/12/16 1/2/17
f 1/2/17 6/12/16 3/6/18
f 6/11/19 12/24/20 3/5/21
f 3/5/21 12/24/20 9/17/22
f 4/7/23 5/9/24 6/12/25
f 5/9/24 11/22/26 6/12/25
f 11/22/26 12/23/27 6/12/25
f 10/19/28 11/21/29 5/9/30
f 12/23/31 11/21/32 9/17/33
f 9/17/33 11/21/32 8/15/34
f 11/21/32 10/20/35 8/15/34
f 10/20/35 7/13/36 8/15/34
