# This file uses centimeters as units for non-parametric coordinates.

v -9.500000 -1.238698 9.500000
v 0.573123 -6.001935 9.500000
v -2.384149 -8.344215 6.514551
v -6.668694 -1.482899 9.500000
v -0.925869 -3.480628 9.500000
v -3.535528 -3.950700 9.500000
v -2.174883 -2.981030 8.846615
v 1.048192 -7.926228 9.500000
v 0.210012 -9.500000 9.500000
v -2.539251 -9.500000 6.912087
v -2.369397 -8.409691 6.525361
v 0.830037 -7.482497 9.072191
v -2.351485 -8.374536 6.524597
v -9.500000 -1.350519 8.932753
v -9.500000 -4.720051 6.138623
v -5.581536 -2.820342 6.574069
v -6.398986 -1.913457 7.433863
v -5.479825 -2.294101 6.858611
v -5.101462 -9.500000 9.500000
v -9.500000 -4.863869 9.500000
v -3.935868 -9.500000 7.606898
v -9.500000 -7.933189 7.036050
vt 0.375000 0.108701
vt 0.507541 0.046027
vt 0.507541 0.268710
vt 0.465155 0.901821
vt 0.453158 0.698464
vt 0.412254 0.105488
vt 0.412254 0.308904
vt 0.487818 0.079202
vt 0.487818 0.165110
vt 0.479109 0.084834
vt 0.479109 0.149532
vt 0.466838 0.213927
vt 0.465457 0.212545
vt 0.513792 0.020708
vt 0.513792 0.670994
vt 0.502763 0.000000
vt 0.502763 1.000000
vt 0.466589 0.891980
vt 0.466589 0.965949
vt 0.465546 0.905299
vt 0.453366 0.698841
vt 0.510922 0.572600
vt 0.505292 0.549748
vt 0.453736 0.701108
vt 0.465418 0.899130
vt 0.367536 0.107230
vt 0.360138 0.095154
vt 0.402410 0.465243
vt 0.407958 0.470790
vt 0.400717 0.367626
vt 0.400717 0.315625
vt 0.409525 0.396694
vt 0.403940 0.391109
vt 0.432875 0.000000
vt 0.432875 1.000000
vt 0.375000 0.061002
vt 0.448212 0.652498
vt 0.448212 0.975091
vt 0.368421 0.065271
vn -1.000000 0.000000 0.000000
vn -1.000000 0.000000 0.000000
vn -1.000000 0.000000 0.000000
vn -1.000000 0.000000 0.000000
vn -1.000000 0.000000 0.000000
vn 0.084321 0.977625 -0.192718
vn 0.084320 0.977625 -0.192718
vn 0.084320 0.977625 -0.192718
vn 0.084320 0.977625 -0.192718
vn -0.119760 0.664860 0.737305
vn -0.119760 0.664860 0.737305
vn -0.119760 0.664860 0.737305
vn 0.190169 -0.118069 -0.974626
vn 0.190169 -0.118069 -0.974626
vn 0.190169 -0.118069 -0.974626
vn 0.942642 0.232720 -0.239307
vn 0.942642 0.232720 -0.239307
vn 0.942642 0.232720 -0.239307
vn 0.536339 0.318868 -0.781450
vn 0.536339 0.318869 -0.781449
vn 0.536338 0.318869 -0.781450
vn 0.536338 0.318869 -0.781450
vn 0.536339 0.318869 -0.781449
vn 0.536338 0.318869 -0.781450
vn 0.536338 0.318872 -0.781449
vn 0.536338 0.318869 -0.781450
vn 0.643858 -0.342915 -0.684000
vn 0.643858 -0.342915 -0.684000
vn 0.643858 -0.342914 -0.684001
vn 0.643858 -0.342914 -0.684001
vn 0.643857 -0.342914 -0.684002
vn 0.643858 -0.342914 -0.684001
vn -0.225570 0.741951 0.631369
vn 0.289118 0.892271 0.346789
vn 0.084146 0.887062 0.453917
vn 0.616639 0.782896 -0.082652
vn 0.580386 0.814341 -0.001404
vn -0.248181 0.618349 -0.745688
vn -0.241063 0.613426 -0.752062
vn -0.244550 0.615043 -0.749611
vn -0.207018 0.577447 -0.789746
vn -0.143091 0.491993 -0.858759
vn 0.000000 0.000000 1.000000
vn -0.000000 0.000000 1.000000
vn -0.000000 0.000000 1.000000
vn -0.000000 0.000000 1.000000
vn -0.000000 0.000000 1.000000
vn 0.000000 0.000000 1.000000
vn 0.000000 0.000000 1.000000
vn 0.000000 0.000000 1.000000
vn 0.000000 0.000000 1.000000
vn 0.000000 -1.000000 -0.000001
vn 0.000000 -1.000000 -0.000001
vn 0.000000 -1.000000 -0.000001
vn 0.000000 -1.000000 0.000000
vn 0.082275 0.058343 -0.994900
vn 0.013964 -0.073359 -0.997208
vn -0.002880 -0.108768 -0.994063
vn -0.087102 -0.295344 -0.951412
vn -0.432305 -0.240869 -0.868962
vn -0.110947 -0.615002 -0.780682
vn -0.141325 -0.564048 -0.813558
vn -0.550740 -0.522516 0.650893
vn -0.541353 -0.610349 0.578283
vn -0.429941 -0.878338 0.208982
vn -0.252909 -0.954876 -0.155717
f 22/39/1 20/36/2 15/27/3
f 1/1/4 14/26/5 20/36/2
f 14/26/5 15/27/3 20/36/2
f 1/1/6 4/7/7 14/26/8
f 14/26/8 4/7/7 17/30/9
f 6/10/10 5/9/11 7/13/12
f 13/24/13 11/21/14 3/5/15
f 8/15/16 12/23/17 2/3/18
f 12/22/19 13/25/20 2/3/21
f 2/3/21 13/25/20 5/9/22
f 13/25/20 3/4/23 5/9/22
f 5/9/22 3/4/23 7/12/24
f 18/32/25 7/12/24 16/29/26
f 3/4/23 16/29/26 7/12/24
f 10/18/27 11/21/28 9/17/29
f 11/21/28 13/25/30 9/17/29
f 8/14/31 9/17/29 12/23/32
f 9/17/29 13/25/30 12/23/32
f 7/13/33 18/33/34 6/11/35
f 4/6/36 6/11/35 17/31/37
f 18/33/34 17/31/37 6/11/35
f 14/26/38 17/31/39 15/27/40
f 17/31/39 18/32/41 15/27/40
f 15/27/40 18/32/41 16/28/42
f 1/1/43 20/36/44 4/6/45
f 4/6/45 20/36/44 6/10/46
f 20/36/44 19/34/47 6/10/46
f 19/34/47 9/16/48 6/10/46
f 9/16/48 8/14/49 6/10/46
f 8/14/49 2/2/50 6/10/46
f 2/2/50 5/8/51 6/10/46
f 19/35/52 21/38/53 9/17/54
f 21/38/53 10/19/55 9/17/54
f 16/28/56 3/4/57 15/27/58
f 15/27/58 3/4/57 22/39/59
f 10/18/60 21/37/61 11/20/62
f 3/4/57 11/20/62 22/39/59
f 21/37/61 22/39/59 11/20/62
f 20/36/63 22/39/64 19/34/65
f 19/34/65 22/39/64 21/38/66
