# This file uses centimeters as units for non-parametric coordinates.

v -9.500000 -9.500000 -0.106180
v -3.102688 -9.500000 -0.932855
v -4.135940 -9.500000 -5.956027
v -3.449760 -6.653973 -1.341413
v -2.349747 -5.218458 -6.352122
v -9.500000 -9.500000 -3.540754
v -5.715544 -9.500000 -3.222701
v -9.500000 -4.349672 -0.926691
v -4.880767 -2.827396 -1.766116
v -4.893788 -2.748016 -1.824316
v -8.108734 -2.971653 -1.326009
v -8.261022 -2.570694 -1.611093
v -2.627594 -3.972443 -7.047977
v -9.500000 -4.024554 -6.394175
v -5.231596 -4.282565 -7.706952
v -8.687858 -2.514091 -1.774222
v -9.500000 -5.696853 -3.318448
v -4.686070 -2.623611 -2.591658
vt 0.248603 0.000000
vt 0.375000 0.873603
vt 0.459175 0.862726
vt 0.524270 0.591120
vt 0.470657 0.819461
vt 0.491175 0.512356
vt 0.441141 0.721119
vt 0.469082 0.735083
vt 0.203411 0.000000
vt 0.375000 0.828411
vt 0.355163 0.510144
vt 0.434550 0.808220
vt 0.237807 0.067767
vt 0.329763 0.703332
vt 0.424175 0.449037
vt 0.423260 0.452852
vt 0.399006 0.550469
vt 0.423203 0.449510
vt 0.350123 0.596342
vt 0.342736 0.627163
vt 0.331204 0.602770
vt 0.310878 0.462291
vt 0.465426 0.709532
vt 0.182935 0.190016
vt 0.165866 0.072045
vt 0.431163 0.704942
vt 0.403773 0.602100
vt 0.318439 0.597705
vt 0.280456 0.335184
vt 0.224138 0.090707
vt 0.233596 0.156074
vt 0.406063 0.563743
vt 0.427401 0.474710
vn 0.126586 0.156063 0.979602
vn 0.126586 0.156063 0.979602
vn 0.126586 0.156063 0.979602
vn 0.126586 0.156063 0.979602
vn 0.126586 0.156063 0.979602
vn 0.126586 0.156063 0.979602
vn 0.921842 -0.375816 0.094707
vn 0.984987 -0.167078 -0.043420
vn 0.962718 -0.269520 0.023071
vn 0.975504 0.090157 -0.200658
vn 0.000000 -1.000000 0.000000
vn 0.000000 -1.000000 0.000000
vn 0.000000 -1.000000 0.000000
vn 0.000000 -1.000000 0.000000
vn 0.000000 -1.000000 0.000000
vn -0.817276 -0.330129 -0.472308
vn -0.044568 -0.340494 -0.939190
vn -0.632011 -0.362572 -0.684912
vn 0.269321 -0.423091 -0.865136
vn 0.341766 -0.256450 -0.904118
vn 0.074323 -0.460863 -0.884353
vn -0.177585 -0.582271 -0.793363
vn -0.080765 -0.540786 -0.837274
vn -0.265687 -0.614092 -0.743170
vn -0.252029 0.495354 0.831327
vn -0.678978 -0.156801 0.717218
vn -0.920738 0.303613 0.245073
vn -0.823878 0.541929 -0.165943
vn -0.708465 0.614911 -0.346355
vn 0.882816 0.363201 0.297860
vn 0.882816 0.363201 0.297860
vn 0.882816 0.363201 0.297860
vn 0.882816 0.363201 0.297860
vn 0.882816 0.363202 0.297860
vn 0.882816 0.363200 0.297860
vn 0.081979 0.598009 0.797286
vn 0.081979 0.598009 0.797286
vn 0.081978 0.598008 0.797287
vn 0.081978 0.598008 0.797287
vn 0.062894 0.982328 0.176286
vn 0.062894 0.982328 0.176286
vn 0.062893 0.982328 0.176285
vn 0.062893 0.982328 0.176285
vn -1.000000 0.000000 0.000000
vn -1.000000 0.000000 0.000000
vn -1.000000 -0.000000 0.000000
vn -1.000000 -0.000000 0.000000
vn -1.000000 -0.000000 0.000000
vn -0.036213 0.951729 -0.304796
vn -0.036213 0.951729 -0.304796
vn -0.218929 0.931097 -0.291769
vn -0.312171 0.948931 0.045594
vn -0.542426 0.838863 0.045638
vn -0.165040 0.464303 -0.870164
f 2/4/1 4/6/2 1/2/3
f 1/2/3 4/6/2 8/14/4
f 8/14/4 4/6/2 11/19/5
f 4/6/2 9/15/6 11/19/5
f 5/8/7 4/7/8 3/5/9
f 3/5/9 4/7/8 2/3/10
f 3/5/11 2/3/12 7/12/13
f 2/3/12 1/2/14 7/12/13
f 6/10/15 7/12/13 1/2/14
f 7/11/16 15/27/17 3/5/18
f 13/23/19 5/8/20 15/27/17
f 15/27/17 5/8/20 3/5/18
f 6/9/21 14/24/22 7/12/23
f 7/12/23 14/24/22 15/26/24
f 12/22/25 16/29/26 11/20/27
f 16/29/26 17/31/28 11/20/27
f 8/14/29 11/20/27 17/31/28
f 4/7/30 5/8/31 9/16/32
f 13/23/33 18/33/34 5/8/31
f 9/16/32 5/8/31 10/18/35
f 10/18/35 5/8/31 18/33/34
f 9/16/36 10/17/37 11/19/38
f 11/19/38 10/17/37 12/22/39
f 16/28/40 12/21/41 18/32/42
f 18/32/42 12/21/41 10/17/43
f 14/25/44 6/9/45 17/30/46
f 8/13/47 17/30/46 1/1/48
f 17/30/46 6/9/45 1/1/48
f 13/23/49 15/26/50 18/33/51
f 15/26/50 14/25/52 18/33/51
f 14/25/52 17/31/53 18/33/51
f 18/33/51 17/31/53 16/28/54
