# This file uses centimeters as units for non-parametric coordinates.

v 2.099324 -6.001616 9.500000
v 0.573123 -6.001935 9.500000
v -1.172412 -3.559860 0.959142
v -1.294668 -3.415498 0.890564
v -1.217238 -3.449750 0.919022
v -2.384146 -8.344220 6.514552
v -0.930066 -2.024848 9.500000
v -0.925869 -3.480627 9.500000
v -1.002266 -1.670228 6.302978
v -2.174883 -2.981030 8.846614
v -0.538566 -4.932564 1.940941
v 1.039694 -6.780760 7.917343
v 0.830037 -7.482497 9.072190
v -2.351486 -8.374537 6.524597
v -5.650030 -4.045656 4.239019
v -5.581537 -2.820344 6.574068
v -5.479824 -2.294100 6.858610
v -1.494204 -3.298734 0.897869
v -3.616308 -0.644890 4.971454
v -4.835136 -1.004200 5.835961
v -5.120730 -1.219284 5.936020
v -5.645811 -4.034317 4.225012
vt 0.505130 0.069439
vt 0.505130 0.791682
vt 0.507541 0.046027
vt 0.507541 0.383187
vt 0.484574 0.800260
vt 0.482965 0.792837
vt 0.481959 0.791831
vt 0.483984 0.797314
vt 0.468630 0.843751
vt 0.468630 0.513032
vt 0.502240 0.077687
vt 0.502240 0.766940
vt 0.487818 0.377882
vt 0.487818 0.079202
vt 0.486812 0.704395
vt 0.471383 0.146789
vt 0.471383 0.403796
vt 0.492914 0.833366
vt 0.513680 0.871837
vt 0.513680 0.499692
vt 0.510922 0.638625
vt 0.510922 0.444169
vt 0.469059 0.846951
vt 0.469059 0.514581
vt 0.425658 0.395443
vt 0.425658 0.540087
vt 0.426559 0.416773
vt 0.422327 0.412542
vt 0.427897 0.341468
vt 0.427897 0.372982
vt 0.480339 0.779699
vt 0.476699 0.776059
vt 0.427511 0.543056
vt 0.429937 0.545482
vt 0.427264 0.438544
vt 0.427264 0.410263
vt 0.425263 0.406507
vt 0.425263 0.416791
vt 0.425713 0.396213
vt 0.425713 0.540093
vn 0.933720 0.327144 -0.145411
vn 0.934315 0.344967 -0.089738
vn 0.933720 0.327143 -0.145410
vn 0.933720 0.327143 -0.145410
vn 0.888982 0.387384 -0.244223
vn 0.911569 0.403615 -0.078339
vn 0.611832 0.466077 -0.639088
vn 0.236553 -0.246175 -0.939915
vn 0.236553 -0.246175 -0.939915
vn 0.236553 -0.246175 -0.939915
vn 0.000000 0.000000 1.000000
vn 0.000000 0.000000 1.000000
vn 0.000000 0.000000 1.000000
vn 0.000000 0.000000 1.000000
vn -0.536339 -0.318869 0.781449
vn -0.536338 -0.318869 0.781450
vn -0.536338 -0.318869 0.781450
vn -0.536338 -0.318869 0.781450
vn -0.536338 -0.318869 0.781450
vn -0.536338 -0.318869 0.781450
vn -0.536338 -0.318869 0.781450
vn -0.536338 -0.318869 0.781450
vn -0.270597 0.677488 0.683950
vn -0.270597 0.677488 0.683950
vn -0.270597 0.677488 0.683950
vn -0.270597 0.677488 0.683950
vn -0.463948 -0.001338 0.885861
vn -0.677650 0.658475 0.327416
vn -0.230787 0.861775 0.451754
vn -0.007825 0.890348 0.455213
vn 0.091150 0.867478 0.489054
vn 0.091150 0.867478 0.489054
vn 0.966645 0.099550 0.235981
vn 0.661613 -0.576945 0.478960
vn 0.416837 -0.760874 0.497311
vn 0.000187 -0.897223 0.441579
vn -0.402959 -0.648187 -0.646126
vn -0.402961 -0.648191 -0.646120
vn -0.402961 -0.648191 -0.646120
vn -0.402961 -0.648191 -0.646120
vn -0.402960 -0.648192 -0.646119
vn -0.402961 -0.648191 -0.646120
vn -0.402959 -0.648191 -0.646121
vn -0.402961 -0.648194 -0.646117
vn 0.515901 -0.770451 -0.374501
vn 0.515901 -0.770451 -0.374501
vn 0.515901 -0.770451 -0.374501
vn 0.515901 -0.770451 -0.374501
vn -0.830043 -0.483450 0.278037
vn -0.830043 -0.483450 0.278037
vn -0.830043 -0.483450 0.278037
vn -0.966059 0.239317 -0.097245
vn -0.966065 0.239299 -0.097234
vn -0.966065 0.239298 -0.097234
vn -0.966065 0.239298 -0.097234
vn -0.966065 0.239298 -0.097234
vn 0.474838 0.829789 -0.293223
vn 0.474837 0.829789 -0.293224
vn 0.474839 0.829788 -0.293224
vn 0.474838 0.829788 -0.293224
vn 0.474839 0.829788 -0.293224
vn -0.594940 0.495594 -0.632798
vn -0.594940 0.495594 -0.632798
vn -0.594940 0.495594 -0.632798
vn -0.594940 0.495594 -0.632798
vn -0.594940 0.495594 -0.632798
f 5/8/1 9/15/2 3/5/3
f 3/5/3 9/15/2 11/18/4
f 11/18/4 9/15/2 12/19/5
f 9/15/2 7/12/6 12/19/5
f 7/12/6 1/2/7 12/19/5
f 3/5/8 4/7/9 5/8/10
f 7/11/11 8/14/12 1/1/13
f 1/1/13 8/14/12 2/3/14
f 17/30/15 16/27/16 10/17/17
f 16/27/16 6/9/18 10/17/17
f 10/17/17 6/9/18 8/13/19
f 8/13/19 6/9/18 2/3/20
f 6/9/18 14/23/21 2/3/20
f 14/23/21 13/22/22 2/3/20
f 20/36/23 21/37/24 10/16/25
f 10/16/25 21/37/24 17/29/26
f 8/14/27 7/12/28 10/17/29
f 7/12/28 9/15/30 10/17/29
f 10/17/29 9/15/30 20/35/31
f 9/15/30 19/34/32 20/35/31
f 13/21/33 12/20/34 2/4/35
f 2/4/35 12/20/34 1/1/36
f 14/24/37 6/10/38 11/18/39
f 6/10/38 15/25/40 11/18/39
f 15/25/40 22/39/41 11/18/39
f 22/39/41 18/31/42 11/18/39
f 18/31/42 4/6/43 11/18/39
f 11/18/39 4/6/43 3/5/44
f 13/22/45 14/24/46 12/20/47
f 12/20/47 14/24/46 11/18/48
f 16/28/49 15/26/50 6/9/51
f 22/40/52 15/26/53 21/38/54
f 17/29/55 21/38/54 16/27/56
f 16/27/56 21/38/54 15/26/53
f 5/8/57 4/7/58 9/15/59
f 4/7/58 18/32/60 9/15/59
f 18/32/60 19/33/61 9/15/59
f 22/40/62 21/37/63 18/31/64
f 21/37/63 20/35/65 18/31/64
f 18/31/64 20/35/65 19/33/66
