# This file uses centimeters as units for non-parametric coordinates.

v 6.304519 9.500000 -0.123071
v 4.702816 9.500000 -9.500000
v 1.174202 6.795997 2.304019
v -0.674056 5.251786 -0.983065
v 0.313206 9.500000 -9.500000
v -1.482204 6.022399 -1.754006
v -3.110739 9.500000 -0.827174
v 1.438395 6.925568 -9.499999
v 1.778209 8.558900 -9.500000
v -1.087128 5.597191 -2.363681
v 1.039460 9.500000 -1.522953
v 0.090716 6.687354 2.115734
v 1.997317 8.851032 3.555970
v 0.437468 6.893209 2.366621
v -0.361865 6.895242 1.816333
v -2.505728 9.500000 3.775571
v 8.098393 9.233623 -5.481341
v 0.682336 3.885933 -1.163627
v 0.968489 4.000427 -0.823669
v 1.435332 5.511642 -7.573397
v 0.365041 4.094035 -3.388465
v 0.824822 3.928204 -0.913057
vt 0.610014 0.448186
vt 0.608824 0.446996
vt 0.561879 0.500000
vt 0.538009 0.281995
vt 0.544115 0.288101
vt 0.536088 0.299735
vt 0.535901 0.299548
vt 0.504121 0.500000
vt 0.516601 0.336173
vt 0.516487 0.336059
vt 0.459069 0.385884
vt 0.518926 0.533874
vt 0.513171 0.524927
vt 0.525711 0.344324
vt 0.525807 0.344419
vt 0.530744 0.324635
vt 0.523257 0.317148
vt 0.524706 0.282129
vt 0.526870 0.284293
vt 0.525941 0.307412
vt 0.531695 0.313165
vt 0.526826 0.282836
vt 0.529030 0.285039
vt 0.518937 0.292982
vt 0.517932 0.291978
vt 0.467030 0.368507
vt 0.608063 0.442208
vt 0.608147 0.442292
vt 0.568478 0.272930
vt 0.568192 0.272644
vt 0.567407 0.267119
vt 0.571043 0.270755
vt 0.542682 0.466685
vt 0.559968 0.345877
vt 0.559928 0.345836
vt 0.569108 0.269628
vt 0.569290 0.269810
vn 0.000000 0.000000 -1.000000
vn 0.000000 -0.000000 -1.000000
vn 0.000000 -0.000000 -1.000000
vn 0.000000 -0.000000 -1.000000
vn 0.097840 0.995062 -0.016712
vn 0.390973 0.879271 -0.272071
vn 0.652482 -0.483671 -0.583377
vn 0.536758 -0.680617 -0.498650
vn 0.536758 -0.680617 -0.498649
vn -0.041411 -0.743589 0.667354
vn -0.041410 -0.743589 0.667354
vn -0.041410 -0.743589 0.667353
vn -0.041409 -0.743589 0.667354
vn -0.041410 -0.743589 0.667353
vn 0.003718 -0.521351 0.853334
vn 0.003718 -0.521351 0.853334
vn 0.003718 -0.521351 0.853334
vn 0.000000 1.000000 0.000000
vn 0.000000 1.000000 -0.000000
vn 0.000000 1.000000 0.000000
vn 0.000000 1.000000 -0.000000
vn 0.000000 1.000000 0.000000
vn 0.000000 1.000000 -0.000000
vn -0.731815 -0.674680 0.096194
vn -0.776848 -0.586037 0.230365
vn -0.774477 -0.592570 0.221463
vn -0.801042 -0.472927 0.366976
vn -0.801042 -0.472927 0.366977
vn -0.706833 -0.706528 0.034720
vn -0.706833 -0.706528 0.034720
vn -0.706833 -0.706527 0.034720
vn -0.706833 -0.706527 0.034720
vn -0.706833 -0.706527 0.034720
vn -0.881243 -0.319957 -0.347906
vn -0.675957 -0.582614 -0.451268
vn -0.881243 -0.319957 -0.347906
vn -0.825414 -0.411162 -0.386830
vn -0.470324 -0.732150 -0.492698
vn -0.935513 0.194633 -0.294846
vn -0.944462 0.064017 -0.322326
vn -0.845863 -0.383499 -0.370735
vn -0.781344 -0.502550 -0.370062
vn -0.781344 -0.502549 -0.370062
vn 0.803234 0.256861 0.537436
vn 0.733476 0.351349 0.581865
vn 0.259123 0.643808 0.719977
vn -0.823852 0.521516 0.222012
vn -0.802109 0.546032 0.241808
vn -0.409829 0.770289 0.488564
vn 0.676094 -0.689188 0.260609
vn 0.561319 -0.615154 0.553630
vn 0.679179 -0.344851 0.647914
vn 0.219666 0.091604 0.971265
vn 0.986466 -0.115522 -0.116356
vn 0.945030 -0.250445 -0.210228
vn -0.601846 -0.657585 0.453171
vn -0.601846 -0.657585 0.453170
vn -0.601846 -0.657585 0.453170
vn -0.601846 -0.657585 0.453170
vn -0.601846 -0.657585 0.453170
vn 0.518048 -0.841629 -0.152604
vn 0.518048 -0.841629 -0.152604
vn 0.518047 -0.841629 -0.152604
vn 0.518047 -0.841629 -0.152604
vn 0.518047 -0.841629 -0.152603
vn 0.518047 -0.841629 -0.152604
f 5/8/1 2/3/2 9/13/3
f 2/3/2 8/12/4 9/13/3
f 1/2/5 17/28/6 2/3/7
f 8/12/8 2/3/7 20/33/9
f 2/3/7 17/28/6 20/33/9
f 22/36/10 19/32/11 12/18/12
f 3/5/13 14/23/14 19/32/11
f 14/23/14 12/18/12 19/32/11
f 3/4/15 13/21/16 14/22/17
f 16/26/18 11/16/19 7/11/20
f 7/11/20 11/16/19 5/8/21
f 1/1/22 2/3/23 11/16/19
f 5/8/21 11/16/19 2/3/23
f 16/26/24 7/11/25 15/25/26
f 4/7/27 15/25/26 6/10/28
f 7/11/25 6/10/28 15/25/26
f 21/34/29 18/29/30 10/15/31
f 18/29/30 4/6/32 10/15/31
f 6/9/33 10/15/31 4/6/32
f 7/11/34 5/8/35 6/10/36
f 6/10/36 5/8/35 10/14/37
f 5/8/35 9/13/38 10/14/37
f 9/13/39 8/12/40 10/14/41
f 8/12/40 20/33/42 10/14/41
f 20/33/42 21/35/43 10/14/41
f 16/26/44 15/24/45 11/16/46
f 13/20/47 11/16/46 14/22/48
f 14/22/48 11/16/46 12/18/49
f 11/16/46 15/24/45 12/18/49
f 17/27/50 1/2/51 19/31/52
f 1/2/51 11/17/53 19/31/52
f 19/31/52 11/17/53 3/4/54
f 11/17/53 13/20/55 3/4/54
f 12/19/56 15/24/57 22/37/58
f 18/30/59 22/37/58 4/7/60
f 22/37/58 15/24/57 4/7/60
f 20/33/61 17/27/62 21/35/63
f 17/27/62 19/32/64 21/35/63
f 19/32/64 22/37/65 21/35/63
f 22/37/65 18/29/66 21/35/63
