# This file uses centimeters as units for non-parametric coordinates.

v -5.848881 6.870666 -9.500001
v -6.812436 4.883576 -3.437864
v -6.460481 5.270076 -2.878015
v -3.946762 9.500000 -4.604419
v -3.890429 9.499999 -0.962253
v -4.509363 8.539242 -1.403483
v -6.477855 5.910248 -9.500000
v -6.623577 4.646433 -3.778140
v 0.313205 9.500000 -9.500000
v -1.482204 6.022400 -1.754006
v -3.110739 9.500000 -0.827174
v -1.087128 5.597193 -2.363681
v 1.778210 8.558901 -9.500000
v -6.320654 9.500000 -9.500000
v -8.059188 8.851724 -9.500002
v -6.158936 9.500001 -8.036368
vt 0.401709 0.524606
vt 0.380405 0.445953
vt 0.380855 0.446404
vt 0.387315 0.432858
vt 0.387664 0.433207
vt 0.448069 0.388217
vt 0.448810 0.387661
vt 0.434379 0.398007
vt 0.434459 0.398086
vt 0.414765 0.547234
vt 0.384571 0.455517
vt 0.384996 0.455942
vt 0.504121 0.500000
vt 0.481086 0.412809
vt 0.483173 0.414896
vt 0.459069 0.385884
vt 0.489541 0.429263
vt 0.489457 0.429179
vt 0.513171 0.524927
vt 0.416834 0.500000
vt 0.403497 0.520675
vt 0.418961 0.480742
vn -0.843304 0.537279 0.013043
vn -0.843304 0.537279 0.013043
vn -0.843304 0.537279 0.013043
vn -0.858663 -0.495438 -0.131297
vn -0.994912 -0.074730 -0.067567
vn -0.840463 0.539992 0.045065
vn -0.835659 0.547271 0.046563
vn -0.004549 -0.821594 0.570056
vn -0.004549 -0.821593 0.570056
vn -0.004549 -0.821593 0.570057
vn -0.004549 -0.821592 0.570057
vn -0.004549 -0.821592 0.570058
vn -0.161492 -0.324057 0.932152
vn -0.161492 -0.324057 0.932152
vn -0.161492 -0.324057 0.932152
vn -0.161492 -0.324058 0.932152
vn -0.161492 -0.324058 0.932152
vn 0.000000 -0.000001 -1.000000
vn 0.000000 -0.000000 -1.000000
vn 0.000000 0.000000 -1.000000
vn 0.000000 0.000000 -1.000000
vn 0.000002 0.000001 -1.000000
vn 0.000000 0.000000 -1.000000
vn 0.294729 -0.918694 -0.262937
vn 0.274871 -0.928845 -0.248382
vn 0.273870 -0.929336 -0.247648
vn 0.216364 -0.954481 -0.205311
vn 0.881243 0.319958 0.347906
vn 0.881243 0.319958 0.347906
vn 0.675957 0.582614 0.451268
vn 0.825414 0.411163 0.386830
vn 0.470324 0.732150 0.492698
vn 0.000000 1.000000 0.000000
vn 0.000000 1.000000 0.000000
vn 0.000000 1.000000 0.000000
vn 0.000000 1.000000 0.000000
vn -0.000001 1.000000 0.000000
vn -0.000000 1.000000 0.000000
vn -0.859197 0.511638 0.002554
vn -0.746458 0.578100 0.329546
vn -0.801423 0.533646 0.270081
vn -0.428045 -0.477578 0.767266
vn -0.992794 -0.119738 0.004790
vn -0.957230 0.165114 0.237589
vn -0.980700 0.188937 0.050305
vn -0.349127 0.936281 0.038574
vn -0.349127 0.936281 0.038574
vn -0.349127 0.936281 0.038574
f 5/7/1 4/6/2 6/9/3
f 8/11/4 2/2/5 7/10/6
f 7/10/6 2/2/5 1/1/7
f 12/17/8 10/15/9 8/12/10
f 8/12/10 10/15/9 2/3/11
f 10/15/9 3/5/12 2/3/11
f 3/5/13 10/14/14 6/9/15
f 6/9/15 10/14/14 5/7/16
f 10/14/14 11/16/17 5/7/16
f 7/10/18 1/1/19 13/19/20
f 13/19/20 1/1/19 9/13/21
f 15/21/22 14/20/23 1/1/19
f 9/13/21 1/1/19 14/20/23
f 13/19/24 12/18/25 7/10/26
f 7/10/26 12/18/25 8/11/27
f 11/16/28 10/15/29 9/13/30
f 10/15/29 12/18/31 9/13/30
f 9/13/30 12/18/31 13/19/32
f 14/20/33 16/22/34 9/13/35
f 16/22/34 4/6/36 9/13/35
f 5/7/37 11/16/38 4/6/36
f 4/6/36 11/16/38 9/13/35
f 6/8/39 4/6/40 3/4/41
f 15/21/42 1/1/43 16/22/44
f 1/1/43 2/3/45 16/22/44
f 2/3/45 3/4/41 16/22/44
f 16/22/44 3/4/41 4/6/40
f 14/20/46 15/21/47 16/22/48
