# This file uses centimeters as units for non-parametric coordinates.

v 2.696215 3.040818 -9.500000
v -6.058793 2.556726 -9.500000
v -6.278548 2.570209 -5.390765
v -6.477855 5.910247 -9.500000
v -6.623577 4.646433 -3.778139
v 0.958755 0.832597 -7.368608
v 0.635464 0.896854 -5.902723
v 1.438395 6.925569 -9.500000
v -1.087128 5.597192 -2.363681
v 1.778209 8.558901 -9.500000
v 1.435333 5.511643 -7.573399
v 0.365042 4.094035 -3.388465
vt 0.510576 0.613278
vt 0.420279 0.591359
vt 0.372196 0.463717
vt 0.370657 0.462178
vt 0.414765 0.547234
vt 0.355592 0.413541
vt 0.353294 0.411243
vt 0.506242 0.567584
vt 0.506793 0.568136
vt 0.495689 0.532578
vt 0.495599 0.532489
vt 0.518926 0.533874
vt 0.466727 0.435002
vt 0.472775 0.441051
vt 0.513171 0.524927
vt 0.516043 0.520890
vt 0.498728 0.477338
vt 0.498760 0.477370
vn 0.000000 0.000000 -1.000000
vn 0.000000 0.000000 -1.000000
vn 0.000000 0.000000 -1.000000
vn 0.000000 0.000000 -1.000000
vn 0.000000 0.000000 -1.000000
vn -0.990910 -0.123826 -0.052586
vn -0.990910 -0.123826 -0.052586
vn -0.990910 -0.123826 -0.052586
vn -0.990910 -0.123826 -0.052586
vn 0.039245 -0.709758 -0.703351
vn -0.070769 -0.876559 -0.476063
vn -0.187960 -0.968314 -0.164437
vn -0.235881 -0.971736 -0.009426
vn -0.235881 -0.971736 -0.009426
vn -0.092461 -0.620326 0.778875
vn -0.092461 -0.620326 0.778875
vn -0.092461 -0.620326 0.778875
vn -0.092461 -0.620326 0.778875
vn -0.092461 -0.620326 0.778875
vn 0.927654 0.300359 0.221907
vn 0.903374 0.146810 0.402941
vn 0.850052 0.023509 0.526174
vn 0.801312 -0.055546 0.595662
vn -0.294729 0.918694 0.262937
vn -0.273870 0.929336 0.247648
vn -0.274871 0.928845 0.248382
vn -0.216364 0.954481 0.205311
vn 0.971789 -0.089429 0.218241
vn 0.971789 -0.089428 0.218241
vn 0.971789 -0.089429 0.218241
vn 0.971789 -0.089428 0.218241
vn 0.935513 -0.194633 0.294846
vn 0.845863 0.383499 0.370734
vn 0.944461 -0.064017 0.322326
vn 0.781344 0.502550 0.370062
vn 0.781344 0.502549 0.370061
f 10/15/1 8/12/2 4/5/3
f 1/1/4 2/2/5 8/12/2
f 2/2/5 4/5/3 8/12/2
f 2/2/6 3/4/7 4/5/8
f 4/5/8 3/4/7 5/7/9
f 1/1/10 6/8/11 2/2/12
f 2/2/12 6/8/11 3/4/13
f 6/8/11 7/11/14 3/4/13
f 7/10/15 12/18/16 3/3/17
f 12/18/16 9/14/18 3/3/17
f 9/14/18 5/6/19 3/3/17
f 8/12/20 11/16/21 1/1/22
f 1/1/22 11/16/21 6/9/23
f 10/15/24 4/5/25 9/13/26
f 9/13/26 4/5/25 5/6/27
f 12/17/28 7/11/29 11/16/30
f 11/16/30 7/11/29 6/9/31
f 10/15/32 9/14/33 8/12/34
f 8/12/34 9/14/33 11/16/35
f 9/14/33 12/17/36 11/16/35
