# This file uses centimeters as units for non-parametric coordinates.

v 0.736336 0.427370 -1.432696
v 0.477676 0.899977 -1.120361
v -1.185581 -0.662933 -0.882699
v -9.500000 0.363461 -0.632739
v -7.824443 0.184636 0.030361
v -1.676075 -0.940529 -0.813532
v -7.759670 0.112437 0.021774
v -9.500000 1.825772 -5.454700
v -7.223540 4.789479 -3.065268
v -9.500000 2.000926 -1.712120
v -6.742653 5.119134 -2.870336
v -9.500000 0.377363 -3.348950
v -9.500000 -2.031065 -1.887873
v -6.460483 5.270075 -2.878015
v -6.812436 4.883575 -3.437865
v -6.278549 2.570210 -5.390766
v -6.623578 4.646432 -3.778140
v -4.893788 -2.748016 -1.824316
v -8.261020 -2.570694 -1.611092
v -4.686071 -2.623611 -2.591657
v -8.687859 -2.514091 -1.774222
v 1.183935 0.683908 -1.842543
v 0.814584 3.154276 -1.178227
v 0.635465 0.896854 -5.902721
v 0.743076 0.470469 -5.667822
v -0.674055 5.251785 -0.983064
v -1.482204 6.022400 -1.754006
v -1.087129 5.597193 -2.363680
v 0.682337 3.885933 -1.163626
v 0.365041 4.094035 -3.388465
vt 0.509689 0.498563
vt 0.506285 0.488999
vt 0.490107 0.408473
vt 0.496286 0.425754
vt 0.297015 0.284567
vt 0.241674 0.129782
vt 0.371373 0.377404
vt 0.486618 0.396400
vt 0.491490 0.410025
vt 0.373384 0.377377
vt 0.253376 0.245560
vt 0.220944 0.154850
vt 0.335627 0.364977
vt 0.303078 0.273940
vt 0.240828 0.188685
vt 0.227472 0.151328
vt 0.346823 0.365964
vt 0.316560 0.281320
vt 0.227285 0.189681
vt 0.205935 0.129965
vt 0.321413 0.367489
vt 0.225160 0.098275
vt 0.353461 0.368818
vt 0.324571 0.288015
vt 0.345498 0.375872
vt 0.315045 0.290694
vt 0.324620 0.317784
vt 0.324718 0.318059
vt 0.319872 0.299052
vt 0.346165 0.372593
vt 0.431731 0.365518
vt 0.431567 0.365059
vt 0.386265 0.452435
vt 0.386861 0.454101
vt 0.428911 0.388764
vt 0.451366 0.451570
vt 0.334242 0.340156
vt 0.365667 0.428047
vt 0.515578 0.505306
vt 0.510718 0.471247
vt 0.503694 0.551220
vt 0.503688 0.551204
vt 0.509932 0.555263
vt 0.511330 0.559175
vt 0.488635 0.432189
vt 0.466445 0.421067
vt 0.467480 0.420323
vt 0.508978 0.462807
vt 0.502789 0.484811
vn 0.425960 -0.324908 0.844389
vn 0.425960 -0.324908 0.844389
vn 0.425960 -0.324908 0.844389
vn 0.491663 -0.870748 -0.008079
vn 0.491663 -0.870748 -0.008079
vn 0.491663 -0.870748 -0.008079
vn 0.491663 -0.870748 -0.008079
vn 0.491663 -0.870748 -0.008079
vn 0.491663 -0.870748 -0.008079
vn 0.491663 -0.870748 -0.008079
vn -0.457244 0.839903 -0.292388
vn -0.457245 0.839902 -0.292389
vn -0.457244 0.839903 -0.292388
vn -0.457245 0.839902 -0.292391
vn -0.262179 0.531111 0.805719
vn -0.262180 0.531112 0.805719
vn -0.262180 0.531112 0.805719
vn -0.262180 0.531112 0.805718
vn -0.262180 0.531111 0.805719
vn -0.262180 0.531111 0.805719
vn -0.262180 0.531111 0.805719
vn -0.622681 0.688631 0.371558
vn -0.757428 0.649709 0.064659
vn -0.780457 0.624683 -0.025658
vn -0.781210 0.623586 -0.029184
vn -1.000000 0.000000 0.000000
vn -1.000000 0.000000 0.000000
vn -1.000000 0.000000 0.000000
vn -1.000000 0.000000 0.000000
vn -1.000000 0.000000 0.000000
vn -0.371441 -0.431042 0.822335
vn -0.371442 -0.431041 0.822335
vn -0.371441 -0.431042 0.822335
vn -0.371442 -0.431040 0.822335
vn -0.371442 -0.431041 0.822335
vn -0.371441 -0.431042 0.822335
vn 0.197665 -0.807657 -0.555535
vn 0.126410 -0.515227 -0.847680
vn -0.048477 0.291815 -0.955246
vn -0.181435 0.632567 -0.752954
vn -0.451667 0.732722 -0.509033
vn -0.537010 0.739596 -0.405730
vn -0.185559 -0.509663 -0.840126
vn -0.185559 -0.509664 -0.840126
vn -0.185559 -0.509664 -0.840126
vn -0.185559 -0.509664 -0.840126
vn -0.185559 -0.509664 -0.840126
vn -0.185558 -0.509664 -0.840126
vn -0.185559 -0.509663 -0.840126
vn 0.026379 -0.523278 0.851753
vn 0.026379 -0.523279 0.851753
vn 0.026379 -0.523279 0.851753
vn 0.026379 -0.523279 0.851753
vn -0.062894 -0.982328 -0.176285
vn -0.062893 -0.982328 -0.176284
vn -0.062894 -0.982328 -0.176285
vn -0.062893 -0.982328 -0.176284
vn 0.699251 -0.086288 0.709650
vn 0.699251 -0.086288 0.709650
vn 0.699251 -0.086288 0.709650
vn 0.699251 -0.086288 0.709650
vn 0.136871 0.004971 0.990576
vn 0.136871 0.004972 0.990576
vn 0.136871 0.004972 0.990576
vn 0.136871 0.004972 0.990576
vn 0.136871 0.004972 0.990576
vn 0.136871 0.004972 0.990576
vn 0.136871 0.004972 0.990576
vn 0.136871 0.004972 0.990576
vn 0.004549 0.821592 -0.570057
vn 0.004549 0.821593 -0.570056
vn 0.004549 0.821592 -0.570057
vn 0.004549 0.821593 -0.570056
vn 0.004549 0.821593 -0.570057
vn 0.092461 0.620326 -0.778875
vn 0.092461 0.620326 -0.778875
vn 0.092461 0.620326 -0.778875
vn 0.092461 0.620326 -0.778875
vn 0.092461 0.620326 -0.778875
vn 0.976214 0.178895 -0.122490
vn 0.976213 0.178895 -0.122490
vn 0.976213 0.178896 -0.122490
vn 0.976213 0.178896 -0.122490
vn 0.976213 0.178896 -0.122490
vn 0.976213 0.178896 -0.122490
vn 0.706833 0.706527 -0.034720
vn 0.706833 0.706527 -0.034720
vn 0.706833 0.706527 -0.034720
vn 0.706833 0.706527 -0.034719
vn 0.706834 0.706527 -0.034720
f 2/2/1 3/3/2 1/1/3
f 25/43/4 22/39/5 20/35/6
f 22/39/5 1/1/7 20/35/6
f 1/1/7 3/4/8 20/35/6
f 3/4/8 6/9/9 20/35/6
f 6/9/9 18/31/10 20/35/6
f 9/14/11 11/18/12 15/26/13
f 15/26/13 11/18/12 14/24/14
f 26/45/15 27/46/16 5/7/17
f 27/46/16 14/23/18 5/7/17
f 14/23/18 11/17/19 5/7/17
f 5/7/17 11/17/19 4/5/20
f 11/17/19 10/15/21 4/5/20
f 11/18/22 9/13/23 10/15/24
f 9/13/23 8/12/25 10/15/24
f 8/12/26 12/20/27 10/16/28
f 13/22/29 4/6/30 12/20/27
f 12/20/27 4/6/30 10/16/28
f 4/6/31 13/21/32 5/7/33
f 5/7/33 13/21/32 7/10/34
f 13/21/32 21/38/35 7/10/34
f 21/38/35 19/33/36 7/10/34
f 12/19/37 8/11/38 16/28/39
f 16/28/39 8/11/38 17/30/40
f 17/30/40 8/11/38 15/25/41
f 15/25/41 8/11/38 9/13/42
f 24/42/43 25/44/44 16/27/45
f 25/44/44 20/36/46 16/27/45
f 16/27/45 20/36/46 12/19/47
f 13/22/48 12/19/47 21/37/49
f 20/36/46 21/37/49 12/19/47
f 19/34/50 18/32/51 7/10/52
f 7/10/52 18/32/51 6/8/53
f 18/32/54 19/33/55 20/35/56
f 20/35/56 19/33/55 21/37/57
f 23/40/58 2/2/59 22/39/60
f 22/39/60 2/2/59 1/1/61
f 5/7/62 7/10/63 26/45/64
f 7/10/63 6/8/65 26/45/64
f 6/8/65 3/3/66 26/45/64
f 3/3/66 2/2/67 26/45/64
f 2/2/67 23/40/68 26/45/64
f 23/40/68 29/48/69 26/45/64
f 28/47/70 17/29/71 27/46/72
f 17/29/71 15/26/73 27/46/72
f 27/46/72 15/26/73 14/23/74
f 24/41/75 16/28/76 30/49/77
f 30/49/77 16/28/76 28/47/78
f 28/47/78 16/28/76 17/29/79
f 29/48/80 23/40/81 30/49/82
f 23/40/81 22/39/83 30/49/82
f 24/41/84 30/49/82 25/44/85
f 30/49/82 22/39/83 25/44/85
f 30/49/86 28/47/87 29/48/88
f 29/48/88 28/47/87 26/45/89
f 27/46/90 26/45/89 28/47/87
