# This file uses centimeters as units for non-parametric coordinates.

v 1.938293 1.019151 2.863692
v 9.500000 4.006406 1.842021
v 1.548911 0.908544 0.461705
v 1.551580 1.053463 -0.269582
v 2.894819 3.451316 -2.441974
v 3.174636 2.535991 -2.992828
v 2.767306 3.248410 -2.363971
v 2.466591 1.655718 3.599160
v 4.589420 4.861065 3.196033
v 5.637395 4.772576 -1.328090
v 4.968759 5.561620 2.461232
v 1.656524 0.395319 0.179602
v 1.649507 0.559938 -0.404549
v 3.591203 4.353642 -1.800459
v 3.740276 4.452992 -1.722491
v 3.670557 4.450525 -1.696561
v 2.363725 -0.278635 3.020316
v 4.386229 -0.945211 5.089119
v 5.009141 -1.372177 5.431977
v 2.395582 -0.604652 2.633978
v 4.878468 -2.127266 4.238569
v 9.500000 3.191821 1.258571
v 9.500000 -1.614426 3.476739
v 3.261152 2.316481 -3.122966
v 5.729851 3.818400 -1.922508
v 2.963925 0.582419 -2.550654
v 7.416788 -2.718391 2.388307
v 9.500000 1.777196 3.674664
v 9.500000 -0.866138 4.704319
v 7.221022 0.855291 5.387037
v 7.304350 -0.599080 5.904076
v 9.182034 4.291974 1.740425
v 7.177861 5.402577 0.606298
v 5.752492 5.577844 2.119654
vt 0.526417 0.331832
vt 0.725763 0.177716
vt 0.694012 0.302411
vt 0.527075 0.371815
vt 0.530897 0.377975
vt 0.581963 0.332465
vt 0.590680 0.339419
vt 0.577941 0.335684
vt 0.533267 0.318772
vt 0.584479 0.295321
vt 0.645213 0.314880
vt 0.598305 0.296859
vt 0.528786 0.398867
vt 0.531819 0.401669
vt 0.597050 0.324066
vt 0.600441 0.322919
vt 0.598476 0.323000
vt 0.532415 0.359241
vt 0.558832 0.300545
vt 0.568792 0.288606
vt 0.533843 0.374435
vt 0.578302 0.309982
vt 0.733440 0.166998
vt 0.693468 0.323976
vt 0.704254 0.103758
vt 0.698226 0.127428
vt 0.593244 0.341056
vt 0.649544 0.322750
vt 0.578617 0.374211
vt 0.662918 0.197832
vt 0.679240 0.236389
vt 0.701649 0.148384
vt 0.688101 0.113603
vt 0.677600 0.154842
vt 0.618794 0.211800
vt 0.614859 0.210723
vt 0.689200 0.301368
vt 0.689885 0.298678
vt 0.664214 0.289895
vt 0.619045 0.292415
vt 0.617938 0.296763
vn 1.000000 0.000000 0.000000
vn 1.000000 0.000000 0.000000
vn 1.000000 0.000000 0.000000
vn 1.000000 0.000000 0.000000
vn 1.000000 0.000000 0.000000
vn -0.942798 -0.289011 0.166144
vn -0.942798 -0.289011 0.166144
vn -0.942798 -0.289011 0.166144
vn -0.942798 -0.289011 0.166144
vn -0.942798 -0.289011 0.166144
vn -0.982124 -0.183928 -0.040034
vn -0.982124 -0.183928 -0.040034
vn -0.982124 -0.183928 -0.040034
vn -0.982124 -0.183928 -0.040034
vn -0.713017 0.188460 -0.675344
vn -0.713017 0.188460 -0.675344
vn -0.713017 0.188460 -0.675344
vn -0.822606 0.558331 0.107641
vn -0.822606 0.558331 0.107641
vn -0.822606 0.558331 0.107641
vn -0.822606 0.558331 0.107641
vn -0.822606 0.558331 0.107641
vn -0.822606 0.558331 0.107641
vn -0.822606 0.558331 0.107641
vn -0.822606 0.558331 0.107641
vn -0.822606 0.558331 0.107641
vn -0.822606 0.558331 0.107641
vn -0.289573 0.305845 0.906976
vn -0.289573 0.305845 0.906976
vn -0.289573 0.305845 0.906976
vn -0.289573 0.305845 0.906976
vn -0.289573 0.305845 0.906976
vn -0.289573 0.305845 0.906976
vn 0.616366 0.458536 -0.640186
vn 0.616366 0.458536 -0.640186
vn 0.616366 0.458536 -0.640186
vn 0.616366 0.458536 -0.640186
vn 0.616366 0.458536 -0.640186
vn 0.616366 0.458536 -0.640186
vn -0.116873 0.967975 -0.222182
vn -0.116873 0.967975 -0.222182
vn -0.116873 0.967975 -0.222182
vn -0.116873 0.967975 -0.222182
vn -0.116873 0.967975 -0.222182
vn -0.116873 0.967975 -0.222182
vn -0.236351 0.794085 -0.559971
vn -0.236351 0.794085 -0.559971
vn -0.236351 0.794085 -0.559971
vn -0.731113 -0.159616 0.663322
vn -0.731113 -0.159616 0.663322
vn -0.731113 -0.159616 0.663322
vn -0.731113 -0.159616 0.663322
vn 0.177678 -0.840283 0.512206
vn 0.177678 -0.840283 0.512206
vn 0.177678 -0.840283 0.512206
vn 0.177678 -0.840283 0.512206
vn 0.177678 -0.840283 0.512206
vn 0.177678 -0.840283 0.512206
vn -0.660056 -0.600061 0.451942
vn -0.660056 -0.600061 0.451942
vn -0.660056 -0.600061 0.451942
vn -0.660056 -0.600061 0.451942
vn -0.660056 -0.600061 0.451942
vn 0.085288 0.532770 -0.841951
vn 0.085288 0.532770 -0.841951
vn 0.085288 0.532770 -0.841951
vn 0.085288 0.532770 -0.841951
vn 0.085288 0.532770 -0.841951
vn 0.085288 0.532770 -0.841951
vn 0.085288 0.532770 -0.841951
vn -0.852350 -0.026287 -0.522311
vn -0.852350 -0.026287 -0.522311
vn -0.852350 -0.026287 -0.522311
vn -0.852350 -0.026287 -0.522311
vn -0.852350 -0.026287 -0.522311
vn -0.852350 -0.026287 -0.522311
vn -0.386269 -0.889007 -0.245890
vn -0.386269 -0.889007 -0.245890
vn -0.386269 -0.889007 -0.245890
vn -0.386269 -0.889007 -0.245890
vn -0.386269 -0.889007 -0.245890
vn -0.386269 -0.889007 -0.245890
vn 0.571510 -0.343865 -0.745073
vn 0.571510 -0.343865 -0.745073
vn 0.571510 -0.343865 -0.745073
vn 0.571510 -0.343865 -0.745073
vn 0.571510 -0.343865 -0.745073
vn 0.571510 -0.343864 -0.745073
vn 0.484139 0.317591 0.815319
vn 0.484139 0.317591 0.815319
vn 0.484139 0.317591 0.815319
vn 0.484139 0.317591 0.815319
vn 0.307815 0.604217 0.734964
vn 0.307815 0.604217 0.734964
vn 0.307815 0.604217 0.734964
vn 0.307815 0.604217 0.734964
vn 0.307815 0.604217 0.734964
vn 0.307815 0.604217 0.734964
vn 0.307815 0.604217 0.734964
vn 0.363955 0.900358 0.238520
vn 0.363955 0.900358 0.238520
vn 0.363955 0.900358 0.238520
f 2/2/1 28/32/2 29/33/3 23/25/4 22/23/5
f 3/4/6 12/13/7 20/21/8 17/18/9 1/1/10
f 3/4/11 4/5/12 13/14/13 12/13/14
f 5/6/15 6/7/16 7/8/17
f 8/9/18 9/10/19 11/12/20 16/17/21 14/15/22 5/6/23 7/8/24 4/5/25 3/4/26 1/1/27
f 8/9/28 18/19/29 19/20/30 31/36/31 30/35/32 9/10/33
f 10/11/34 33/39/35 32/38/36 2/3/37 22/24/38 25/28/39
f 10/11/40 15/16/41 16/17/42 11/12/43 34/40/44 33/39/45
f 14/15/46 16/17/47 15/16/48
f 17/18/49 18/19/50 8/9/51 1/1/52
f 19/20/53 21/22/54 27/30/55 23/26/56 29/34/57 31/36/58
f 17/18/59 20/21/60 21/22/61 19/20/62 18/19/63
f 25/28/64 24/27/65 6/7/66 5/6/67 14/15/68 15/16/69 10/11/70
f 24/27/71 26/29/72 13/14/73 4/5/74 7/8/75 6/7/76
f 26/29/77 27/30/78 21/22/79 20/21/80 12/13/81 13/14/82
f 22/23/83 23/26/84 27/30/85 26/29/86 24/27/87 25/28/88
f 29/33/89 28/31/90 30/35/91 31/36/92
f 32/37/93 34/41/94 11/12/95 9/10/96 30/35/97 28/31/98 2/3/99
f 32/38/100 33/39/101 34/41/102
