# This file uses centimeters as units for non-parametric coordinates.

v -9.500000 -9.500000 -3.455268
v -9.500000 -4.527477 -5.089722
v -7.720762 -9.500000 -3.449694
v -8.799269 -4.661752 -5.043390
v -8.071810 -0.892413 -0.532160
v -9.500000 -1.478002 -2.445485
v -9.500000 -0.695633 -0.974445
v -9.368085 -0.689722 -0.964915
v -9.120663 -1.386538 -2.278065
v -6.481740 -2.811230 2.170571
v -5.382845 -3.190655 0.675362
v -6.174497 -2.404532 -2.476457
v -7.355883 -7.893954 -3.976453
v -6.557997 -2.798412 -2.907073
v -8.351711 -4.986658 -4.935192
v -5.625703 -2.294856 -1.878657
v -5.522651 -2.400069 -1.771506
v -9.500000 -9.500000 2.418970
v -7.027217 -9.500000 1.300079
v -9.500000 -4.929309 4.530988
v -7.380020 -4.228058 3.895766
v -5.948958 -6.144323 2.362771
vt 0.204536 0.000000
vt 0.375000 0.829536
vt 0.191385 0.073783
vt 0.183030 0.065428
vt 0.268053 0.195241
vt 0.398411 0.829609
vt 0.199364 0.070165
vt 0.262458 0.125150
vt 0.231302 0.119032
vt 0.217823 0.105553
vt 0.237178 0.115847
vt 0.239101 0.117023
vt 0.225023 0.106763
vt 0.237770 0.119509
vt 0.319301 0.284301
vt 0.314401 0.106723
vt 0.261229 0.093419
vt 0.265380 0.097569
vt 0.251795 0.146083
vt 0.254895 0.092615
vt 0.251590 0.089310
vt 0.207372 0.074600
vt 0.276984 0.107019
vt 0.279790 0.106347
vt 0.281829 0.000000
vt 0.375000 0.906829
vt 0.407537 0.892106
vt 0.324992 0.490416
vt 0.309618 0.060141
vt 0.329876 0.207239
vt 0.336082 0.373035
vn 0.000000 -1.000000 0.000000
vn 0.000000 -1.000000 0.000000
vn 0.000000 -1.000000 0.000000
vn 0.000000 -1.000000 0.000000
vn 0.002976 -0.312260 -0.949992
vn 0.002976 -0.312260 -0.949992
vn 0.002976 -0.312260 -0.949992
vn 0.002976 -0.312260 -0.949992
vn 0.002976 -0.312260 -0.949992
vn 0.002976 -0.312260 -0.949992
vn 0.462427 0.368421 -0.806491
vn 0.462427 0.368421 -0.806491
vn 0.462427 0.368421 -0.806491
vn 0.172848 0.645262 -0.744151
vn 0.172848 0.645262 -0.744151
vn 0.172848 0.645262 -0.744151
vn 0.172848 0.645262 -0.744151
vn 0.172848 0.645262 -0.744151
vn 0.172848 0.645262 -0.744151
vn 0.273028 0.870127 -0.410285
vn 0.273028 0.870127 -0.410285
vn 0.273028 0.870127 -0.410285
vn 0.273028 0.870127 -0.410285
vn 0.273028 0.870127 -0.410285
vn -0.005637 0.882882 -0.469560
vn -0.005637 0.882882 -0.469560
vn -0.005637 0.882882 -0.469560
vn -0.005637 0.882882 -0.469560
vn 0.954769 -0.262641 -0.139412
vn 0.954769 -0.262641 -0.139412
vn 0.954769 -0.262641 -0.139412
vn 0.954769 -0.262641 -0.139412
vn 0.954769 -0.262641 -0.139412
vn 0.954769 -0.262641 -0.139412
vn 0.574035 0.788199 0.221870
vn 0.574035 0.788199 0.221870
vn 0.574035 0.788199 0.221870
vn 0.574035 0.788199 0.221870
vn 0.574035 0.788199 0.221870
vn 0.733855 0.027535 -0.678747
vn 0.733855 0.027535 -0.678747
vn 0.733855 0.027535 -0.678747
vn 0.733855 0.027535 -0.678747
vn 0.733855 0.027535 -0.678747
vn 0.733855 0.027535 -0.678747
vn -1.000000 0.000000 0.000000
vn -1.000000 0.000000 0.000000
vn -1.000000 0.000000 0.000000
vn -1.000000 0.000000 0.000000
vn -1.000000 0.000000 0.000000
vn -1.000000 0.000000 0.000000
vn -0.079308 0.790216 0.607675
vn -0.079308 0.790216 0.607675
vn -0.079308 0.790216 0.607675
vn -0.079308 0.790216 0.607675
vn -0.079308 0.790216 0.607675
vn -0.079308 0.790216 0.607675
vn 0.814305 0.162299 0.557284
vn 0.814305 0.162299 0.557284
vn 0.814305 0.162299 0.557284
vn 0.814306 0.162299 0.557284
vn 0.379948 -0.388006 0.839697
vn 0.379948 -0.388006 0.839697
vn 0.379948 -0.388006 0.839697
vn 0.379948 -0.388006 0.839697
vn 0.379948 -0.388006 0.839697
f 1/2/1 3/6/2 19/27/3 18/26/4
f 1/1/5 2/3/6 4/7/7 15/22/8 13/19/9 3/5/10
f 4/7/11 14/21/12 15/22/13
f 6/9/14 9/14/15 12/18/16 14/20/17 4/7/18 2/3/19
f 9/13/20 8/12/21 5/8/22 16/23/23 12/17/24
f 6/10/25 7/11/26 8/12/27 9/14/28
f 11/16/29 22/31/30 19/28/31 3/5/32 13/19/33 17/24/34
f 17/24/35 16/23/36 5/8/37 10/15/38 11/16/39
f 13/19/40 15/22/41 14/20/42 12/17/43 16/23/44 17/24/45
f 18/25/46 20/29/47 7/11/48 6/10/49 2/4/50 1/1/51
f 20/29/52 21/30/53 10/15/54 5/8/55 8/12/56 7/11/57
f 21/30/58 22/31/59 11/16/60 10/15/61
f 18/26/62 19/28/63 22/31/64 21/30/65 20/29/66
