# This file uses centimeters as units for non-parametric coordinates.

v 9.500000 6.930775 -3.407217
v 6.725298 5.978176 -1.590004
v 9.500000 1.374932 -6.415656
v 9.500000 4.006407 1.842022
v 5.637395 4.772576 -1.328090
v 9.500000 3.191820 1.258570
v 5.729851 3.818400 -1.922507
v 9.500000 7.031864 0.009242
v 8.020381 6.496716 0.060022
v 9.500000 4.266084 1.821849
v 9.182035 4.291973 1.740426
v 7.177861 5.402576 0.606298
vt 0.794832 0.216194
vt 0.748359 0.330279
vt 0.663476 0.369651
vt 0.834417 0.143091
vt 0.687448 0.503877
vt 0.707694 0.222073
vt 0.725763 0.177716
vt 0.633776 0.389101
vt 0.633776 0.374658
vt 0.733440 0.166998
vt 0.718821 0.202885
vt 0.649400 0.363097
vt 0.629175 0.412747
vt 0.749878 0.217524
vt 0.715707 0.301411
vt 0.679219 0.330165
vt 0.707083 0.227640
vt 0.726028 0.181133
vt 0.699168 0.240237
vt 0.652990 0.337367
vt 0.652990 0.341051
vn -0.340829 0.939714 -0.027805
vn -0.340829 0.939714 -0.027805
vn -0.340829 0.939714 -0.027805
vn -0.340829 0.939714 -0.027805
vn -0.669819 0.672714 0.314323
vn -0.669819 0.672714 0.314323
vn -0.669819 0.672714 0.314323
vn -0.669819 0.672714 0.314323
vn -0.594523 0.382873 -0.707072
vn -0.594523 0.382873 -0.707072
vn -0.594523 0.382873 -0.707072
vn -0.594523 0.382873 -0.707072
vn -0.594523 0.382873 -0.707072
vn -0.335474 -0.916708 0.217032
vn -0.335474 -0.916708 0.217032
vn -0.335474 -0.916708 0.217032
vn -0.616366 -0.458536 0.640186
vn -0.616366 -0.458536 0.640186
vn -0.616366 -0.458536 0.640186
vn -0.616366 -0.458536 0.640186
vn -0.616366 -0.458536 0.640186
vn -0.616366 -0.458536 0.640186
vn 1.000000 0.000000 0.000000
vn 1.000000 0.000000 0.000000
vn 1.000000 0.000000 0.000000
vn 1.000000 0.000000 0.000000
vn 1.000000 0.000000 0.000000
vn 1.000000 0.000000 0.000000
vn -0.241622 0.075157 0.967456
vn -0.241622 0.075157 0.967456
vn -0.241622 0.075157 0.967456
vn -0.167161 0.540429 0.824617
vn -0.167161 0.540429 0.824617
vn -0.167161 0.540429 0.824617
vn -0.167161 0.540429 0.824617
vn -0.167161 0.540429 0.824617
f 2/3/1 9/16/2 8/15/3 1/2/4
f 2/3/5 5/9/6 12/20/7 9/16/8
f 3/5/9 7/13/10 5/8/11 2/3/12 1/2/13
f 3/4/14 6/11/15 7/12/16
f 6/10/17 4/6/18 11/19/19 12/21/20 5/8/21 7/12/22
f 8/14/23 10/18/24 4/7/25 6/10/26 3/4/27 1/1/28
f 10/17/29 11/19/30 4/6/31
f 8/15/32 9/16/33 12/21/34 11/19/35 10/18/36
