# This file uses centimeters as units for non-parametric coordinates.

v 6.725298 5.978175 -1.590003
v 6.007859 6.857818 -2.216814
v 5.844474 9.500000 -1.758446
v 1.394880 9.500000 -0.079894
v 4.968759 5.561620 2.461232
v 3.740273 4.452991 -1.722491
v 3.670557 4.450525 -1.696561
v 5.637395 4.772576 -1.328089
v 8.081207 9.500000 0.870846
v 8.020381 6.496715 0.060022
v 3.882802 9.500000 5.178314
v 4.580085 7.270566 3.814690
v 7.177859 5.402575 0.606298
v 5.752490 5.577844 2.119655
vt 0.689735 0.248338
vt 0.646489 0.291583
vt 0.676990 0.271464
vt 0.622563 0.325891
vt 0.576901 0.398137
vt 0.609205 0.365834
vt 0.532593 0.361812
vt 0.518354 0.376051
vt 0.594088 0.272510
vt 0.611340 0.285728
vt 0.596367 0.300700
vt 0.594075 0.301892
vt 0.593940 0.302027
vt 0.627983 0.286255
vt 0.658705 0.255533
vt 0.606332 0.363541
vt 0.674915 0.294958
vt 0.682856 0.257368
vt 0.554155 0.303799
vt 0.551090 0.306864
vt 0.577475 0.284162
vt 0.663339 0.251322
vt 0.617388 0.263017
vn 0.251804 -0.416955 -0.873352
vn 0.251804 -0.416955 -0.873352
vn 0.251804 -0.416955 -0.873352
vn 0.251804 -0.416955 -0.873352
vn 0.000000 1.000000 0.000000
vn 0.000000 1.000000 0.000000
vn 0.000000 1.000000 0.000000
vn 0.000000 1.000000 0.000000
vn -0.349525 0.139123 -0.926540
vn -0.349525 0.139123 -0.926540
vn -0.349525 0.139123 -0.926540
vn -0.349525 0.139123 -0.926540
vn -0.349525 0.139123 -0.926540
vn -0.793933 -0.478077 0.375650
vn -0.793933 -0.478077 0.375650
vn -0.793933 -0.478077 0.375650
vn -0.793933 -0.478077 0.375650
vn -0.793933 -0.478077 0.375650
vn 0.116872 -0.967975 0.222182
vn 0.116872 -0.967975 0.222182
vn 0.116872 -0.967975 0.222182
vn 0.116872 -0.967975 0.222182
vn 0.116872 -0.967975 0.222182
vn 0.116872 -0.967975 0.222182
vn 0.752168 0.157517 -0.639868
vn 0.752168 0.157517 -0.639868
vn 0.752168 0.157517 -0.639868
vn 0.752168 0.157517 -0.639868
vn 0.752168 0.157517 -0.639868
vn 0.669819 -0.672714 -0.314323
vn 0.669819 -0.672714 -0.314323
vn 0.669819 -0.672714 -0.314323
vn 0.669819 -0.672714 -0.314323
vn 0.347457 -0.532339 0.771938
vn 0.347457 -0.532339 0.771939
vn 0.347457 -0.532339 0.771938
vn 0.701808 -0.198890 0.684039
vn 0.701808 -0.198890 0.684039
vn 0.701808 -0.198890 0.684039
vn 0.701808 -0.198890 0.684039
vn 0.701808 -0.198890 0.684039
vn 0.701808 -0.198890 0.684039
f 1/1/1 8/15/2 6/10/3 2/3/4
f 3/5/5 4/8/6 11/20/7 9/16/8
f 3/6/9 2/3/10 6/11/11 7/13/12 4/8/13
f 7/12/14 5/9/15 12/21/16 11/19/17 4/7/18
f 6/10/19 8/14/20 13/22/21 14/23/22 5/9/23 7/13/24
f 9/17/25 10/18/26 1/2/27 2/4/28 3/6/29
f 10/18/30 13/22/31 8/14/32 1/2/33
f 14/23/34 12/21/35 5/9/36
f 9/16/37 11/19/38 12/21/39 14/23/40 13/22/41 10/18/42
