# This file uses centimeters as units for non-parametric coordinates.

v -9.500000 4.086207 9.500000
v -7.475826 3.713063 0.232094
v -8.071809 -0.892413 -0.532160
v -9.500000 3.787845 -0.062308
v -8.098391 3.732110 0.014833
v -9.368086 -0.689722 -0.964915
v -9.500000 -0.695633 -0.974445
v -6.397817 -2.743221 2.305312
v -6.481740 -2.811230 2.170571
v -5.100429 -1.848442 8.123162
v -5.561712 -2.281275 9.499999
v -5.372918 -2.676878 7.464522
v -9.500000 -4.929309 4.530988
v -9.500000 -4.443567 9.500000
v -7.380020 -4.228058 3.895766
v -5.989511 -3.179535 9.500000
v -5.745265 -3.234152 8.041620
v -5.006612 -0.887032 7.755281
v -6.354474 3.724028 2.074387
v -5.476342 1.071716 3.641406
v -5.662452 0.613340 9.500000
v -6.896706 3.978215 9.500000
vt 0.375000 0.178766
vt 0.309246 0.222704
vt 0.289100 0.155970
vt 0.249180 0.174840
vt 0.289104 0.207931
vt 0.241562 0.119870
vt 0.237178 0.115847
vt 0.350200 0.315713
vt 0.350200 0.151433
vt 0.346949 0.147725
vt 0.346949 0.309994
vt 0.431225 0.183225
vt 0.431225 0.656361
vt 0.426820 0.094983
vt 0.426820 0.715050
vt 0.417828 0.637458
vt 0.417828 0.179418
vt 0.309618 0.060141
vt 0.375000 0.066532
vt 0.349295 0.225286
vt 0.349295 0.111310
vt 0.421191 0.083164
vt 0.416182 0.474847
vt 0.416182 0.146671
vt 0.432015 0.217931
vt 0.432015 0.607295
vt 0.355200 0.276205
vt 0.354921 0.275925
vt 0.389473 0.334821
vt 0.389473 0.267224
vt 0.425494 0.133070
vt 0.425494 0.600789
vt 0.409254 0.177345
vt 0.409254 0.382320
vn -1.000000 0.000000 0.000000
vn -1.000000 0.000000 0.000000
vn -1.000000 0.000000 0.000000
vn -1.000000 0.000000 0.000000
vn -1.000000 0.000000 0.000000
vn 0.041427 0.998656 -0.031160
vn 0.041427 0.998656 -0.031160
vn 0.041427 0.998656 -0.031160
vn 0.041427 0.998656 -0.031160
vn 0.041427 0.998656 -0.031160
vn 0.041427 0.998656 -0.031160
vn 0.330461 0.112736 -0.937062
vn 0.330461 0.112736 -0.937062
vn 0.330461 0.112736 -0.937062
vn 0.330461 0.112736 -0.937062
vn 0.079308 -0.790216 -0.607676
vn 0.079308 -0.790216 -0.607676
vn 0.079308 -0.790216 -0.607676
vn 0.079308 -0.790216 -0.607676
vn 0.079308 -0.790216 -0.607676
vn 0.079308 -0.790216 -0.607676
vn 0.061742 0.198980 -0.978057
vn 0.061742 0.198980 -0.978057
vn 0.061742 0.198980 -0.978057
vn 0.061742 0.198980 -0.978057
vn 0.944528 0.032872 0.326780
vn 0.944528 0.032872 0.326780
vn 0.944529 0.032872 0.326780
vn 0.944528 0.032872 0.326780
vn 0.967448 -0.167124 -0.190038
vn 0.967448 -0.167124 -0.190038
vn 0.967448 -0.167124 -0.190038
vn 0.967448 -0.167124 -0.190038
vn 0.967448 -0.167124 -0.190038
vn 0.890462 -0.424084 0.165014
vn 0.890462 -0.424084 0.165014
vn 0.890462 -0.424084 0.165014
vn 0.890462 -0.424084 0.165014
vn 0.890462 -0.424084 0.165014
vn 0.000000 -0.000000 1.000000
vn 0.000000 -0.000000 1.000000
vn 0.000000 -0.000000 1.000000
vn 0.000000 -0.000000 1.000000
vn 0.000000 -0.000000 1.000000
vn 0.000000 -0.000000 1.000000
vn 0.749762 -0.646591 -0.140629
vn 0.749762 -0.646591 -0.140629
vn 0.749762 -0.646591 -0.140629
vn 0.749762 -0.646591 -0.140629
vn 0.749762 -0.646591 -0.140629
vn 0.337356 -0.936911 0.091587
vn 0.337356 -0.936911 0.091587
vn 0.337356 -0.936911 0.091587
vn 0.337356 -0.936911 0.091587
vn 0.337356 -0.936911 0.091587
vn 0.854020 -0.024280 -0.519674
vn 0.854020 -0.024280 -0.519673
vn 0.854020 -0.024280 -0.519673
vn 0.854020 -0.024280 -0.519673
vn 0.854020 -0.024280 -0.519674
vn 0.854020 -0.024280 -0.519673
vn 0.937325 0.343816 0.056676
vn 0.937325 0.343816 0.056676
vn 0.937325 0.343816 0.056676
vn 0.937325 0.343816 0.056676
vn 0.937325 0.343816 0.056676
f 1/1/1 4/4/2 7/7/3 13/18/4 14/19/5
f 1/1/6 22/34/7 19/27/8 2/2/9 5/5/10 4/4/11
f 3/3/12 6/6/13 5/5/14 2/2/15
f 3/3/16 9/11/17 15/20/18 13/18/19 7/7/20 6/6/21
f 7/7/22 4/4/23 5/5/24 6/6/25
f 11/15/26 10/13/27 18/26/28 21/32/29
f 10/12/30 12/17/31 8/8/32 20/29/33 18/25/34
f 11/14/35 16/22/36 17/24/37 12/17/38 10/13/39
f 14/19/40 16/22/41 11/14/42 21/31/43 22/33/44 1/1/45
f 17/23/46 15/21/47 9/10/48 8/8/49 12/16/50
f 14/19/51 13/18/52 15/21/53 17/24/54 16/22/55
f 19/28/56 20/30/57 8/9/58 9/10/59 3/3/60 2/2/61
f 19/27/62 22/33/63 21/32/64 18/25/65 20/30/66
