# This file uses centimeters as units for non-parametric coordinates.

v 4.718411 -0.488606 -9.500000
v 0.919018 0.005881 -7.075399
v 3.250779 5.999550 -9.500000
v 3.809690 -0.811316 -6.586261
v 2.837871 6.836719 -7.807823
v 2.786265 3.967474 -2.504064
v -2.200449 1.246152 -9.500000
v -2.382213 1.190880 -8.966291
v -0.897729 4.951502 -9.500000
v -2.233572 2.241534 -6.038193
v -2.732570 2.372116 -6.448996
v 1.345385 4.103166 -2.075605
v 0.365181 8.045772 -4.511950
v 1.637614 5.314574 -2.393592
v -1.388601 7.120016 -5.379522
v -1.985451 3.634066 -4.287374
v -2.701444 3.813363 -4.885384
v 4.546778 -0.787903 -7.688253
v 3.322418 2.122010 -3.402665
v 4.132036 -0.832247 -6.903228
v 3.891238 -0.565097 -6.257872
v 3.174633 2.535999 -2.992823
v 2.767308 3.248411 -2.363972
v 2.894818 3.451315 -2.441974
vt 0.562084 0.631429
vt 0.719305 0.289061
vt 0.583349 0.394909
vt 0.527502 0.516524
vt 0.542773 0.546059
vt 0.670197 0.282633
vt 0.576092 0.487557
vt 0.533012 0.505235
vt 0.556876 0.339888
vt 0.564033 0.347044
vt 0.471047 0.608603
vt 0.494018 0.558581
vt 0.473111 0.583153
vt 0.485404 0.556383
vt 0.488188 0.559849
vt 0.477210 0.497365
vt 0.468916 0.511075
vt 0.537705 0.336830
vt 0.539026 0.338151
vt 0.483583 0.421187
vt 0.529377 0.347420
vt 0.534546 0.352589
vt 0.463272 0.449227
vt 0.478926 0.437011
vt 0.477499 0.435583
vt 0.464578 0.459779
vt 0.701062 0.270689
vt 0.576772 0.541348
vt 0.570343 0.368160
vt 0.574538 0.372355
vt 0.682522 0.275166
vt 0.628590 0.392610
vt 0.578102 0.475173
vt 0.643726 0.332269
vt 0.568184 0.353094
vt 0.572938 0.357848
vt 0.566668 0.336968
vt 0.566827 0.337127
vt 0.561940 0.334667
vt 0.568109 0.340836
vn 0.967361 0.218819 0.127790
vn 0.967361 0.218819 0.127790
vn 0.967361 0.218819 0.127790
vn 0.967361 0.218819 0.127790
vn 0.967361 0.218819 0.127790
vn 0.967361 0.218819 0.127790
vn 0.967361 0.218819 0.127790
vn 0.967361 0.218819 0.127790
vn -0.239216 -0.954084 -0.180275
vn -0.239216 -0.954084 -0.180275
vn -0.239216 -0.954084 -0.180275
vn -0.239216 -0.954084 -0.180275
vn -0.239216 -0.954084 -0.180275
vn -0.239216 -0.954084 -0.180275
vn -0.239216 -0.954084 -0.180275
vn -0.476481 -0.819559 0.318260
vn -0.476481 -0.819559 0.318260
vn -0.476481 -0.819559 0.318260
vn -0.476481 -0.819559 0.318260
vn 0.295737 0.175159 0.939073
vn 0.295737 0.175159 0.939073
vn 0.295737 0.175159 0.939073
vn 0.295737 0.175159 0.939073
vn 0.295737 0.175159 0.939073
vn 0.731513 0.596693 0.329919
vn 0.731513 0.596693 0.329919
vn 0.731513 0.596693 0.329919
vn 0.731513 0.596693 0.329919
vn 0.000000 0.000000 -1.000000
vn 0.000000 0.000000 -1.000000
vn 0.000000 0.000000 -1.000000
vn 0.000000 0.000000 -1.000000
vn -0.906801 0.318811 -0.275810
vn -0.906801 0.318811 -0.275810
vn -0.906801 0.318811 -0.275810
vn -0.906801 0.318811 -0.275810
vn -0.906801 0.318811 -0.275810
vn -0.906801 0.318811 -0.275810
vn -0.602584 -0.580791 0.547334
vn -0.602584 -0.580791 0.547334
vn -0.602583 -0.580791 0.547334
vn -0.602584 -0.580791 0.547334
vn -0.215573 0.853307 -0.474757
vn -0.215573 0.853307 -0.474757
vn -0.215573 0.853307 -0.474757
vn -0.215573 0.853307 -0.474757
vn -0.215573 0.853307 -0.474757
vn -0.308917 -0.722546 0.618464
vn -0.308917 -0.722546 0.618464
vn -0.308917 -0.722546 0.618464
vn -0.308917 -0.722546 0.618464
vn -0.308917 -0.722546 0.618464
vn -0.308917 -0.722546 0.618464
vn -0.308917 -0.722546 0.618464
vn -0.308917 -0.722546 0.618464
vn -0.308917 -0.722546 0.618464
vn -0.553623 0.333816 0.762934
vn -0.553623 0.333816 0.762934
vn -0.553623 0.333816 0.762934
vn -0.553623 0.333816 0.762934
vn -0.553623 0.333816 0.762934
vn -0.553623 0.333816 0.762934
vn 0.418043 -0.773599 0.476220
vn 0.418043 -0.773599 0.476220
vn 0.418043 -0.773599 0.476220
vn 0.854795 -0.281983 0.435674
vn 0.854795 -0.281983 0.435674
vn 0.854795 -0.281983 0.435674
vn 0.854795 -0.281983 0.435674
vn 0.713018 -0.188457 0.675343
vn 0.713018 -0.188457 0.675343
vn 0.713018 -0.188457 0.675343
f 1/1/1 3/5/2 5/8/3 6/9/4 24/39/5 22/35/6 19/29/7 18/28/8
f 2/3/9 8/14/10 7/12/11 1/2/12 18/27/13 20/31/14 4/6/15
f 2/4/16 10/16/17 11/17/18 8/13/19
f 6/10/20 14/22/21 12/19/22 23/38/23 24/40/24
f 6/9/25 5/8/26 13/20/27 14/21/28
f 7/11/29 9/15/30 3/5/31 1/1/32
f 7/12/33 8/13/34 11/17/35 17/26/36 15/23/37 9/15/38
f 11/17/39 10/16/40 16/24/41 17/26/42
f 15/23/43 13/20/44 5/8/45 3/5/46 9/15/47
f 12/18/48 16/25/49 10/16/50 2/4/51 4/7/52 21/33/53 19/30/54 22/36/55 23/37/56
f 15/23/57 17/26/58 16/25/59 12/19/60 14/21/61 13/20/62
f 20/32/63 21/34/64 4/6/65
f 18/28/66 19/30/67 21/34/68 20/31/69
f 22/35/70 24/40/71 23/37/72
