# This file uses centimeters as units for non-parametric coordinates.

v -3.708406 -9.500000 -9.500000
v -3.822681 -6.951203 -9.500000
v -3.976856 -6.850819 -9.143020
v -1.161519 -9.500000 -0.957172
v -0.425289 -6.528041 -1.294329
v 2.591317 -9.500000 -9.500000
v 2.724417 -5.588300 -9.500000
v 3.674246 -9.500000 -6.418556
v 3.566513 -4.560686 -7.203338
v 3.872353 -6.507627 -6.144574
v -5.732778 -9.500000 -4.671772
v -5.465051 -9.500000 -4.031113
v -3.585930 -6.212213 -7.641506
v -4.409204 -6.819041 -8.115246
v 0.255032 -4.013593 -3.871602
v -0.606956 -5.751208 -1.649677
vt 0.451205 0.750000
vt 0.449702 0.716463
vt 0.274403 0.209123
vt 0.272884 0.200247
vt 0.437304 0.676101
vt 0.510292 0.563393
vt 0.484717 0.862406
vt 0.468605 0.399840
vt 0.455916 0.548199
vt 0.534096 0.750000
vt 0.535848 0.698530
vt 0.446695 0.440510
vt 0.548345 0.790545
vt 0.481402 0.438845
vt 0.484658 0.448268
vt 0.521335 0.595348
vt 0.425357 0.804308
vt 0.424569 0.813529
vt 0.430330 0.795792
vt 0.428091 0.821959
vt 0.413383 0.546458
vt 0.291782 0.194526
vt 0.411471 0.603376
vt 0.411417 0.604011
vt 0.412459 0.276223
vt 0.420438 0.299316
vt 0.447637 0.354389
vt 0.438555 0.460569
vn 0.000000 0.000000 -1.000000
vn 0.000000 0.000000 -1.000000
vn 0.000000 0.000000 -1.000000
vn 0.000000 0.000000 -1.000000
vn -0.191549 0.920162 -0.341482
vn -0.191549 0.920163 -0.341482
vn -0.191549 0.920162 -0.341482
vn -0.191549 0.920162 -0.341482
vn -0.191549 0.920162 -0.341482
vn -0.191549 0.920163 -0.341482
vn -0.487576 0.841930 -0.231137
vn -0.487576 0.841930 -0.231137
vn -0.487576 0.841930 -0.231137
vn 0.000000 -1.000000 0.000000
vn 0.000000 -1.000000 0.000000
vn 0.000000 -1.000000 0.000000
vn 0.000000 -1.000000 0.000000
vn 0.000000 -1.000000 0.000000
vn 0.000000 -1.000000 0.000000
vn 0.744177 -0.109599 0.658929
vn 0.744177 -0.109599 0.658930
vn 0.744177 -0.109599 0.658930
vn 0.744177 -0.109599 0.658930
vn 0.674197 0.431759 0.599201
vn 0.674197 0.431759 0.599201
vn 0.674197 0.431759 0.599201
vn 0.674197 0.431759 0.599201
vn 0.674197 0.431759 0.599201
vn 0.942949 -0.032085 -0.331386
vn 0.942950 -0.032085 -0.331386
vn 0.942949 -0.032085 -0.331386
vn 0.942949 -0.032085 -0.331386
vn 0.942950 -0.032085 -0.331386
vn -0.921432 -0.041313 -0.386337
vn -0.921432 -0.041313 -0.386337
vn -0.921432 -0.041313 -0.386337
vn -0.921432 -0.041313 -0.386337
vn -0.921432 -0.041313 -0.386337
vn -0.565659 0.229969 0.791925
vn -0.565659 0.229969 0.791925
vn -0.565659 0.229969 0.791925
vn -0.565659 0.229969 0.791925
vn -0.668684 0.689040 0.279437
vn -0.668684 0.689040 0.279437
vn -0.668684 0.689040 0.279437
vn -0.668684 0.689040 0.279437
vn -0.668684 0.689040 0.279437
vn -0.668684 0.689040 0.279437
f 1/1/1 2/2/2 7/11/3 6/10/4
f 3/4/5 13/22/6 15/25/7 9/14/8 7/12/9 2/3/10
f 3/5/11 14/24/12 13/21/13
f 6/10/14 8/13/15 4/7/16 12/20/17 11/18/18 1/1/19
f 8/13/20 10/16/21 5/9/22 4/7/23
f 10/16/24 9/15/25 15/26/26 16/28/27 5/9/28
f 6/10/29 7/12/30 9/15/31 10/16/32 8/13/33
f 11/17/34 14/23/35 3/5/36 2/2/37 1/1/38
f 16/27/39 12/19/40 4/6/41 5/8/42
f 11/18/43 12/19/44 16/28/45 15/25/46 13/21/47 14/23/48
