# This file uses centimeters as units for non-parametric coordinates.

v 5.215304 -1.431478 9.500000
v -5.561712 -2.281274 9.500000
v -5.100430 -1.848443 8.123164
v 4.461389 -2.341114 9.500000
v 4.904049 -1.447794 6.667959
v 1.938293 1.019152 2.863692
v 2.466591 1.655719 3.599160
v 4.386229 -0.945210 5.089118
v 2.363725 -0.278635 3.020315
v 1.216930 4.510721 9.500000
v 0.743084 4.623901 6.004791
v -5.006612 -0.887031 7.755282
v 1.131471 1.563559 3.184939
v -5.662452 0.613339 9.500001
v -3.584707 3.612776 9.500001
v 0.561663 4.594169 5.932114
vt 0.568622 0.106165
vt 0.568622 0.264319
vt 0.426820 0.094983
vt 0.440517 0.117891
vt 0.558702 0.094196
vt 0.558702 0.347259
vt 0.575948 0.343401
vt 0.576414 0.342936
vt 0.557560 0.386551
vt 0.542632 0.401479
vt 0.548176 0.383704
vt 0.574449 0.380465
vt 0.574210 0.380704
vt 0.560623 0.396303
vt 0.552390 0.404537
vt 0.516012 0.184352
vt 0.516012 0.212890
vt 0.509351 0.266511
vt 0.443790 0.135140
vt 0.546665 0.357229
vt 0.527931 0.375962
vt 0.425494 0.133070
vt 0.452833 0.181414
vt 0.452833 0.172537
vt 0.506671 0.266057
vn 0.767421 -0.636047 -0.080679
vn 0.767421 -0.636047 -0.080679
vn 0.767421 -0.636047 -0.080679
vn -0.005692 -0.953409 -0.301627
vn -0.005692 -0.953409 -0.301627
vn -0.005692 -0.953409 -0.301627
vn -0.005692 -0.953409 -0.301627
vn -0.005692 -0.953409 -0.301627
vn -0.005692 -0.953409 -0.301627
vn -0.505635 -0.264847 -0.821090
vn -0.505635 -0.264847 -0.821090
vn -0.505635 -0.264847 -0.821090
vn -0.505635 -0.264847 -0.821090
vn -0.505635 -0.264847 -0.821090
vn 0.731113 0.159616 -0.663322
vn 0.731113 0.159616 -0.663322
vn 0.731113 0.159616 -0.663322
vn 0.731113 0.159616 -0.663322
vn 0.000000 -0.000000 1.000000
vn 0.000000 -0.000000 1.000000
vn 0.000000 -0.000000 1.000000
vn 0.000000 -0.000000 1.000000
vn 0.000000 -0.000000 1.000000
vn 0.000000 -0.000000 1.000000
vn 0.825992 0.555792 -0.093983
vn 0.825992 0.555792 -0.093983
vn 0.825992 0.555792 -0.093983
vn 0.825992 0.555792 -0.093983
vn 0.825992 0.555792 -0.093983
vn 0.825992 0.555792 -0.093983
vn -0.183526 0.981381 0.056659
vn -0.183526 0.981381 0.056659
vn -0.183526 0.981381 0.056659
vn -0.183526 0.981381 0.056659
vn -0.944529 -0.032872 -0.326780
vn -0.944529 -0.032872 -0.326780
vn -0.944529 -0.032872 -0.326780
vn -0.944529 -0.032872 -0.326780
vn 0.174338 0.679119 -0.713024
vn 0.174338 0.679119 -0.713024
vn 0.174338 0.679119 -0.713024
vn 0.174338 0.679119 -0.713024
vn 0.174338 0.679119 -0.713024
vn -0.642314 0.444938 -0.624070
vn -0.642314 0.444938 -0.624070
vn -0.642314 0.444938 -0.624070
vn -0.642314 0.444938 -0.624070
vn -0.642314 0.444938 -0.624070
f 4/6/1 5/7/2 1/2/3
f 4/5/4 2/3/5 3/4/6 9/15/7 8/13/8 5/7/9
f 6/9/10 9/14/11 3/4/12 12/19/13 13/20/14
f 6/10/15 7/11/16 8/13/17 9/14/18
f 10/16/19 15/24/20 14/22/21 2/3/22 4/5/23 1/1/24
f 11/18/25 10/17/26 1/2/27 5/8/28 8/12/29 7/11/30
f 10/17/31 11/18/32 16/25/33 15/23/34
f 14/22/35 12/19/36 3/4/37 2/3/38
f 13/21/39 16/25/40 11/18/41 7/11/42 6/10/43
f 14/22/44 15/23/45 16/25/46 13/20/47 12/19/48
