# This file uses centimeters as units for non-parametric coordinates.

v -5.089219 -1.501161 -9.500000
v -8.090317 -4.023452 -9.500000
v -4.133764 -6.657426 -9.500000
v -4.129023 -0.725167 -6.244968
v -5.084690 -1.551077 -3.860534
v -8.799271 -4.661751 -5.043391
v -3.976855 -6.850818 -9.143022
v -2.892175 -2.510397 -3.573556
v -5.119380 -2.173150 -2.579606
v -6.052082 -2.376521 -2.559624
v -8.351710 -4.986658 -4.935193
v -6.557994 -2.798408 -2.907070
v -4.409203 -6.819041 -8.115246
v -3.585929 -6.212212 -7.641506
vt 0.246047 0.168258
vt 0.433037 0.644752
vt 0.163686 0.092198
vt 0.393548 0.677940
vt 0.445608 0.712598
vt 0.379157 0.543264
vt 0.290715 0.167674
vt 0.294894 0.142186
vt 0.202870 0.073671
vt 0.317131 0.364834
vt 0.385743 0.562027
vt 0.362425 0.336217
vt 0.309746 0.169045
vt 0.289501 0.121543
vt 0.323572 0.379271
vt 0.293825 0.160973
vt 0.274817 0.112536
vt 0.382273 0.548918
vt 0.389815 0.538935
vn 0.000000 0.000000 -1.000000
vn 0.000000 0.000000 -1.000000
vn 0.000000 0.000000 -1.000000
vn 0.932761 0.172840 -0.316359
vn 0.932761 0.172840 -0.316359
vn 0.932761 0.172840 -0.316359
vn 0.932761 0.172840 -0.316359
vn 0.932761 0.172840 -0.316359
vn 0.932761 0.172840 -0.316359
vn 0.316696 0.849834 0.421292
vn 0.316696 0.849834 0.421292
vn 0.316696 0.849834 0.421292
vn 0.316696 0.849834 0.421292
vn -0.643380 0.765513 0.007292
vn -0.643380 0.765513 0.007292
vn -0.643380 0.765513 0.007292
vn -0.643380 0.765513 0.007292
vn -0.643380 0.765513 0.007292
vn -0.643380 0.765513 0.007292
vn -0.643380 0.765513 0.007292
vn -0.462427 -0.368423 0.806490
vn -0.462427 -0.368423 0.806490
vn -0.462427 -0.368423 0.806490
vn -0.542612 -0.815070 -0.203057
vn -0.542612 -0.815070 -0.203057
vn -0.542612 -0.815070 -0.203057
vn -0.542612 -0.815070 -0.203057
vn -0.542612 -0.815070 -0.203057
vn -0.542612 -0.815070 -0.203057
vn 0.487575 -0.841930 0.231137
vn 0.487575 -0.841930 0.231137
vn 0.487575 -0.841930 0.231137
vn -0.184099 0.886109 0.425346
vn -0.184099 0.886109 0.425346
vn -0.184099 0.886109 0.425346
vn 0.175809 -0.742827 0.645987
vn 0.175809 -0.742827 0.645987
vn 0.175809 -0.742827 0.645987
vn 0.175809 -0.742827 0.645987
vn 0.175809 -0.742827 0.645987
vn 0.175809 -0.742827 0.645987
vn 0.175809 -0.742827 0.645987
f 3/5/1 2/4/2 1/2/3
f 4/7/4 8/12/5 14/19/6 7/11/7 3/6/8 1/1/9
f 4/7/10 5/8/11 9/13/12 8/12/13
f 6/9/14 12/17/15 10/14/16 5/8/17 4/7/18 1/1/19 2/3/20
f 6/10/21 11/15/22 12/16/23
f 7/11/24 13/18/25 11/15/26 6/10/27 2/4/28 3/6/29
f 7/11/30 14/19/31 13/18/32
f 10/14/33 9/13/34 5/8/35
f 14/19/36 8/12/37 9/13/38 10/14/39 12/16/40 11/15/41 13/18/42
