# This file uses centimeters as units for non-parametric coordinates.

v 2.786265 3.967473 -2.504064
v 1.394880 9.500000 -0.079894
v -2.065028 9.500000 -0.315225
v -1.377553 3.633375 -0.192901
v -0.632555 9.500000 -1.280993
v 1.637615 5.314573 -2.393592
v 1.345384 4.103165 -2.075605
v 1.938293 1.019151 2.863692
v 2.894818 3.451315 -2.441974
v 2.466591 1.655718 3.599160
v 4.968758 5.561620 2.461232
v 1.548911 0.908544 0.461705
v 1.551580 1.053463 -0.269582
v 3.670557 4.450526 -1.696561
v 3.591204 4.353642 -1.800458
v 2.767307 3.248410 -2.363971
v 4.589420 4.861067 3.196032
v 3.488348 9.500000 5.494167
v 0.743084 4.623901 6.004791
v 3.704252 9.500000 5.593529
v 4.580085 7.270563 3.814688
v 3.882801 9.500000 5.178312
v 4.358334 7.879765 4.496348
v 3.852112 9.500000 5.482155
v 1.131471 1.563558 3.184938
v -2.814424 4.733532 0.665975
v -3.563029 6.039706 1.040252
v -0.183341 2.172834 1.805120
v -0.125326 5.096226 5.433291
v 0.561662 4.594170 5.932114
vt 0.576061 0.402721
vt 0.572814 0.405967
vt 0.518354 0.376051
vt 0.472829 0.379148
vt 0.502565 0.325042
vt 0.502600 0.324962
vt 0.491677 0.391855
vt 0.551360 0.399484
vt 0.546525 0.399167
vt 0.565545 0.189766
vt 0.578374 0.404726
vt 0.574808 0.408291
vt 0.568967 0.191489
vt 0.594976 0.268949
vt 0.558498 0.299271
vt 0.558575 0.299095
vt 0.560761 0.313003
vt 0.560830 0.312843
vt 0.592369 0.357905
vt 0.593209 0.357064
vt 0.591932 0.361999
vt 0.591569 0.362362
vt 0.572488 0.408459
vt 0.590805 0.255799
vt 0.545899 0.302708
vt 0.513383 0.231397
vt 0.548740 0.301401
vt 0.576409 0.284426
vt 0.551089 0.306864
vt 0.567970 0.288892
vt 0.550686 0.302866
vt 0.546967 0.200820
vt 0.471407 0.315664
vt 0.453118 0.318868
vt 0.520015 0.282324
vt 0.520227 0.281837
vt 0.498351 0.248964
vt 0.510545 0.232510
vn -0.624311 0.504051 0.596798
vn -0.624311 0.504051 0.596798
vn -0.624311 0.504051 0.596798
vn -0.624311 0.504051 0.596798
vn 0.454941 0.450897 -0.767933
vn 0.454941 0.450897 -0.767933
vn 0.454941 0.450897 -0.767933
vn 0.454941 0.450897 -0.767933
vn 0.454941 0.450897 -0.767933
vn 0.454941 0.450897 -0.767933
vn -0.295737 -0.175159 -0.939073
vn -0.295737 -0.175159 -0.939073
vn -0.295737 -0.175159 -0.939073
vn -0.295737 -0.175159 -0.939073
vn -0.295737 -0.175159 -0.939073
vn -0.557109 -0.082514 -0.826330
vn -0.557109 -0.082514 -0.826330
vn -0.557109 -0.082514 -0.826330
vn -0.557109 -0.082514 -0.826330
vn -0.557109 -0.082514 -0.826330
vn -0.557109 -0.082514 -0.826330
vn -0.557109 -0.082514 -0.826330
vn -0.174339 -0.679118 0.713025
vn -0.174339 -0.679118 0.713025
vn -0.174339 -0.679118 0.713025
vn -0.174339 -0.679118 0.713025
vn -0.174339 -0.679118 0.713025
vn 0.576600 -0.285596 0.765485
vn 0.576600 -0.285596 0.765485
vn 0.576600 -0.285596 0.765485
vn 0.576600 -0.285596 0.765485
vn 0.576600 -0.285596 0.765485
vn 0.576600 -0.285596 0.765485
vn 0.918571 -0.094953 0.383681
vn 0.918571 -0.094953 0.383681
vn 0.918571 -0.094953 0.383681
vn 0.918571 -0.094953 0.383681
vn 0.793933 0.478077 -0.375650
vn 0.793933 0.478077 -0.375650
vn 0.793933 0.478077 -0.375650
vn 0.793933 0.478077 -0.375650
vn 0.793933 0.478077 -0.375650
vn 0.645434 0.044014 -0.762546
vn 0.645434 0.044014 -0.762546
vn 0.645434 0.044014 -0.762547
vn -0.441795 -0.479053 -0.758502
vn -0.441795 -0.479053 -0.758502
vn -0.441795 -0.479053 -0.758502
vn -0.441795 -0.479053 -0.758502
vn 0.822606 -0.558331 -0.107641
vn 0.822606 -0.558331 -0.107641
vn 0.822606 -0.558331 -0.107641
vn 0.822606 -0.558331 -0.107641
vn 0.822606 -0.558331 -0.107641
vn 0.822606 -0.558331 -0.107641
vn 0.822606 -0.558331 -0.107641
vn 0.822606 -0.558331 -0.107641
vn 0.822606 -0.558331 -0.107641
vn 0.822606 -0.558331 -0.107641
vn -0.396950 0.313808 0.862529
vn -0.396950 0.313808 0.862529
vn -0.396949 0.313808 0.862529
vn -0.396950 0.313808 0.862529
vn -0.396950 0.313808 0.862529
vn 0.000000 1.000000 0.000000
vn 0.000000 1.000000 0.000000
vn 0.000000 1.000000 0.000000
vn 0.000000 1.000000 0.000000
vn 0.000000 1.000000 0.000000
vn 0.000000 1.000000 0.000000
vn 0.000000 1.000000 0.000000
vn 0.965297 0.242272 0.097502
vn 0.965297 0.242272 0.097502
vn 0.965297 0.242272 0.097502
vn 0.965297 0.242272 0.097502
vn -0.520853 -0.844690 0.123331
vn -0.520853 -0.844690 0.123331
vn -0.520853 -0.844690 0.123331
vn -0.520853 -0.844690 0.123331
vn -0.655767 -0.740102 -0.149060
vn -0.655767 -0.740102 -0.149060
vn -0.655767 -0.740102 -0.149060
vn -0.655767 -0.740102 -0.149060
vn -0.655767 -0.740102 -0.149060
vn -0.716094 -0.537883 0.444849
vn -0.716094 -0.537883 0.444849
vn -0.716094 -0.537883 0.444849
vn -0.716094 -0.537883 0.444849
vn -0.716094 -0.537883 0.444849
vn -0.716094 -0.537883 0.444849
f 3/4/1 27/34/2 29/37/3 18/25/4
f 6/8/5 5/7/6 2/3/7 14/20/8 15/22/9 1/2/10
f 7/9/11 6/8/12 1/2/13 9/12/14 16/23/15
f 4/6/16 26/33/17 27/34/18 3/4/19 5/7/20 6/8/21 7/9/22
f 8/10/23 10/13/24 19/26/25 30/38/26 25/32/27
f 10/13/28 17/24/29 23/30/30 24/31/31 20/27/32 19/26/33
f 17/24/34 11/14/35 21/28/36 23/30/37
f 11/14/38 14/19/39 2/3/40 22/29/41 21/28/42
f 15/21/43 9/11/44 1/1/45
f 16/23/46 13/17/47 4/5/48 7/9/49
f 8/10/50 12/15/51 13/17/52 16/23/53 9/11/54 15/22/55 14/19/56 11/14/57 17/24/58 10/13/59
f 20/27/60 18/25/61 29/37/62 30/38/63 19/26/64
f 24/31/65 22/29/66 2/3/67 5/7/68 3/4/69 18/25/70 20/27/71
f 24/31/72 23/30/73 21/28/74 22/29/75
f 25/32/76 28/36/77 12/16/78 8/10/79
f 28/35/80 26/33/81 4/6/82 13/18/83 12/15/84
f 25/32/85 30/38/86 29/37/87 27/34/88 26/33/89 28/36/90
