# This file uses centimeters as units for non-parametric coordinates.

v -3.541893 1.261591 -9.500000
v -3.496744 1.212846 -9.051312
v -4.601044 1.883134 -7.730616
v -2.200449 1.246152 -9.500000
v -2.382212 1.190881 -8.966292
v -0.897730 4.951500 -9.500000
v -5.481899 2.472911 -7.975431
v -4.368039 2.405337 -6.571616
v -2.732570 2.372118 -6.448995
v -1.388602 7.120014 -5.379522
v -5.869175 4.830926 -4.696952
v -2.863882 7.486282 -5.279755
v -5.924790 4.947149 -4.704619
v -5.124543 4.203486 -4.697923
v -2.701444 3.813363 -4.885383
v -4.752525 2.057886 -9.500000
v -5.544139 2.521643 -8.159000
v -4.336814 5.688864 -9.500000
v -4.729844 6.125285 -8.796731
v -6.255469 4.768460 -6.621368
vt 0.453396 0.608400
vt 0.531792 0.391228
vt 0.530535 0.384692
vt 0.453990 0.596735
vt 0.439460 0.552295
vt 0.494735 0.399174
vt 0.471047 0.608603
vt 0.496761 0.560184
vt 0.489783 0.554908
vt 0.468806 0.594407
vt 0.488188 0.559849
vt 0.427870 0.551667
vt 0.473206 0.426077
vt 0.472899 0.428087
vt 0.440206 0.518653
vt 0.460752 0.517635
vt 0.464803 0.510006
vt 0.465980 0.452957
vt 0.397283 0.436418
vt 0.388298 0.427433
vt 0.455284 0.421041
vt 0.446187 0.446241
vt 0.399119 0.430324
vt 0.390265 0.421470
vt 0.417119 0.448799
vt 0.428826 0.416368
vt 0.460285 0.459726
vt 0.462334 0.461775
vt 0.437467 0.597923
vt 0.499934 0.424878
vt 0.472525 0.430032
vt 0.443901 0.509325
vt 0.442937 0.550147
vt 0.464315 0.490924
vt 0.458378 0.466482
vt 0.435077 0.531030
vt 0.434387 0.434975
vt 0.431881 0.432468
vn -0.011443 -0.994208 -0.106858
vn -0.011443 -0.994208 -0.106858
vn -0.011443 -0.994209 -0.106858
vn -0.011443 -0.994209 -0.106858
vn -0.549188 -0.834947 -0.035445
vn -0.549188 -0.834947 -0.035445
vn -0.549188 -0.834947 -0.035445
vn -0.549188 -0.834947 -0.035445
vn -0.549188 -0.834947 -0.035445
vn -0.549188 -0.834947 -0.035445
vn -0.581903 -0.691252 0.428438
vn -0.581903 -0.691252 0.428438
vn -0.581903 -0.691252 0.428438
vn -0.581903 -0.691252 0.428438
vn -0.581903 -0.691252 0.428438
vn -0.049803 -0.906810 0.418587
vn -0.049803 -0.906810 0.418587
vn -0.049803 -0.906810 0.418587
vn -0.049803 -0.906810 0.418587
vn -0.049803 -0.906810 0.418587
vn 0.906801 -0.318811 0.275810
vn 0.906801 -0.318811 0.275810
vn 0.906801 -0.318811 0.275810
vn 0.906801 -0.318811 0.275810
vn 0.906801 -0.318811 0.275810
vn 0.906801 -0.318811 0.275810
vn 0.188287 0.878171 -0.439731
vn 0.188287 0.878171 -0.439731
vn 0.188287 0.878171 -0.439731
vn 0.188287 0.878171 -0.439731
vn 0.188287 0.878171 -0.439731
vn -0.890120 -0.413265 0.192091
vn -0.890120 -0.413265 0.192091
vn -0.890120 -0.413265 0.192091
vn -0.890120 -0.413265 0.192091
vn -0.890120 -0.413265 0.192091
vn -0.065648 -0.733055 0.676994
vn -0.065648 -0.733055 0.676994
vn -0.065648 -0.733055 0.676994
vn -0.065648 -0.733055 0.676994
vn 0.094320 0.110406 0.989401
vn 0.094320 0.110406 0.989401
vn 0.094320 0.110406 0.989401
vn 0.094320 0.110406 0.989401
vn 0.094320 0.110406 0.989401
vn 0.094320 0.110406 0.989401
vn 0.000000 0.000000 -1.000000
vn 0.000000 0.000000 -1.000000
vn 0.000000 0.000000 -1.000000
vn 0.000000 0.000000 -1.000000
vn 0.000000 0.000000 -1.000000
vn -0.633849 0.772556 0.037330
vn -0.633849 0.772556 0.037330
vn -0.633849 0.772556 0.037330
vn -0.633849 0.772556 0.037330
vn -0.842183 0.096422 -0.530500
vn -0.842183 0.096422 -0.530500
vn -0.842183 0.096422 -0.530500
vn -0.842183 0.096422 -0.530500
vn -0.842183 0.096422 -0.530500
f 1/1/1 4/8/2 5/9/3 2/4/4
f 2/3/5 3/6/6 7/13/7 17/31/8 16/30/9 1/2/10
f 3/5/11 8/15/12 14/25/13 11/19/14 7/12/15
f 2/4/16 5/10/17 9/16/18 8/14/19 3/6/20
f 5/9/21 4/7/22 6/11/23 10/18/24 15/27/25 9/17/26
f 6/11/27 18/34/28 19/35/29 12/21/30 10/18/31
f 11/20/32 13/24/33 20/38/34 17/32/35 7/12/36
f 15/28/37 14/26/38 8/14/39 9/17/40
f 11/19/41 14/26/42 15/27/43 10/18/44 12/22/45 13/24/46
f 16/29/47 18/33/48 6/11/49 4/7/50 1/1/51
f 19/36/52 20/37/53 13/23/54 12/22/55
f 16/30/56 17/32/57 20/37/58 19/35/59 18/33/60
