# This file uses centimeters as units for non-parametric coordinates.

v -7.475826 3.713062 0.232093
v -5.084690 -1.551079 -3.860530
v -8.071809 -0.892413 -0.532160
v -8.098390 3.732109 0.014833
v -9.120663 -1.386539 -2.278065
v -9.368084 -0.689722 -0.964915
v -4.601044 1.883133 -7.730617
v -5.481898 2.472910 -7.975432
v -4.306903 0.848188 -1.743687
v -4.368039 2.405335 -6.571618
v -6.390580 4.612403 -0.029343
v -7.167260 5.376874 -0.808858
v -5.869175 4.830926 -4.696952
v -5.384222 3.848159 -0.624655
v -5.124544 4.203486 -4.697922
v -6.052079 -2.376520 -2.559625
v -5.119380 -2.173150 -2.579607
v -5.073832 -2.171331 -2.085307
v -6.174498 -2.404532 -2.476458
v -5.625703 -2.294855 -1.878656
vt 0.335981 0.224154
vt 0.323973 0.207148
vt 0.469351 0.287734
vt 0.436892 0.360238
vt 0.360192 0.252912
vt 0.361350 0.250325
vt 0.315231 0.219718
vt 0.299302 0.197159
vt 0.366450 0.298446
vt 0.366000 0.299451
vt 0.248128 0.128824
vt 0.328909 0.243227
vt 0.497672 0.382056
vt 0.475639 0.350851
vt 0.476904 0.403507
vt 0.476944 0.403418
vt 0.443214 0.311714
vt 0.440843 0.317010
vt 0.474077 0.357900
vt 0.487109 0.376357
vt 0.371508 0.254820
vt 0.364557 0.244976
vt 0.353265 0.275303
vt 0.352861 0.274731
vt 0.413881 0.335044
vt 0.414131 0.335398
vt 0.401715 0.279880
vt 0.402405 0.278339
vt 0.441860 0.345769
vt 0.441843 0.345745
vt 0.440403 0.267598
vt 0.434757 0.280210
vt 0.452294 0.281731
vt 0.444008 0.300240
vt 0.445629 0.282226
vt 0.426208 0.325607
vt 0.437119 0.267056
vt 0.433173 0.275869
vt 0.433366 0.276896
vt 0.433323 0.276992
vn 0.184099 -0.886109 -0.425345
vn 0.184099 -0.886109 -0.425345
vn 0.184099 -0.886109 -0.425345
vn 0.967777 -0.235815 -0.088312
vn 0.967777 -0.235815 -0.088312
vn 0.967777 -0.235815 -0.088312
vn 0.967777 -0.235815 -0.088312
vn 0.967777 -0.235815 -0.088312
vn 0.967777 -0.235815 -0.088312
vn -0.285624 -0.698814 -0.655804
vn -0.285624 -0.698814 -0.655804
vn -0.285624 -0.698814 -0.655804
vn -0.285624 -0.698814 -0.655804
vn -0.285624 -0.698814 -0.655804
vn -0.285624 -0.698814 -0.655804
vn -0.330461 -0.112736 0.937062
vn -0.330461 -0.112736 0.937062
vn -0.330461 -0.112736 0.937062
vn -0.330461 -0.112736 0.937062
vn -0.273028 -0.870127 0.410285
vn -0.273028 -0.870127 0.410285
vn -0.273028 -0.870127 0.410285
vn -0.273028 -0.870127 0.410285
vn -0.273028 -0.870127 0.410285
vn -0.881113 0.328401 -0.340282
vn -0.881113 0.328401 -0.340282
vn -0.881113 0.328401 -0.340282
vn -0.881113 0.328401 -0.340282
vn -0.881113 0.328401 -0.340282
vn -0.881113 0.328401 -0.340282
vn 0.382440 -0.199214 0.902249
vn 0.382440 -0.199214 0.902249
vn 0.382440 -0.199214 0.902249
vn 0.382440 -0.199214 0.902249
vn 0.382440 -0.199214 0.902249
vn 0.382440 -0.199214 0.902249
vn 0.382440 -0.199214 0.902249
vn 0.947474 0.307704 0.087245
vn 0.947474 0.307704 0.087245
vn 0.947474 0.307704 0.087245
vn 0.947474 0.307704 0.087245
vn -0.261021 0.546330 0.795859
vn -0.261021 0.546331 0.795859
vn -0.261021 0.546331 0.795859
vn -0.261021 0.546331 0.795859
vn 0.581904 0.691252 -0.428438
vn 0.581904 0.691252 -0.428438
vn 0.581904 0.691252 -0.428438
vn 0.581904 0.691252 -0.428438
vn 0.581904 0.691252 -0.428438
vn 0.640736 0.760245 0.107167
vn 0.640736 0.760245 0.107167
vn 0.640736 0.760245 0.107167
vn 0.640736 0.760245 0.107167
vn 0.640736 0.760245 0.107167
vn 0.212684 -0.976990 -0.016004
vn 0.212684 -0.976990 -0.016004
vn 0.212684 -0.976990 -0.016004
vn 0.212684 -0.976990 -0.016004
vn 0.212684 -0.976990 -0.016004
f 2/4/1 17/34/2 16/32/3
f 2/3/4 7/14/5 10/19/6 9/18/7 18/36/8 17/33/9
f 5/9/10 8/16/11 7/13/12 2/3/13 16/31/14 19/37/15
f 4/8/16 6/12/17 3/5/18 1/2/19
f 6/11/20 5/10/21 19/38/22 20/40/23 3/5/24
f 5/10/25 6/12/26 4/7/27 12/24/28 13/25/29 8/15/30
f 9/17/31 14/28/32 11/22/33 1/2/34 3/6/35 20/39/36 18/35/37
f 9/18/38 10/20/39 15/29/40 14/27/41
f 11/21/42 12/23/43 4/7/44 1/1/45
f 13/26/46 15/30/47 10/20/48 7/13/49 8/15/50
f 13/25/51 12/23/52 11/22/53 14/27/54 15/30/55
f 16/32/56 17/33/57 18/35/58 20/40/59 19/37/60
