# This file uses centimeters as units for non-parametric coordinates.

v 1.048098 -1.971480 -4.175350
v -0.484587 -2.073559 -1.815888
v 3.809690 -0.811316 -6.586261
v 5.275807 -6.705359 3.017902
v 4.079122 -6.700866 3.833292
v 5.886455 -6.565848 -4.853620
v -0.425289 -6.528042 -1.294329
v 3.566514 -4.560685 -7.203338
v 3.872353 -6.507627 -6.144574
v -0.559301 -2.653448 -0.234267
v -0.495379 -6.541882 -0.505031
v 0.635796 -6.597770 1.439090
v -0.422607 -2.855147 -2.951848
v -0.981950 -2.757060 -1.911542
v -0.606956 -5.751209 -1.649677
v 0.255032 -4.013592 -3.871603
v -1.186602 -3.211953 -1.370143
v -1.070485 -4.205384 -1.267338
v 3.834361 -5.867672 4.172815
v 0.717939 -2.608890 1.971440
v 1.276933 -5.350951 2.666245
v 7.907491 -3.176709 1.959208
v 4.132036 -0.832247 -6.903228
v 3.891238 -0.565096 -6.257871
v 7.882851 -3.814862 -4.824290
v 4.846694 -1.521501 -7.752144
v 1.649507 0.559938 -0.404549
v 1.656524 0.395319 0.179601
v 2.395582 -0.604652 2.633978
v 4.878468 -2.127266 4.238570
v 2.963925 0.582419 -2.550654
v 7.416788 -2.718391 2.388308
vt 0.501463 0.447582
vt 0.501869 0.455134
vt 0.478991 0.380739
vt 0.478458 0.370809
vt 0.544975 0.541616
vt 0.545028 0.542614
vt 0.569340 0.703511
vt 0.578757 0.694094
vt 0.556816 0.645672
vt 0.557612 0.644877
vt 0.577424 0.707786
vt 0.580920 0.704290
vt 0.483351 0.450965
vt 0.486336 0.506568
vt 0.541196 0.592817
vt 0.547372 0.633660
vt 0.487261 0.500832
vt 0.490385 0.497708
vt 0.483731 0.445409
vt 0.485463 0.477662
vt 0.503331 0.562590
vt 0.503331 0.492397
vt 0.478291 0.401796
vt 0.479190 0.418542
vt 0.471583 0.396765
vt 0.471380 0.392977
vt 0.481174 0.473649
vt 0.481815 0.485587
vt 0.488983 0.448340
vt 0.472283 0.450802
vt 0.469160 0.392632
vt 0.471498 0.403154
vt 0.471016 0.394188
vt 0.552122 0.546103
vt 0.553492 0.544734
vt 0.515097 0.381596
vt 0.513586 0.383106
vt 0.512420 0.454539
vt 0.515648 0.451310
vt 0.604821 0.440661
vt 0.626128 0.419354
vt 0.549955 0.554058
vt 0.549984 0.554595
vt 0.547532 0.530215
vt 0.606892 0.580908
vt 0.605621 0.582178
vt 0.560802 0.589905
vt 0.515792 0.365487
vt 0.515748 0.364665
vt 0.515652 0.365699
vt 0.528108 0.353242
vt 0.547036 0.283600
vt 0.546783 0.283854
vt 0.564883 0.296366
vt 0.564883 0.286440
vt 0.537975 0.416178
vt 0.615577 0.378050
vt 0.598958 0.394668
vn -0.808072 0.564393 0.168758
vn -0.808072 0.564393 0.168758
vn -0.808072 0.564393 0.168758
vn -0.808072 0.564393 0.168758
vn -0.808072 0.564393 0.168758
vn -0.808072 0.564393 0.168758
vn -0.700225 0.569740 -0.430211
vn -0.700225 0.569740 -0.430211
vn -0.700225 0.569740 -0.430211
vn -0.700225 0.569740 -0.430211
vn 0.807969 -0.586902 0.052278
vn 0.807969 -0.586902 0.052278
vn 0.807969 -0.586902 0.052278
vn 0.807969 -0.586902 0.052278
vn 0.497693 -0.352728 -0.792392
vn 0.497693 -0.352728 -0.792392
vn 0.497693 -0.352728 -0.792392
vn 0.497693 -0.352728 -0.792392
vn 0.497693 -0.352728 -0.792392
vn -0.016710 -0.999680 -0.019014
vn -0.016710 -0.999680 -0.019014
vn -0.016710 -0.999680 -0.019014
vn -0.016710 -0.999680 -0.019014
vn -0.016710 -0.999680 -0.019014
vn -0.016710 -0.999680 -0.019014
vn -0.016710 -0.999680 -0.019014
vn -0.959884 -0.265596 -0.089895
vn -0.959884 -0.265596 -0.089895
vn -0.959884 -0.265596 -0.089895
vn -0.959884 -0.265596 -0.089895
vn -0.674197 -0.431758 -0.599201
vn -0.674197 -0.431758 -0.599201
vn -0.674197 -0.431758 -0.599201
vn -0.674197 -0.431758 -0.599201
vn -0.674197 -0.431758 -0.599201
vn -0.876647 -0.149782 -0.457226
vn -0.876647 -0.149782 -0.457226
vn -0.876647 -0.149782 -0.457226
vn -0.876647 -0.149782 -0.457226
vn -0.876647 -0.149782 -0.457226
vn -0.876647 -0.149782 -0.457226
vn -0.519152 -0.448885 0.727312
vn -0.519152 -0.448885 0.727313
vn -0.519152 -0.448885 0.727313
vn -0.519152 -0.448885 0.727313
vn -0.863909 -0.049105 0.501248
vn -0.863909 -0.049105 0.501248
vn -0.863909 -0.049105 0.501248
vn -0.863909 -0.049105 0.501248
vn -0.863909 -0.049105 0.501248
vn -0.863909 -0.049105 0.501248
vn -0.863909 -0.049105 0.501248
vn -0.418042 0.773599 -0.476219
vn -0.418042 0.773599 -0.476219
vn -0.418042 0.773599 -0.476219
vn -0.686620 0.161208 -0.708918
vn -0.686620 0.161208 -0.708918
vn -0.686620 0.161208 -0.708918
vn -0.686620 0.161208 -0.708918
vn -0.686620 0.161208 -0.708918
vn -0.686620 0.161208 -0.708918
vn -0.686620 0.161208 -0.708918
vn -0.757502 0.492353 0.428694
vn -0.757502 0.492353 0.428694
vn -0.757502 0.492353 0.428694
vn -0.757502 0.492353 0.428694
vn 0.554542 -0.169120 0.814790
vn 0.554542 -0.169120 0.814790
vn 0.554542 -0.169120 0.814790
vn 0.554542 -0.169120 0.814790
vn 0.554542 -0.169120 0.814790
vn 0.554542 -0.169120 0.814790
vn -0.485715 0.120364 0.865791
vn -0.485715 0.120364 0.865791
vn -0.485715 0.120364 0.865791
vn -0.485715 0.120364 0.865791
vn -0.485715 0.120364 0.865791
vn -0.615143 0.696490 -0.369459
vn -0.615143 0.696490 -0.369459
vn -0.615144 0.696490 -0.369459
vn -0.615143 0.696490 -0.369459
vn -0.615143 0.696490 -0.369459
vn -0.615143 0.696490 -0.369459
vn 0.645457 0.760217 -0.073862
vn 0.645457 0.760217 -0.073862
vn 0.645457 0.760217 -0.073862
vn 0.645457 0.760217 -0.073862
vn 0.645457 0.760217 -0.073862
vn 0.645457 0.760217 -0.073862
vn 0.645457 0.760217 -0.073862
vn 0.386269 0.889007 0.245890
vn 0.386269 0.889007 0.245890
vn 0.386269 0.889007 0.245890
vn 0.386269 0.889007 0.245890
vn 0.386269 0.889008 0.245890
vn 0.386269 0.889007 0.245890
f 2/4/1 14/26/2 17/30/3 10/17/4 28/50/5 27/49/6
f 1/1/7 13/24/8 14/25/9 2/3/10
f 6/11/11 25/46/12 22/40/13 4/7/14
f 6/12/15 9/16/16 8/15/17 26/47/18 25/45/19
f 7/13/20 9/16/21 6/12/22 4/8/23 5/9/24 12/22/25 11/19/26
f 18/32/27 15/28/28 7/14/29 11/20/30
f 15/27/31 16/29/32 8/15/33 9/16/34 7/14/35
f 17/30/36 14/25/37 13/23/38 16/29/39 15/28/40 18/33/41
f 19/34/42 21/39/43 12/21/44 5/9/45
f 21/38/46 20/37/47 10/17/48 17/31/49 18/33/50 11/19/51 12/21/52
f 24/44/53 23/43/54 3/6/55
f 23/42/56 26/47/57 8/15/58 16/29/59 13/23/60 1/1/61 3/5/62
f 29/52/63 28/51/64 10/18/65 20/36/66
f 32/57/67 30/55/68 19/35/69 5/10/70 4/8/71 22/41/72
f 30/54/73 29/53/74 20/37/75 21/39/76 19/35/77
f 27/48/78 31/56/79 24/44/80 3/6/81 1/2/82 2/3/83
f 31/56/84 32/58/85 22/40/86 25/45/87 26/47/88 23/43/89 24/44/90
f 29/53/91 30/55/92 32/58/93 31/56/94 27/49/95 28/51/96
