# This file uses centimeters as units for non-parametric coordinates.

v -5.561712 -2.281273 9.500000
v -5.100429 -1.848442 8.123162
v 4.461389 -2.341115 9.500000
v 3.911696 -4.301951 9.500000
v 2.316196 -6.696539 9.500000
v 3.527657 -6.321400 6.817425
v 4.904049 -1.447794 6.667959
v 3.834361 -5.867672 4.172815
v -5.372918 -2.676877 7.464522
v 1.276933 -5.350951 2.666245
v 0.717939 -2.608890 1.971441
v -5.989511 -3.179536 9.500000
v -3.196814 -6.175448 9.500000
v -5.745265 -3.234152 8.041622
v -3.302948 -5.695327 6.924575
v 2.363725 -0.278635 3.020314
v 4.386229 -0.945211 5.089119
v 5.009142 -1.372177 5.431977
v 4.878468 -2.127266 4.238569
v 2.395582 -0.604652 2.633977
vt 0.426820 0.094983
vt 0.442944 0.111621
vt 0.440037 0.125696
vt 0.558703 0.094196
vt 0.551470 0.068395
vt 0.551470 0.342298
vt 0.530476 0.036888
vt 0.551973 0.596990
vt 0.551973 0.219077
vt 0.579519 0.158664
vt 0.561487 0.538766
vt 0.561487 0.399792
vt 0.431462 0.121792
vt 0.433041 0.134982
vt 0.515111 0.381187
vt 0.514131 0.373002
vt 0.523548 0.343903
vt 0.530357 0.310943
vt 0.421191 0.083164
vt 0.457937 0.043744
vt 0.425950 0.105383
vt 0.427082 0.114833
vt 0.455903 0.173144
vt 0.578422 0.172833
vt 0.564740 0.239070
vt 0.580798 0.193514
vt 0.584455 0.196709
vt 0.583727 0.200234
vt 0.584150 0.288371
vt 0.584150 0.263203
vt 0.562975 0.261325
vt 0.575950 0.198517
vn -0.000000 0.000000 1.000000
vn -0.000000 0.000000 1.000000
vn -0.000000 0.000000 1.000000
vn -0.000000 0.000000 1.000000
vn -0.000000 0.000000 1.000000
vn -0.000000 0.000000 1.000000
vn -0.890462 0.424084 -0.165014
vn -0.890462 0.424084 -0.165014
vn -0.890462 0.424084 -0.165014
vn -0.890462 0.424084 -0.165014
vn -0.890462 0.424084 -0.165014
vn 0.005692 0.953409 0.301627
vn 0.005692 0.953409 0.301627
vn 0.005692 0.953409 0.301627
vn 0.005692 0.953409 0.301627
vn 0.005692 0.953409 0.301627
vn 0.005692 0.953409 0.301627
vn 0.960830 -0.269355 0.065218
vn 0.960830 -0.269355 0.065218
vn 0.960830 -0.269355 0.065218
vn 0.960830 -0.269355 0.065218
vn 0.960830 -0.269355 0.065218
vn 0.960830 -0.269355 0.065218
vn 0.960830 -0.269355 0.065218
vn -0.092585 -0.979521 -0.178791
vn -0.092585 -0.979521 -0.178791
vn -0.092585 -0.979521 -0.178791
vn -0.092585 -0.979521 -0.178791
vn -0.092585 -0.979521 -0.178791
vn -0.092585 -0.979521 -0.178791
vn 0.797473 -0.531352 0.285836
vn 0.797473 -0.531352 0.285836
vn 0.797473 -0.531352 0.285836
vn -0.635076 -0.308867 -0.708010
vn -0.635077 -0.308867 -0.708010
vn -0.635076 -0.308867 -0.708010
vn -0.635077 -0.308867 -0.708010
vn -0.635077 -0.308867 -0.708010
vn -0.728065 -0.678679 -0.096518
vn -0.728065 -0.678679 -0.096518
vn -0.728065 -0.678679 -0.096518
vn -0.728065 -0.678679 -0.096518
vn 0.526083 0.844949 0.096426
vn 0.526083 0.844949 0.096426
vn 0.526083 0.844949 0.096426
vn -0.524600 0.628830 -0.573906
vn -0.524600 0.628830 -0.573906
vn -0.524600 0.628830 -0.573906
vn -0.524600 0.628830 -0.573906
vn -0.524600 0.628830 -0.573906
vn 0.485715 -0.120364 -0.865791
vn 0.485715 -0.120364 -0.865791
vn 0.485715 -0.120364 -0.865791
vn 0.485715 -0.120364 -0.865791
vn 0.485715 -0.120364 -0.865791
vn 0.660056 0.600061 -0.451943
vn 0.660056 0.600061 -0.451943
vn 0.660056 0.600061 -0.451943
vn 0.660056 0.600061 -0.451943
vn 0.660056 0.600061 -0.451943
f 1/1/1 12/19/2 13/20/3 5/7/4 4/5/5 3/4/6
f 1/1/7 2/2/8 9/13/9 14/21/10 12/19/11
f 3/4/12 7/10/13 17/26/14 16/25/15 2/3/16 1/1/17
f 3/4/18 4/6/19 6/8/20 8/11/21 19/29/22 18/27/23 7/10/24
f 6/9/25 5/7/26 13/20/27 15/23/28 10/15/29 8/12/30
f 4/5/31 5/7/32 6/8/33
f 15/23/34 14/22/35 9/14/36 11/17/37 10/15/38
f 13/20/39 12/19/40 14/22/41 15/23/42
f 18/28/43 17/26/44 7/10/45
f 16/24/46 20/32/47 11/18/48 9/14/49 2/2/50
f 20/31/51 19/30/52 8/12/53 10/16/54 11/17/55
f 16/25/56 17/26/57 18/27/58 19/30/59 20/32/60
