# This file uses centimeters as units for non-parametric coordinates.

v 9.500000 -9.500000 -9.500000
v 9.500000 -0.103485 -9.500000
v 4.922313 -0.714879 -9.500000
v 9.500000 -9.500000 -4.456765
v 6.364293 -9.500000 -4.690538
v 5.886455 -6.565848 -4.853621
v 2.591316 -9.500000 -9.500000
v 2.724418 -5.588298 -9.500000
v 3.674246 -9.500000 -6.418556
v 3.566514 -4.560684 -7.203337
v 3.872353 -6.507625 -6.144574
v 9.500000 -0.344544 -8.712006
v 9.500000 -3.796308 -4.704534
v 4.958515 -1.096938 -8.235289
v 7.882851 -3.814863 -4.824290
v 4.846693 -1.521502 -7.752143
vt 0.625000 0.750000
vt 0.875000 0.000000
vt 0.625000 0.626362
vt 0.875000 0.123638
vt 0.564767 0.634406
vt 0.625000 0.816358
vt 0.808642 0.000000
vt 0.692151 0.331354
vt 0.583741 0.813282
vt 0.643441 0.404341
vt 0.643441 0.466258
vt 0.534096 0.750000
vt 0.535848 0.698530
vt 0.548345 0.790545
vt 0.600209 0.559991
vt 0.546928 0.600186
vt 0.546928 0.629979
vt 0.574430 0.568204
vt 0.574430 0.590234
vt 0.632180 0.587901
vt 0.864632 0.120467
vt 0.811902 0.075049
vt 0.688763 0.322668
vt 0.565244 0.593774
vt 0.565244 0.646824
vt 0.645710 0.427063
vt 0.645710 0.413032
vt 0.563772 0.581749
vt 0.563772 0.584383
vn 1.000000 0.000000 0.000000
vn 1.000000 0.000000 0.000000
vn 1.000000 0.000000 0.000000
vn 1.000000 0.000000 0.000000
vn 1.000000 0.000000 0.000000
vn -0.126688 0.948550 0.290176
vn -0.126688 0.948551 0.290176
vn -0.126688 0.948551 0.290176
vn -0.126688 0.948551 0.290176
vn 0.000000 -1.000000 0.000000
vn 0.000000 -1.000000 0.000000
vn 0.000000 -1.000000 0.000000
vn 0.000000 -1.000000 0.000000
vn 0.000000 -1.000000 0.000000
vn -0.074276 0.043279 0.996298
vn -0.074276 0.043279 0.996298
vn -0.074276 0.043279 0.996298
vn -0.074276 0.043279 0.996298
vn -0.074276 0.043279 0.996298
vn -0.540011 -0.041219 0.840648
vn -0.540011 -0.041219 0.840648
vn -0.540011 -0.041219 0.840648
vn -0.540011 -0.041219 0.840648
vn 0.000000 0.000000 -1.000000
vn 0.000000 0.000000 -1.000000
vn 0.000000 0.000000 -1.000000
vn 0.000000 0.000000 -1.000000
vn 0.000000 0.000000 -1.000000
vn -0.901457 0.406554 0.148621
vn -0.901457 0.406554 0.148621
vn -0.901457 0.406554 0.148621
vn -0.901457 0.406554 0.148621
vn -0.901457 0.406554 0.148621
vn -0.942950 0.032085 0.331386
vn -0.942950 0.032085 0.331386
vn -0.942950 0.032085 0.331386
vn -0.942950 0.032085 0.331386
vn -0.942950 0.032085 0.331386
vn -0.497693 0.352728 0.792392
vn -0.497693 0.352728 0.792392
vn -0.497693 0.352728 0.792392
vn -0.497693 0.352728 0.792392
vn -0.497693 0.352728 0.792392
vn -0.056929 0.756457 0.651561
vn -0.056929 0.756457 0.651561
vn -0.056929 0.756457 0.651561
vn -0.056929 0.756457 0.651561
vn -0.056929 0.756457 0.651561
f 2/4/1 12/21/2 13/22/3 4/7/4 1/2/5
f 2/3/6 3/5/7 14/25/8 12/20/9
f 4/6/10 5/9/11 9/14/12 7/12/13 1/1/14
f 4/7/15 13/23/16 15/26/17 6/10/18 5/8/19
f 6/11/20 11/19/21 9/15/22 5/8/23
f 7/12/24 8/13/25 3/5/26 2/3/27 1/1/28
f 8/13/29 10/16/30 16/28/31 14/24/32 3/5/33
f 7/12/34 9/15/35 11/18/36 10/16/37 8/13/38
f 15/27/39 16/29/40 10/17/41 11/18/42 6/10/43
f 13/22/44 12/20/45 14/24/46 16/29/47 15/26/48
