# This file uses centimeters as units for non-parametric coordinates.

v -9.500000 9.500000 9.500000
v -9.500000 4.086207 9.500000
v -7.475826 3.713062 0.232093
v -9.500000 3.787845 -0.062308
v -8.098391 3.732109 0.014833
v -9.500000 9.500000 -1.635015
v -9.500000 7.140551 -1.806525
v -4.662154 9.500000 -0.076600
v -7.167260 5.376875 -0.808859
v -5.033426 9.500000 -0.350393
v -7.488618 6.281432 -1.290486
v -6.390580 4.612402 -0.029343
v -6.866557 9.500000 9.500000
v -5.974250 9.500000 7.739430
v -6.354474 3.724028 2.074387
v -4.333387 6.154174 1.070746
v -5.035454 5.231892 0.802446
v -6.896706 3.978215 9.500000
v -6.517820 4.457610 9.500000
v -5.227964 5.745133 6.779349
vt 0.375000 0.250000
vt 0.375000 0.178766
vt 0.360431 0.248216
vt 0.374199 0.261983
vt 0.249180 0.174840
vt 0.311838 0.237498
vt 0.344649 0.245697
vt 0.354182 0.255231
vt 0.228487 0.250000
vt 0.375000 0.396513
vt 0.323029 0.315754
vt 0.226230 0.218955
vt 0.438656 0.376008
vt 0.381083 0.302509
vt 0.375233 0.296660
vt 0.433771 0.379610
vt 0.349917 0.294922
vt 0.374135 0.319140
vt 0.391360 0.278555
vt 0.409651 0.250000
vt 0.421391 0.273165
vt 0.407005 0.249600
vt 0.399077 0.241672
vt 0.455681 0.311680
vt 0.453102 0.314259
vt 0.432536 0.294636
vt 0.409254 0.177345
vt 0.414239 0.183653
vt 0.440117 0.232740
vn 0.000000 1.000000 0.000000
vn 0.000000 1.000000 0.000000
vn 0.000000 1.000000 0.000000
vn 0.000000 1.000000 0.000000
vn 0.000000 1.000000 0.000000
vn 0.000000 1.000000 0.000000
vn 0.000000 0.000000 1.000000
vn 0.000000 0.000000 1.000000
vn 0.000000 0.000000 1.000000
vn 0.000000 0.000000 1.000000
vn 0.000000 0.000000 1.000000
vn -0.041427 -0.998656 0.031160
vn -0.041427 -0.998656 0.031160
vn -0.041427 -0.998656 0.031160
vn -0.041427 -0.998656 0.031160
vn -0.041427 -0.998656 0.031160
vn -0.041427 -0.998656 0.031160
vn 0.553134 -0.764024 -0.332130
vn 0.553134 -0.764024 -0.332130
vn 0.553134 -0.764024 -0.332130
vn 0.553134 -0.764024 -0.332130
vn 0.261021 -0.546331 -0.795859
vn 0.261021 -0.546331 -0.795859
vn 0.261021 -0.546331 -0.795859
vn 0.261021 -0.546331 -0.795859
vn -1.000000 0.000000 0.000000
vn -1.000000 0.000000 0.000000
vn -1.000000 0.000000 0.000000
vn -1.000000 0.000000 0.000000
vn -1.000000 0.000000 0.000000
vn 0.030458 -0.461307 -0.886717
vn 0.030458 -0.461307 -0.886717
vn 0.030458 -0.461307 -0.886717
vn 0.030458 -0.461307 -0.886717
vn 0.030458 -0.461307 -0.886717
vn 0.275731 0.069689 -0.958705
vn 0.275731 0.069689 -0.958705
vn 0.275731 0.069689 -0.958705
vn 0.275731 0.069689 -0.958705
vn 0.579935 -0.212689 -0.786409
vn 0.579935 -0.212689 -0.786409
vn 0.579935 -0.212689 -0.786409
vn 0.579935 -0.212689 -0.786409
vn 0.579935 -0.212689 -0.786409
vn 0.579935 -0.212689 -0.786409
vn 0.579935 -0.212689 -0.786409
vn 0.890285 0.061573 0.451222
vn 0.890285 0.061573 0.451222
vn 0.890285 0.061573 0.451222
vn 0.890285 0.061573 0.451222
vn 0.974757 0.151895 0.163635
vn 0.974757 0.151895 0.163635
vn 0.974757 0.151895 0.163635
vn 0.974757 0.151895 0.163635
vn 0.782145 -0.618161 0.078274
vn 0.782144 -0.618161 0.078274
vn 0.782145 -0.618161 0.078274
vn 0.782145 -0.618161 0.078274
vn 0.782145 -0.618161 0.078274
vn 0.782145 -0.618161 0.078274
f 1/1/1 13/20/2 14/21/3 8/13/4 10/16/5 6/10/6
f 2/2/7 18/27/8 19/28/9 13/20/10 1/1/11
f 2/2/12 4/6/13 5/8/14 3/4/15 15/22/16 18/27/17
f 3/3/18 12/19/19 17/26/20 15/23/21
f 5/7/22 9/15/23 12/19/24 3/3/25
f 6/9/26 7/12/27 4/5/28 2/2/29 1/1/30
f 7/11/31 11/18/32 9/14/33 5/8/34 4/5/35
f 6/10/36 10/16/37 11/17/38 7/12/39
f 10/16/40 8/13/41 16/25/42 17/26/43 12/19/44 9/14/45 11/17/46
f 14/21/47 13/20/48 19/28/49 20/29/50
f 20/29/51 16/24/52 8/13/53 14/21/54
f 19/28/55 18/27/56 15/23/57 17/26/58 16/24/59 20/29/60
