# This file uses centimeters as units for non-parametric coordinates.

v -9.500000 0.037836 -9.500000
v -9.500000 -3.769350 -9.500000
v -5.089215 -1.501160 -9.500000
v -8.090317 -4.023453 -9.500000
v -4.129020 -0.725166 -6.244971
v -5.084690 -1.551079 -3.860530
v -9.500000 -4.527477 -5.089722
v -8.799271 -4.661751 -5.043391
v -9.500000 0.826485 -8.089335
v -9.500000 -1.478002 -2.445486
v -9.120663 -1.386538 -2.278065
v -3.541893 1.261591 -9.500000
v -3.496744 1.212846 -9.051312
v -4.601044 1.883134 -7.730617
v -5.481899 2.472910 -7.975434
v -6.439172 2.240795 -8.394736
v -6.101046 1.797982 -9.500000
v -4.752526 2.057886 -9.500000
v -5.544139 2.521641 -8.159000
v -6.052079 -2.376520 -2.559624
v -6.557999 -2.798413 -2.907075
v -6.174498 -2.404532 -2.476458
vt 0.125000 0.125498
vt 0.375000 0.624502
vt 0.125000 0.075403
vt 0.375000 0.674597
vt 0.433037 0.644752
vt 0.393548 0.677940
vt 0.413275 0.563901
vt 0.377696 0.536366
vt 0.368341 0.465197
vt 0.323002 0.400909
vt 0.183030 0.065428
vt 0.332029 0.423243
vt 0.143561 0.135875
vt 0.153719 0.213150
vt 0.217823 0.105553
vt 0.227342 0.128369
vt 0.281337 0.508176
vt 0.234993 0.155599
vt 0.453396 0.608400
vt 0.449525 0.599304
vt 0.383597 0.500468
vt 0.385834 0.517488
vt 0.355767 0.491870
vt 0.376865 0.521749
vt 0.316499 0.430252
vt 0.313457 0.407111
vt 0.312666 0.387655
vt 0.419723 0.601342
vt 0.437467 0.597923
vt 0.386988 0.497166
vt 0.356302 0.486380
vt 0.369623 0.505245
vt 0.352612 0.529863
vt 0.335639 0.400733
vt 0.333386 0.401220
vt 0.347920 0.511797
vt 0.349614 0.529017
vt 0.348632 0.521548
vn 0.000000 0.000000 -1.000000
vn 0.000000 0.000000 -1.000000
vn 0.000000 0.000000 -1.000000
vn 0.000000 0.000000 -1.000000
vn 0.000000 0.000000 -1.000000
vn 0.000000 0.000000 -1.000000
vn 0.000000 0.000000 -1.000000
vn -0.411885 0.795377 -0.444665
vn -0.411885 0.795377 -0.444665
vn -0.411885 0.795377 -0.444665
vn -0.411885 0.795377 -0.444665
vn -1.000000 0.000000 0.000000
vn -1.000000 0.000000 0.000000
vn -1.000000 0.000000 0.000000
vn -1.000000 0.000000 0.000000
vn -1.000000 0.000000 0.000000
vn -0.174911 -0.970352 -0.166804
vn -0.174911 -0.970352 -0.166804
vn -0.174911 -0.970352 -0.166804
vn -0.174911 -0.970352 -0.166804
vn 0.643379 -0.765513 -0.007292
vn 0.643379 -0.765513 -0.007292
vn 0.643379 -0.765513 -0.007292
vn 0.643379 -0.765513 -0.007292
vn 0.643379 -0.765513 -0.007292
vn 0.643379 -0.765513 -0.007292
vn 0.643379 -0.765513 -0.007292
vn 0.285624 0.698814 0.655804
vn 0.285624 0.698814 0.655804
vn 0.285624 0.698814 0.655804
vn 0.285624 0.698814 0.655804
vn 0.285624 0.698814 0.655804
vn 0.285624 0.698814 0.655804
vn -0.172848 -0.645262 0.744151
vn -0.172848 -0.645262 0.744151
vn -0.172848 -0.645262 0.744151
vn -0.172848 -0.645262 0.744151
vn -0.172848 -0.645262 0.744151
vn -0.172848 -0.645262 0.744151
vn 0.863950 -0.483869 -0.139502
vn 0.863950 -0.483869 -0.139502
vn 0.863950 -0.483869 -0.139502
vn 0.863950 -0.483869 -0.139502
vn 0.792225 0.403911 0.457424
vn 0.792225 0.403911 0.457424
vn 0.792225 0.403911 0.457424
vn 0.792225 0.403911 0.457424
vn -0.363397 0.862505 0.352177
vn -0.363397 0.862505 0.352177
vn -0.363397 0.862505 0.352177
vn -0.363397 0.862505 0.352177
vn -0.363397 0.862505 0.352177
vn -0.363397 0.862505 0.352177
vn 0.549188 0.834947 0.035445
vn 0.549188 0.834947 0.035445
vn 0.549188 0.834947 0.035445
vn 0.549188 0.834947 0.035445
vn 0.549188 0.834947 0.035445
vn 0.549188 0.834947 0.035445
vn -0.172498 0.895008 -0.411347
vn -0.172497 0.895008 -0.411346
vn -0.172497 0.895008 -0.411346
vn -0.172497 0.895008 -0.411346
vn 0.435906 -0.822886 0.364477
vn 0.435906 -0.822886 0.364477
vn 0.435906 -0.822886 0.364477
f 1/2/1 17/28/2 18/29/3 12/19/4 3/5/5 4/6/6 2/4/7
f 1/1/8 9/14/9 16/25/10 17/27/11
f 2/3/12 7/11/13 10/15/14 9/13/15 1/1/16
f 2/4/17 4/6/18 8/12/19 7/10/20
f 3/5/21 5/7/22 6/9/23 20/34/24 21/35/25 8/12/26 4/6/27
f 6/8/28 14/22/29 15/23/30 11/17/31 22/37/32 20/33/33
f 11/18/34 10/16/35 7/10/36 8/12/37 21/36/38 22/38/39
f 12/19/40 13/20/41 5/7/42 3/5/43
f 13/20/44 14/21/45 6/9/46 5/7/47
f 15/24/48 19/32/49 16/26/50 9/13/51 10/16/52 11/17/53
f 12/19/54 18/30/55 19/31/56 15/23/57 14/21/58 13/20/59
f 18/29/60 17/27/61 16/26/62 19/31/63
f 21/35/64 20/33/65 22/38/66
