# This file uses centimeters as units for non-parametric coordinates.

v 2.090941 -9.500000 9.500000
v -1.292220 -9.500000 0.587307
v 4.312018 -9.500000 4.456317
v 4.422539 -8.558464 4.377135
v 4.079122 -6.700866 3.833292
v -1.002280 -8.282709 0.586454
v 0.635796 -6.597769 1.439091
v 2.316195 -6.696538 9.500000
v 3.527657 -6.321400 6.817426
v 3.834361 -5.867672 4.172815
v 1.276933 -5.350951 2.666245
v -2.680016 -9.500000 9.500000
v -2.776067 -9.500000 1.647187
v -2.891065 -8.743672 1.857472
v -3.196813 -6.175448 9.500000
v -3.302949 -5.695327 6.924575
vt 0.527512 0.000000
vt 0.527512 1.000000
vt 0.464946 0.450977
vt 0.482997 0.882728
vt 0.556737 0.933636
vt 0.551937 0.818835
vt 0.555380 0.684576
vt 0.557509 0.546647
vt 0.465253 0.414275
vt 0.465604 0.413924
vt 0.489826 0.410809
vt 0.490450 0.410184
vt 0.530476 0.036888
vt 0.530476 0.479227
vt 0.545574 0.366627
vt 0.555150 0.467052
vt 0.508579 0.350597
vt 0.508189 0.350988
vt 0.464737 0.000000
vt 0.464737 1.000000
vt 0.441429 0.369447
vt 0.463473 0.896674
vt 0.448565 0.608388
vt 0.436943 0.330426
vt 0.457937 0.043744
vt 0.457937 0.195393
vt 0.453441 0.161616
vn 0.562958 -0.134660 -0.815441
vn 0.562958 -0.134660 -0.815442
vn 0.562958 -0.134660 -0.815442
vn 0.562958 -0.134660 -0.815441
vn 0.562958 -0.134660 -0.815442
vn 0.562958 -0.134660 -0.815441
vn 0.519153 0.448885 -0.727312
vn 0.519153 0.448885 -0.727312
vn 0.519153 0.448885 -0.727312
vn 0.519153 0.448885 -0.727312
vn 0.963472 0.221981 0.149821
vn 0.963472 0.221981 0.149821
vn 0.963472 0.221981 0.149821
vn 0.963472 0.221981 0.149821
vn 0.912726 -0.073336 0.401936
vn 0.912726 -0.073336 0.401936
vn 0.912726 -0.073336 0.401936
vn 0.912726 -0.073336 0.401936
vn 0.912726 -0.073336 0.401936
vn 0.000000 0.000000 1.000000
vn 0.000000 0.000000 1.000000
vn 0.000000 0.000000 1.000000
vn 0.000000 0.000000 1.000000
vn 0.000000 -1.000000 0.000000
vn 0.000000 -1.000000 0.000000
vn 0.000000 -1.000000 0.000000
vn 0.000000 -1.000000 0.000000
vn 0.000000 -1.000000 0.000000
vn -0.575787 0.136579 -0.806111
vn -0.575787 0.136579 -0.806111
vn -0.575787 0.136579 -0.806111
vn -0.575787 0.136579 -0.806111
vn -0.497550 0.724837 -0.476502
vn -0.497550 0.724837 -0.476502
vn -0.497550 0.724837 -0.476502
vn -0.497550 0.724837 -0.476502
vn -0.497550 0.724837 -0.476502
vn 0.092585 0.979521 0.178791
vn 0.092585 0.979521 0.178791
vn 0.092585 0.979521 0.178791
vn 0.092585 0.979521 0.178791
vn 0.092585 0.979521 0.178791
vn 0.092585 0.979521 0.178791
vn -0.988060 -0.153593 0.012085
vn -0.988060 -0.153593 0.012085
vn -0.988060 -0.153593 0.012085
vn -0.988060 -0.153593 0.012085
vn -0.988060 -0.153593 0.012085
f 6/10/1 7/12/2 5/8/3 4/7/4 3/5/5 2/3/6
f 7/11/7 11/18/8 10/16/9 5/8/10
f 10/16/11 9/15/12 4/7/13 5/8/14
f 9/15/15 8/14/16 1/2/17 3/6/18 4/7/19
f 15/25/20 12/19/21 1/1/22 8/13/23
f 12/20/24 13/22/25 2/4/26 3/5/27 1/2/28
f 13/21/29 14/24/30 6/9/31 2/3/32
f 14/23/33 16/27/34 11/17/35 7/12/36 6/9/37
f 16/27/38 15/26/39 8/14/40 9/15/41 10/16/42 11/17/43
f 15/26/44 16/27/45 14/24/46 13/22/47 12/19/48
