# This file uses centimeters as units for non-parametric coordinates.

v 9.500000 9.500000 9.500000
v 6.900912 9.500000 9.500000
v 9.500000 -0.983447 9.500000
v 6.835854 9.362922 9.500000
v 7.360869 -0.694671 9.500000
v 7.221023 0.855291 5.387037
v 7.304351 -0.599079 5.904076
v 9.500000 1.777196 3.674664
v 9.500000 -0.866137 4.704319
v 9.500000 9.500000 7.760146
v 8.508427 9.500000 8.005152
v 9.500000 7.919414 6.385494
vt 0.625000 0.250000
vt 0.590801 0.250000
vt 0.625000 0.112060
vt 0.589945 0.248196
vt 0.596854 0.115860
vt 0.627421 0.237654
vt 0.624444 0.205771
vt 0.701649 0.148384
vt 0.688101 0.113603
vt 0.625000 0.272893
vt 0.647893 0.250000
vt 0.631622 0.250000
vt 0.611953 0.269669
vt 0.665980 0.229203
vn -0.000000 0.000000 1.000000
vn -0.000000 0.000000 1.000000
vn -0.000000 0.000000 1.000000
vn -0.000000 0.000000 1.000000
vn -0.000000 0.000000 1.000000
vn -0.647976 0.307534 -0.696814
vn -0.647976 0.307534 -0.696814
vn -0.647976 0.307534 -0.696814
vn -0.647976 0.307534 -0.696814
vn -0.647976 0.307534 -0.696814
vn -0.647976 0.307534 -0.696814
vn 1.000000 -0.000000 0.000000
vn 1.000000 -0.000000 0.000000
vn 1.000000 -0.000000 0.000000
vn 1.000000 -0.000000 0.000000
vn 1.000000 -0.000000 0.000000
vn 1.000000 -0.000000 0.000000
vn -0.133744 -0.990720 -0.024235
vn -0.133744 -0.990720 -0.024235
vn -0.133744 -0.990719 -0.024235
vn -0.133744 -0.990720 -0.024235
vn -0.998538 -0.052124 0.014309
vn -0.998538 -0.052124 0.014309
vn -0.998538 -0.052124 0.014309
vn -0.998538 -0.052124 0.014309
vn -0.484140 -0.317590 -0.815319
vn -0.484140 -0.317590 -0.815319
vn -0.484140 -0.317590 -0.815319
vn -0.484140 -0.317590 -0.815319
vn 0.000000 1.000000 0.000000
vn 0.000000 1.000000 0.000000
vn 0.000000 1.000000 0.000000
vn 0.000000 1.000000 0.000000
vn -0.183281 0.645125 -0.741770
vn -0.183281 0.645125 -0.741770
vn -0.183281 0.645125 -0.741770
f 2/2/1 4/4/2 5/5/3 3/3/4 1/1/5
f 2/2/6 11/12/7 12/14/8 8/8/9 6/6/10 4/4/11
f 3/3/12 9/9/13 8/8/14 12/14/15 10/11/16 1/1/17
f 3/3/18 5/5/19 7/7/20 9/9/21
f 5/5/22 4/4/23 6/6/24 7/7/25
f 6/6/26 8/8/27 9/9/28 7/7/29
f 10/10/30 11/13/31 2/2/32 1/1/33
f 10/11/34 12/14/35 11/13/36
