# This file uses centimeters as units for non-parametric coordinates.

v 9.500000 -9.500000 4.016056
v 9.500000 -6.098530 9.500000
v 9.500000 -9.500000 5.241918
v 6.249570 -9.500000 3.933779
v 5.215304 -1.431477 9.500000
v 5.650517 -9.356166 3.872746
v 4.422538 -8.558464 4.377136
v 5.275808 -6.705358 3.017901
v 4.079122 -6.700864 3.833292
v 4.461389 -2.341114 9.500000
v 3.911695 -4.301952 9.500000
v 3.527657 -6.321400 6.817426
v 4.904049 -1.447794 6.667960
v 3.834361 -5.867671 4.172814
v 9.500000 -3.166057 1.996122
v 7.907491 -3.176709 1.959208
v 5.009142 -1.372176 5.431978
v 4.878468 -2.127266 4.238569
v 9.500000 -1.614426 3.476738
v 7.416788 -2.718391 2.388307
v 9.500000 -0.983448 9.500000
v 7.360868 -0.694672 9.500000
v 9.500000 -0.866137 4.704319
v 7.304351 -0.599079 5.904077
vt 0.625000 0.927843
vt 0.697157 0.000000
vt 0.625000 0.044756
vt 0.625000 0.943973
vt 0.681027 0.000000
vt 0.582231 0.926760
vt 0.582231 0.719317
vt 0.568622 0.106165
vt 0.575371 0.677999
vt 0.575371 0.807992
vt 0.561051 0.548455
vt 0.561051 0.801526
vt 0.588699 0.600483
vt 0.588699 0.685787
vt 0.570486 0.664503
vt 0.570475 0.664541
vt 0.558703 0.094196
vt 0.551470 0.068395
vt 0.549764 0.306381
vt 0.549764 0.424895
vt 0.583777 0.238610
vt 0.570217 0.570553
vt 0.570771 0.568589
vt 0.723735 0.083341
vt 0.708411 0.280389
vt 0.679082 0.285208
vt 0.679082 0.313429
vt 0.593773 0.291896
vt 0.593775 0.291891
vt 0.597317 0.383973
vt 0.597417 0.383617
vt 0.704253 0.103758
vt 0.697971 0.184536
vt 0.664684 0.320914
vt 0.664686 0.320909
vt 0.625000 0.112060
vt 0.596854 0.115860
vt 0.688101 0.113603
vt 0.685696 0.144534
vt 0.620004 0.264074
vt 0.619999 0.264091
vn 1.000000 0.000000 0.000000
vn 1.000000 0.000000 0.000000
vn 1.000000 0.000000 0.000000
vn 1.000000 0.000000 0.000000
vn 1.000000 0.000000 0.000000
vn 1.000000 0.000000 0.000000
vn 1.000000 0.000000 0.000000
vn 0.000000 -1.000000 0.000000
vn 0.000000 -1.000000 0.000000
vn 0.000000 -1.000000 0.000000
vn -0.243617 -0.757776 0.605332
vn -0.243617 -0.757776 0.605332
vn -0.243617 -0.757776 0.605332
vn -0.243617 -0.757776 0.605332
vn -0.243617 -0.757776 0.605332
vn -0.243617 -0.757776 0.605332
vn -0.243617 -0.757776 0.605332
vn -0.767422 0.636046 0.080679
vn -0.767422 0.636046 0.080679
vn -0.767422 0.636046 0.080679
vn -0.532968 -0.327003 -0.780393
vn -0.532968 -0.327003 -0.780393
vn -0.532968 -0.327003 -0.780393
vn -0.532968 -0.327003 -0.780393
vn -0.963472 -0.221981 -0.149822
vn -0.963472 -0.221981 -0.149822
vn -0.963472 -0.221981 -0.149822
vn -0.963472 -0.221981 -0.149822
vn -0.960830 0.269355 -0.065218
vn -0.960830 0.269355 -0.065218
vn -0.960830 0.269355 -0.065218
vn -0.960830 0.269355 -0.065218
vn -0.960830 0.269355 -0.065218
vn -0.960830 0.269355 -0.065218
vn -0.960830 0.269355 -0.065218
vn 0.024109 -0.303742 -0.952449
vn 0.024109 -0.303742 -0.952449
vn 0.024109 -0.303742 -0.952449
vn 0.024109 -0.303742 -0.952449
vn 0.024109 -0.303742 -0.952449
vn 0.024109 -0.303742 -0.952449
vn 0.012152 0.690306 -0.723415
vn 0.012152 0.690306 -0.723415
vn 0.012152 0.690306 -0.723415
vn 0.012152 0.690306 -0.723415
vn -0.554541 0.169120 -0.814790
vn -0.554541 0.169120 -0.814790
vn -0.554541 0.169120 -0.814790
vn -0.554541 0.169120 -0.814790
vn -0.554541 0.169120 -0.814790
vn -0.554541 0.169120 -0.814790
vn 0.000000 0.000000 1.000000
vn 0.000000 0.000000 1.000000
vn 0.000000 0.000000 1.000000
vn 0.000000 0.000000 1.000000
vn 0.000000 0.000000 1.000000
vn 0.000000 0.000000 1.000000
vn -0.324643 0.945353 0.030233
vn -0.324643 0.945353 0.030233
vn -0.324643 0.945353 0.030233
vn -0.324643 0.945353 0.030233
vn -0.324643 0.945353 0.030233
vn -0.177678 0.840283 -0.512206
vn -0.177678 0.840283 -0.512206
vn -0.177678 0.840283 -0.512206
vn -0.177678 0.840283 -0.512206
vn -0.177678 0.840283 -0.512206
vn -0.177678 0.840283 -0.512206
vn 0.133744 0.990720 0.024235
vn 0.133744 0.990720 0.024235
vn 0.133744 0.990720 0.024235
vn 0.133744 0.990720 0.024235
f 2/3/1 3/5/2 1/2/3 15/24/4 19/32/5 23/38/6 21/36/7
f 3/4/8 4/6/9 1/1/10
f 2/3/11 11/18/12 12/19/13 7/11/14 6/10/15 4/6/16 3/5/17
f 5/8/18 13/21/19 10/17/20
f 9/15/21 8/14/22 6/10/23 7/12/24
f 12/20/25 14/23/26 9/16/27 7/12/28
f 12/19/29 11/18/30 10/17/31 13/21/32 17/29/33 18/31/34 14/23/35
f 16/26/36 15/25/37 1/1/38 4/7/39 6/9/40 8/13/41
f 16/27/42 20/34/43 19/33/44 15/25/45
f 18/30/46 20/35/47 16/27/48 8/14/49 9/16/50 14/22/51
f 21/36/52 22/37/53 5/8/54 10/17/55 11/18/56 2/3/57
f 22/37/58 24/41/59 17/28/60 13/21/61 5/8/62
f 24/40/63 23/39/64 19/33/65 20/35/66 18/31/67 17/28/68
f 21/36/69 23/39/70 24/41/71 22/37/72
