# This file uses centimeters as units for non-parametric coordinates.

v -9.500000 0.037836 -9.500000
v -9.500000 0.826485 -8.089335
v -9.500000 5.820119 -9.500000
v -9.500000 5.957860 -5.934287
v -6.101044 1.797983 -9.499999
v -6.439169 2.240796 -8.394736
vt 0.125000 0.125498
vt 0.375000 0.624502
vt 0.372724 0.593288
vt 0.143561 0.135875
vt 0.125000 0.201581
vt 0.375000 0.548419
vt 0.171917 0.203393
vt 0.265504 0.390194
vt 0.419723 0.601342
vt 0.413491 0.579190
vn -1.000000 0.000000 0.000000
vn -1.000000 0.000000 0.000000
vn -1.000000 0.000000 0.000000
vn -1.000000 0.000000 0.000000
vn 0.000001 0.000000 -1.000000
vn 0.000001 0.000000 -1.000000
vn 0.000001 0.000000 -1.000000
vn 0.411885 -0.795377 0.444665
vn 0.411885 -0.795376 0.444665
vn 0.411885 -0.795376 0.444665
vn 0.411885 -0.795376 0.444665
vn 0.261486 -0.373741 0.889912
vn 0.261486 -0.373741 0.889912
vn 0.261486 -0.373741 0.889912
vn 0.763560 0.645256 -0.024926
vn 0.763560 0.645256 -0.024926
vn 0.763560 0.645256 -0.024926
vn 0.763560 0.645256 -0.024926
f 1/1/1 2/4/2 4/7/3 3/5/4
f 3/6/5 5/9/6 1/2/7
f 5/9/8 6/10/9 2/3/10 1/2/11
f 6/10/12 4/8/13 2/3/14
f 3/5/15 4/8/16 6/10/17 5/9/18
