# This file uses centimeters as units for non-parametric coordinates.

v -6.397815 -2.743220 2.305312
v -6.481740 -2.811230 2.170570
v -5.382845 -3.190655 0.675362
v -1.002280 -8.282711 0.586454
v -0.559299 -2.653448 -0.234264
v -0.495379 -6.541883 -0.505031
v 0.635796 -6.597770 1.439090
v -1.967961 -3.286712 -1.191319
v -1.186602 -3.211954 -1.370143
v -1.070486 -4.205385 -1.267338
v -5.372917 -2.676877 7.464521
v 1.276933 -5.350951 2.666246
v 0.717939 -2.608889 1.971441
v -7.380021 -4.228059 3.895766
v -5.948959 -6.144322 2.362771
v -2.891066 -8.743672 1.857472
v -5.745265 -3.234153 8.041622
v -3.302949 -5.695327 6.924575
vt 0.347483 0.161965
vt 0.357593 0.151855
vt 0.344246 0.158267
vt 0.352657 0.149855
vt 0.361690 0.178898
vt 0.353381 0.187208
vt 0.456016 0.395313
vt 0.454224 0.385577
vt 0.464854 0.297341
vt 0.461285 0.314355
vt 0.452585 0.385046
vt 0.453745 0.391345
vt 0.498565 0.368921
vt 0.499707 0.375124
vt 0.412716 0.291167
vt 0.410120 0.293764
vt 0.427093 0.314786
vt 0.427607 0.312340
vt 0.430358 0.336122
vt 0.431416 0.335064
vt 0.427011 0.211682
vt 0.428613 0.210081
vt 0.517729 0.355562
vt 0.518444 0.359445
vt 0.507151 0.303235
vt 0.522885 0.228228
vt 0.347397 0.118715
vt 0.353305 0.112807
vt 0.367502 0.161696
vt 0.385833 0.531135
vt 0.428634 0.310591
vt 0.427521 0.304542
vt 0.422762 0.214316
vt 0.422762 0.169787
vt 0.456890 0.163487
vt 0.457159 0.164950
vn -0.169735 0.918257 -0.357764
vn -0.169735 0.918257 -0.357764
vn -0.169735 0.918257 -0.357764
vn -0.169735 0.918257 -0.357764
vn -0.169735 0.918257 -0.357764
vn -0.169735 0.918257 -0.357764
vn 0.743802 -0.496886 -0.447060
vn 0.743802 -0.496886 -0.447060
vn 0.743802 -0.496886 -0.447060
vn -0.452690 -0.375315 -0.808832
vn -0.452690 -0.375315 -0.808832
vn -0.452690 -0.375315 -0.808832
vn -0.452690 -0.375315 -0.808832
vn -0.452690 -0.375315 -0.808832
vn -0.452690 -0.375315 -0.808832
vn -0.452690 -0.375315 -0.808832
vn -0.209978 -0.124892 -0.969696
vn -0.209978 -0.124892 -0.969696
vn -0.209978 -0.124892 -0.969696
vn -0.019297 0.999773 -0.009023
vn -0.019297 0.999773 -0.009023
vn -0.019297 0.999773 -0.009023
vn -0.019297 0.999773 -0.009023
vn 0.863909 0.049105 -0.501248
vn 0.863909 0.049105 -0.501248
vn 0.863909 0.049105 -0.501248
vn 0.863909 0.049105 -0.501248
vn 0.863909 0.049105 -0.501248
vn 0.863909 0.049105 -0.501248
vn 0.863909 0.049105 -0.501248
vn 0.635076 0.308867 0.708011
vn 0.635077 0.308867 0.708010
vn 0.635077 0.308867 0.708010
vn 0.635076 0.308867 0.708010
vn 0.635076 0.308867 0.708010
vn -0.749762 0.646591 0.140629
vn -0.749762 0.646591 0.140629
vn -0.749762 0.646591 0.140629
vn -0.749762 0.646591 0.140629
vn -0.749762 0.646591 0.140629
vn 0.497550 -0.724837 0.476502
vn 0.497550 -0.724837 0.476503
vn 0.497550 -0.724837 0.476502
vn 0.497550 -0.724837 0.476502
vn 0.497550 -0.724837 0.476502
vn -0.814305 -0.162299 -0.557284
vn -0.814305 -0.162299 -0.557284
vn -0.814305 -0.162299 -0.557284
vn -0.814305 -0.162299 -0.557284
vn -0.556358 -0.731228 0.394679
vn -0.556358 -0.731228 0.394679
vn -0.556358 -0.731228 0.394679
vn -0.556358 -0.731228 0.394679
vn -0.556358 -0.731228 0.394679
f 3/6/1 2/4/2 1/2/3 5/10/4 9/17/5 8/16/6
f 6/11/7 7/14/8 4/7/9
f 8/15/10 10/20/11 6/12/12 4/7/13 16/31/14 15/29/15 3/5/16
f 8/16/17 9/18/18 10/20/19
f 11/22/20 13/26/21 5/9/22 1/2/23
f 13/25/24 12/24/25 7/14/26 6/12/27 10/19/28 9/18/29 5/9/30
f 11/21/31 17/34/32 18/36/33 12/24/34 13/26/35
f 14/27/36 17/33/37 11/21/38 1/1/39 2/3/40
f 18/35/41 16/32/42 4/8/43 7/13/44 12/23/45
f 15/30/46 14/28/47 2/4/48 3/5/49
f 14/28/50 15/29/51 16/32/52 18/36/53 17/33/54
