# This file uses centimeters as units for non-parametric coordinates.

v -9.500000 9.500000 -9.500000
v -9.500000 5.820119 -9.500000
v -6.101043 1.797982 -9.500000
v -9.500000 5.957860 -5.934285
v -6.439167 2.240795 -8.394736
v -7.336105 9.500000 -9.500000
v -5.210892 7.486831 -9.500000
v -9.500000 9.500000 -7.908617
v -9.500000 6.483811 -5.566979
v -4.752525 2.057885 -9.500000
v -5.544138 2.521641 -8.159001
v -4.336813 5.688866 -9.500000
v -4.729843 6.125285 -8.796732
v -6.255468 4.768460 -6.621368
vt 0.375000 0.500000
vt 0.125000 0.250000
vt 0.125000 0.201581
vt 0.375000 0.548419
vt 0.419723 0.601342
vt 0.464446 0.534516
vt 0.266179 0.334168
vt 0.171917 0.203393
vt 0.454128 0.521334
vt 0.433921 0.551529
vt 0.403472 0.500000
vt 0.431436 0.526489
vt 0.145939 0.250000
vt 0.375000 0.479061
vt 0.176750 0.210313
vt 0.257016 0.321670
vt 0.437467 0.597923
vt 0.499934 0.504583
vt 0.476511 0.498406
vt 0.432088 0.564783
vt 0.442937 0.550147
vt 0.435581 0.520541
vt 0.374099 0.469134
vt 0.396446 0.435741
vn 0.000000 0.000000 -1.000000
vn 0.000000 0.000000 -1.000000
vn 0.000000 0.000000 -1.000000
vn 0.000000 0.000000 -1.000000
vn 0.000000 0.000000 -1.000000
vn 0.000000 0.000000 -1.000000
vn 0.000000 0.000000 -1.000000
vn -1.000000 0.000000 0.000000
vn -1.000000 0.000000 0.000000
vn -1.000000 0.000000 0.000000
vn -1.000000 0.000000 0.000000
vn -1.000000 0.000000 0.000000
vn -0.763560 -0.645256 0.024926
vn -0.763560 -0.645256 0.024926
vn -0.763560 -0.645256 0.024926
vn -0.763560 -0.645256 0.024926
vn 0.000000 1.000000 0.000000
vn 0.000000 1.000000 0.000000
vn 0.000000 1.000000 0.000000
vn 0.502307 0.530263 0.683015
vn 0.502307 0.530263 0.683015
vn 0.502307 0.530263 0.683015
vn 0.502307 0.530263 0.683015
vn 0.502307 0.530263 0.683015
vn 0.502307 0.530263 0.683015
vn 0.172497 -0.895007 0.411347
vn 0.172497 -0.895008 0.411347
vn 0.172497 -0.895008 0.411347
vn 0.172497 -0.895007 0.411347
vn 0.876222 0.425974 0.225346
vn 0.876222 0.425974 0.225346
vn 0.876222 0.425974 0.225346
vn -0.036251 -0.572187 0.819321
vn -0.036251 -0.572188 0.819321
vn -0.036251 -0.572188 0.819321
vn -0.036251 -0.572187 0.819321
vn -0.036251 -0.572188 0.819321
vn 0.842184 -0.096422 0.530500
vn 0.842184 -0.096422 0.530500
vn 0.842184 -0.096422 0.530500
vn 0.842184 -0.096422 0.530500
vn 0.842184 -0.096422 0.530500
f 1/1/1 6/11/2 7/12/3 12/21/4 10/17/5 3/5/6 2/4/7
f 2/3/8 4/8/9 9/15/10 8/13/11 1/2/12
f 2/4/13 3/6/14 5/10/15 4/7/16
f 8/14/17 6/11/18 1/1/19
f 7/12/20 6/11/21 8/13/22 9/16/23 14/23/24 13/22/25
f 10/18/26 11/19/27 5/9/28 3/6/29
f 13/22/30 12/21/31 7/12/32
f 11/20/33 14/24/34 9/16/35 4/7/36 5/9/37
f 10/17/38 12/21/39 13/22/40 14/24/41 11/19/42
