# This file uses centimeters as units for non-parametric coordinates.

v -4.129022 -0.725167 -6.244967
v -5.084691 -1.551079 -3.860530
v 0.919015 0.005883 -7.075400
v -0.484587 -2.073560 -1.815888
v 1.048096 -1.971481 -4.175347
v -3.496746 1.212847 -9.051310
v -4.601045 1.883134 -7.730617
v -2.382211 1.190881 -8.966289
v -4.306903 0.848188 -1.743688
v -3.724278 0.840066 -1.711512
v -2.233573 2.241534 -6.038194
v -4.368040 2.405336 -6.571618
v -2.732570 2.372117 -6.448996
v -2.892174 -2.510396 -3.573557
v -5.119381 -2.173150 -2.579606
v -0.981950 -2.757060 -1.911542
v -0.422607 -2.855147 -2.951847
v -5.073832 -2.171331 -2.085307
vt 0.445671 0.506054
vt 0.433096 0.424828
vt 0.531721 0.544687
vt 0.587731 0.444108
vt 0.531369 0.401075
vt 0.533104 0.402810
vt 0.556897 0.474735
vt 0.582354 0.429020
vt 0.453990 0.591330
vt 0.439460 0.531015
vt 0.485305 0.569529
vt 0.486540 0.567312
vt 0.433215 0.367123
vt 0.441127 0.365380
vt 0.446300 0.370553
vt 0.493186 0.453295
vt 0.473066 0.489424
vt 0.440189 0.496540
vt 0.439003 0.495354
vt 0.477798 0.476687
vt 0.477560 0.477115
vt 0.480249 0.438521
vt 0.477087 0.444198
vt 0.431307 0.389973
vt 0.525317 0.403266
vt 0.521251 0.410568
vt 0.543062 0.419359
vt 0.534140 0.435381
vt 0.430826 0.376531
vn -0.792224 -0.403911 -0.457424
vn -0.792224 -0.403911 -0.457424
vn -0.792224 -0.403911 -0.457424
vn -0.792224 -0.403911 -0.457424
vn -0.316695 -0.849834 -0.421292
vn -0.316695 -0.849834 -0.421292
vn -0.316696 -0.849834 -0.421292
vn -0.316695 -0.849834 -0.421292
vn 0.612363 0.665612 0.426582
vn 0.612363 0.665612 0.426582
vn 0.612363 0.665612 0.426582
vn 0.612363 0.665612 0.426582
vn 0.612363 0.665612 0.426582
vn 0.026754 -0.825370 -0.563958
vn 0.026754 -0.825370 -0.563958
vn 0.026754 -0.825370 -0.563958
vn 0.026754 -0.825370 -0.563958
vn 0.026754 -0.825370 -0.563958
vn 0.026754 -0.825370 -0.563958
vn 0.026754 -0.825370 -0.563959
vn 0.476481 0.819559 -0.318260
vn 0.476481 0.819559 -0.318260
vn 0.476481 0.819559 -0.318260
vn 0.476481 0.819559 -0.318260
vn 0.049803 0.906810 -0.418588
vn 0.049803 0.906810 -0.418588
vn 0.049803 0.906810 -0.418588
vn 0.049803 0.906810 -0.418588
vn 0.049803 0.906810 -0.418588
vn -0.003687 0.951703 0.306999
vn -0.003687 0.951703 0.306999
vn -0.003687 0.951703 0.306999
vn -0.003687 0.951703 0.306999
vn -0.003687 0.951703 0.306999
vn -0.967777 0.235815 0.088312
vn -0.967777 0.235815 0.088312
vn -0.967777 0.235815 0.088312
vn -0.967777 0.235815 0.088312
vn -0.967777 0.235815 0.088312
vn -0.967777 0.235815 0.088312
vn -0.056239 -0.098127 0.993584
vn -0.056239 -0.098127 0.993584
vn -0.056239 -0.098127 0.993584
vn -0.056239 -0.098127 0.993584
vn -0.056239 -0.098127 0.993584
vn 0.700225 -0.569741 0.430210
vn 0.700225 -0.569740 0.430210
vn 0.700225 -0.569740 0.430210
vn 0.700225 -0.569740 0.430210
vn -0.142377 -0.989671 0.016761
vn -0.142377 -0.989671 0.016761
vn -0.142377 -0.989671 0.016761
vn -0.142377 -0.989671 0.016761
vn -0.142377 -0.989671 0.016761
f 1/1/1 2/2/2 7/10/3 6/9/4
f 1/1/5 14/23/6 15/24/7 2/2/8
f 3/3/9 11/17/10 10/14/11 4/5/12 5/7/13
f 6/9/14 8/12/15 3/4/16 5/8/17 17/27/18 14/22/19 1/1/20
f 8/11/21 13/21/22 11/16/23 3/4/24
f 6/9/25 7/10/26 12/19/27 13/20/28 8/12/29
f 12/18/30 9/13/31 10/14/32 11/16/33 13/20/34
f 15/24/35 18/29/36 9/13/37 12/18/38 7/10/39 2/2/40
f 18/29/41 16/25/42 4/6/43 10/15/44 9/13/45
f 16/26/46 17/28/47 5/7/48 4/6/49
f 15/24/50 14/22/51 17/28/52 16/25/53 18/29/54
