# This file uses centimeters as units for non-parametric coordinates.

v 0.919016 0.005882 -7.075400
v 3.809690 -0.811316 -6.586261
v 1.048097 -1.971481 -4.175348
v -0.484588 -2.073560 -1.815888
v -2.233572 2.241533 -6.038194
v -3.724278 0.840065 -1.711512
v 1.345384 4.103165 -2.075605
v -1.377553 3.633375 -0.192900
v -2.823006 3.417793 -0.639031
v -1.985451 3.634066 -4.287373
v 3.322416 2.122018 -3.402656
v 3.891238 -0.565096 -6.257872
v 3.174636 2.535993 -2.992828
v 2.767307 3.248411 -2.363971
v 1.649507 0.559937 -0.404549
v 1.551580 1.053463 -0.269582
v 3.261152 2.316482 -3.122965
v 2.963925 0.582419 -2.550653
vt 0.578577 0.449348
vt 0.576030 0.454389
vt 0.651991 0.430144
vt 0.652443 0.429250
vt 0.569247 0.444612
vt 0.563655 0.455683
vt 0.517491 0.429724
vt 0.517511 0.429684
vt 0.490918 0.462765
vt 0.445541 0.376260
vt 0.445602 0.376140
vt 0.529003 0.444323
vt 0.526600 0.441921
vt 0.472971 0.365502
vt 0.477603 0.370134
vt 0.447827 0.358348
vt 0.451903 0.362423
vt 0.484090 0.438027
vt 0.583581 0.455878
vt 0.563752 0.495130
vt 0.648778 0.431545
vt 0.630173 0.468376
vt 0.572294 0.459999
vt 0.560599 0.483152
vt 0.555528 0.466048
vt 0.552513 0.463033
vt 0.545517 0.413877
vt 0.545515 0.413881
vt 0.540533 0.407478
vt 0.541688 0.408633
vt 0.563191 0.488756
vt 0.562502 0.488066
vt 0.580280 0.446656
vt 0.586065 0.435205
vn -0.138438 -0.821122 -0.553709
vn -0.138438 -0.821122 -0.553709
vn -0.138438 -0.821122 -0.553709
vn 0.308917 0.722547 -0.618463
vn 0.308917 0.722547 -0.618463
vn 0.308917 0.722547 -0.618463
vn 0.308917 0.722547 -0.618463
vn 0.308917 0.722547 -0.618463
vn 0.308917 0.722547 -0.618463
vn 0.308917 0.722547 -0.618463
vn 0.308917 0.722547 -0.618463
vn 0.308917 0.722547 -0.618463
vn -0.612363 -0.665612 -0.426582
vn -0.612363 -0.665612 -0.426582
vn -0.612363 -0.665612 -0.426582
vn -0.612363 -0.665612 -0.426582
vn -0.612363 -0.665612 -0.426582
vn -0.240170 -0.300119 0.923172
vn -0.240170 -0.300119 0.923172
vn -0.240170 -0.300119 0.923172
vn -0.240170 -0.300119 0.923172
vn -0.240170 -0.300119 0.923172
vn -0.240170 -0.300119 0.923172
vn -0.901568 0.391676 -0.183756
vn -0.901568 0.391676 -0.183756
vn -0.901568 0.391676 -0.183756
vn -0.901568 0.391676 -0.183756
vn -0.154444 0.987732 0.023096
vn -0.154444 0.987732 0.023096
vn -0.154444 0.987732 0.023096
vn -0.154444 0.987732 0.023096
vn 0.961284 -0.077493 0.264440
vn 0.961284 -0.077493 0.264440
vn 0.961284 -0.077493 0.264440
vn 0.961284 -0.077493 0.264440
vn 0.441795 0.479053 0.758502
vn 0.441795 0.479053 0.758502
vn 0.441795 0.479053 0.758502
vn 0.441795 0.479053 0.758502
vn 0.615143 -0.696490 0.369459
vn 0.615143 -0.696490 0.369459
vn 0.615143 -0.696490 0.369459
vn 0.615143 -0.696490 0.369459
vn 0.615143 -0.696490 0.369459
vn 0.615143 -0.696490 0.369459
vn 0.908755 0.408577 -0.085018
vn 0.908755 0.408577 -0.085018
vn 0.908755 0.408577 -0.085018
vn 0.852350 0.026287 0.522311
vn 0.852350 0.026287 0.522311
vn 0.852350 0.026287 0.522311
vn 0.852350 0.026287 0.522311
vn 0.852350 0.026287 0.522311
vn 0.852350 0.026287 0.522311
f 1/1/1 2/4/2 3/5/3
f 1/2/4 5/9/5 10/18/6 7/13/7 14/26/8 13/23/9 11/19/10 12/21/11 2/3/12
f 6/10/13 5/9/14 1/2/15 3/6/16 4/7/17
f 8/15/18 9/17/19 6/11/20 4/8/21 15/27/22 16/30/23
f 9/16/24 10/18/25 5/9/26 6/11/27
f 7/13/28 10/18/29 9/17/30 8/14/31
f 12/21/32 11/20/33 17/31/34 18/34/35
f 16/29/36 14/25/37 7/12/38 8/14/39
f 18/33/40 15/28/41 4/7/42 3/5/43 2/3/44 12/22/45
f 13/24/46 17/32/47 11/20/48
f 13/23/49 14/25/50 16/30/51 15/28/52 18/34/53 17/32/54
