# This file uses centimeters as units for non-parametric coordinates.

v -4.306903 0.848188 -1.743687
v -3.724279 0.840066 -1.711511
v -2.233573 2.241534 -6.038193
v -4.368039 2.405336 -6.571617
v -2.732569 2.372116 -6.448996
v -2.823006 3.417793 -0.639031
v -5.384222 3.848159 -0.624655
v -1.985451 3.634066 -4.287373
v -5.124543 4.203486 -4.697923
v -2.701443 3.813363 -4.885383
vt 0.435993 0.339656
vt 0.436135 0.339406
vt 0.444230 0.332194
vt 0.444533 0.331663
vt 0.467738 0.470038
vt 0.467603 0.470274
vt 0.440148 0.490890
vt 0.461582 0.483867
vt 0.447234 0.279662
vt 0.448491 0.277458
vt 0.410158 0.305133
vt 0.410200 0.305060
vt 0.467454 0.407939
vt 0.467537 0.407794
vt 0.424980 0.435863
vt 0.420854 0.431508
vt 0.454794 0.432537
vn 0.901568 -0.391676 0.183755
vn 0.901568 -0.391676 0.183756
vn 0.901568 -0.391676 0.183755
vn 0.901568 -0.391676 0.183755
vn 0.003687 -0.951703 -0.306998
vn 0.003687 -0.951703 -0.306998
vn 0.003687 -0.951703 -0.306998
vn 0.003687 -0.951703 -0.306998
vn 0.003687 -0.951703 -0.306998
vn 0.602584 0.580791 -0.547334
vn 0.602584 0.580791 -0.547334
vn 0.602584 0.580791 -0.547334
vn 0.602584 0.580791 -0.547334
vn -0.056397 -0.366652 0.928647
vn -0.056397 -0.366651 0.928647
vn -0.056397 -0.366651 0.928648
vn -0.056397 -0.366652 0.928647
vn -0.947474 -0.307703 -0.087246
vn -0.947474 -0.307703 -0.087246
vn -0.947474 -0.307703 -0.087246
vn -0.947474 -0.307703 -0.087246
vn 0.065648 0.733055 -0.676994
vn 0.065648 0.733055 -0.676994
vn 0.065648 0.733055 -0.676994
vn 0.065648 0.733055 -0.676994
vn 0.165466 0.981515 0.096170
vn 0.165466 0.981515 0.096170
vn 0.165466 0.981515 0.096170
vn 0.165466 0.981515 0.096170
vn 0.165466 0.981515 0.096170
f 2/3/1 3/6/2 8/13/3 6/9/4
f 4/7/5 5/8/6 3/5/7 2/4/8 1/1/9
f 5/8/10 10/17/11 8/14/12 3/5/13
f 6/10/14 7/12/15 1/2/16 2/4/17
f 7/11/18 9/15/19 4/7/20 1/1/21
f 9/16/22 10/17/23 5/8/24 4/7/25
f 6/9/26 8/14/27 10/17/28 9/15/29 7/12/30
