# This file uses centimeters as units for non-parametric coordinates.

v 9.500000 1.374932 -6.415655
v 9.500000 -3.166059 1.996122
v 4.546781 -0.787904 -7.688259
v 3.322415 2.122020 -3.402653
v 7.907492 -3.176710 1.959208
v 4.132037 -0.832247 -6.903230
v 3.891238 -0.565096 -6.257872
v 9.500000 -0.344544 -8.712006
v 9.500000 -3.796309 -4.704533
v 4.958515 -1.096937 -8.235289
v 4.846694 -1.521501 -7.752144
v 7.882852 -3.814863 -4.824288
v 3.261152 2.316481 -3.122966
v 9.500000 3.191822 1.258570
v 9.500000 -1.614425 3.476740
v 5.729850 3.818400 -1.922508
v 7.416788 -2.718391 2.388307
v 2.963925 0.582420 -2.550654
vt 0.834417 0.143091
vt 0.639750 0.551576
vt 0.723735 0.083341
vt 0.721835 0.085241
vt 0.559826 0.577706
vt 0.559826 0.589389
vt 0.550233 0.454932
vt 0.550233 0.458335
vt 0.675602 0.180059
vt 0.676986 0.178674
vt 0.554369 0.550716
vt 0.551828 0.531223
vt 0.551828 0.530895
vt 0.864632 0.120467
vt 0.628768 0.615397
vt 0.811902 0.075049
vt 0.811109 0.075841
vt 0.565244 0.599182
vt 0.565244 0.607338
vt 0.563772 0.587650
vt 0.691529 0.333165
vt 0.692094 0.332600
vt 0.549913 0.447343
vt 0.549913 0.449871
vt 0.637458 0.368404
vt 0.733440 0.166998
vt 0.704253 0.103758
vt 0.685224 0.143687
vt 0.592472 0.421703
vt 0.592472 0.402561
vt 0.656676 0.212005
vt 0.656686 0.211995
vt 0.541473 0.458456
vt 0.541473 0.458558
vn 1.000000 0.000000 0.000000
vn 1.000000 0.000000 0.000000
vn 1.000000 0.000000 0.000000
vn 1.000000 0.000000 0.000000
vn 1.000000 0.000000 0.000000
vn 1.000000 0.000000 0.000000
vn 0.335474 0.916708 -0.217033
vn 0.335474 0.916708 -0.217033
vn 0.335474 0.916708 -0.217033
vn -0.012152 -0.690306 0.723415
vn -0.012152 -0.690306 0.723415
vn -0.012152 -0.690306 0.723415
vn -0.012152 -0.690306 0.723415
vn -0.191897 0.785590 -0.588238
vn -0.191897 0.785590 -0.588239
vn -0.191897 0.785590 -0.588239
vn -0.191897 0.785590 -0.588239
vn -0.191897 0.785590 -0.588239
vn -0.191897 0.785590 -0.588239
vn -0.191897 0.785590 -0.588238
vn -0.961284 0.077493 -0.264440
vn -0.961284 0.077493 -0.264439
vn -0.961284 0.077493 -0.264439
vn -0.961284 0.077493 -0.264440
vn -0.854795 0.281981 -0.435674
vn -0.854795 0.281981 -0.435674
vn -0.854795 0.281981 -0.435674
vn -0.854795 0.281981 -0.435674
vn 0.004488 -0.995596 0.093644
vn 0.004488 -0.995596 0.093644
vn 0.004488 -0.995596 0.093644
vn 0.004488 -0.995596 0.093644
vn -0.835823 -0.301768 -0.458625
vn -0.835823 -0.301768 -0.458625
vn -0.835823 -0.301768 -0.458625
vn -0.835823 -0.301768 -0.458625
vn -0.645457 -0.760217 0.073861
vn -0.645457 -0.760217 0.073861
vn -0.645457 -0.760217 0.073861
vn -0.645457 -0.760217 0.073861
vn -0.645457 -0.760217 0.073861
vn -0.645457 -0.760217 0.073861
vn -0.645457 -0.760217 0.073861
vn 0.056929 -0.756457 -0.651561
vn 0.056929 -0.756457 -0.651561
vn 0.056929 -0.756457 -0.651561
vn 0.056929 -0.756457 -0.651561
vn 0.056929 -0.756457 -0.651561
vn -0.571510 0.343865 0.745073
vn -0.571510 0.343865 0.745073
vn -0.571510 0.343865 0.745073
vn -0.571510 0.343865 0.745073
vn -0.571510 0.343865 0.745073
vn -0.571510 0.343865 0.745073
f 1/1/1 14/26/2 15/27/3 2/3/4 9/16/5 8/14/6
f 1/2/7 16/30/8 14/25/9
f 2/3/10 15/28/11 17/31/12 5/10/13
f 3/6/14 4/8/15 13/24/16 16/29/17 1/2/18 8/15/19 10/19/20
f 4/7/21 7/13/22 18/33/23 13/23/24
f 3/5/25 6/11/26 7/12/27 4/8/28
f 12/21/29 9/17/30 2/4/31 5/9/32
f 10/18/33 11/20/34 6/11/35 3/5/36
f 11/20/37 12/22/38 5/10/39 17/32/40 18/34/41 7/12/42 6/11/43
f 8/14/44 9/17/45 12/22/46 11/20/47 10/19/48
f 15/27/49 14/25/50 16/29/51 13/23/52 18/34/53 17/31/54
