# This file uses centimeters as units for non-parametric coordinates.

v 6.790308 9.500000 9.500000
v 5.215304 -1.431477 9.500000
v 4.904048 -1.447794 6.667956
v 2.466591 1.655718 3.599160
v 4.589420 4.861067 3.196032
v 4.386229 -0.945212 5.089120
v 5.009142 -1.372177 5.431976
v 4.312333 9.500000 9.500000
v 0.743084 4.623901 6.004791
v 1.216930 4.510722 9.500000
v 3.704252 9.500000 5.593530
v 6.835853 9.362922 9.500000
v 7.360869 -0.694672 9.500000
v 7.221023 0.855291 5.387038
v 7.304351 -0.599079 5.904076
v 3.852112 9.500000 5.482155
v 5.200299 9.500000 6.821546
v 4.358333 7.879769 4.496350
vt 0.589346 0.250000
vt 0.568622 0.106165
vt 0.587198 0.120688
vt 0.569767 0.187518
vt 0.594486 0.239490
vt 0.592080 0.241895
vt 0.590695 0.137869
vt 0.598206 0.131919
vt 0.556741 0.250000
vt 0.524412 0.217508
vt 0.516012 0.184352
vt 0.548740 0.301401
vt 0.549282 0.300859
vt 0.589945 0.248196
vt 0.596853 0.115860
vt 0.624101 0.173300
vt 0.625356 0.147627
vt 0.550686 0.302866
vt 0.552368 0.301184
vt 0.568425 0.285243
vt 0.572268 0.280183
vt 0.568416 0.284036
vn 0.000000 1.000000 0.000000
vn 0.000000 1.000000 0.000000
vn 0.000000 1.000000 0.000000
vn 0.000000 1.000000 0.000000
vn 0.000000 1.000000 0.000000
vn 0.826816 0.274718 -0.490822
vn 0.826816 0.274718 -0.490822
vn 0.826816 0.274718 -0.490822
vn 0.826816 0.274718 -0.490822
vn 0.826816 0.274718 -0.490822
vn 0.826816 0.274718 -0.490822
vn -0.526083 -0.844949 -0.096426
vn -0.526083 -0.844949 -0.096426
vn -0.526083 -0.844949 -0.096426
vn -0.576600 0.285596 -0.765485
vn -0.576600 0.285596 -0.765485
vn -0.576600 0.285596 -0.765485
vn -0.576600 0.285596 -0.765485
vn -0.576600 0.285596 -0.765485
vn -0.576600 0.285596 -0.765485
vn 0.289573 -0.305845 -0.906976
vn 0.289573 -0.305845 -0.906976
vn 0.289573 -0.305845 -0.906976
vn 0.289573 -0.305845 -0.906976
vn 0.289573 -0.305845 -0.906976
vn 0.289573 -0.305845 -0.906976
vn 0.000000 0.000000 1.000000
vn 0.000000 0.000000 1.000000
vn 0.000000 0.000000 1.000000
vn 0.000000 0.000000 1.000000
vn 0.000000 0.000000 1.000000
vn 0.000000 0.000000 1.000000
vn -0.825992 -0.555792 0.093983
vn -0.825992 -0.555792 0.093983
vn -0.825992 -0.555792 0.093983
vn -0.825992 -0.555792 0.093983
vn -0.825992 -0.555792 0.093983
vn -0.825992 -0.555792 0.093983
vn -0.842409 0.522640 0.131129
vn -0.842409 0.522640 0.131129
vn -0.842409 0.522640 0.131129
vn -0.842409 0.522640 0.131129
vn 0.324643 -0.945353 -0.030233
vn 0.324643 -0.945353 -0.030233
vn 0.324643 -0.945353 -0.030233
vn 0.324643 -0.945353 -0.030233
vn 0.324643 -0.945353 -0.030233
vn 0.998538 0.052125 -0.014309
vn 0.998538 0.052125 -0.014309
vn 0.998538 0.052125 -0.014309
vn 0.998538 0.052125 -0.014309
vn 0.590429 0.546070 -0.594307
vn 0.590430 0.546070 -0.594307
vn 0.590430 0.546070 -0.594307
f 1/1/1 17/20/2 16/18/3 11/12/4 8/9/5
f 1/1/6 12/14/7 14/16/8 5/6/9 18/22/10 17/20/11
f 3/3/12 6/7/13 7/8/14
f 5/5/15 4/4/16 9/10/17 11/13/18 16/19/19 18/21/20
f 6/7/21 4/4/22 5/6/23 14/16/24 15/17/25 7/8/26
f 8/9/27 10/11/28 2/2/29 13/15/30 12/14/31 1/1/32
f 10/11/33 9/10/34 4/4/35 6/7/36 3/3/37 2/2/38
f 8/9/39 11/13/40 9/10/41 10/11/42
f 15/17/43 13/15/44 2/2/45 3/3/46 7/8/47
f 14/16/48 12/14/49 13/15/50 15/17/51
f 16/18/52 17/20/53 18/21/54
