# This file uses centimeters as units for non-parametric coordinates.

v 6.790308 9.500000 9.500000
v 4.589420 4.861067 3.196032
v 4.968758 5.561620 2.461232
v 9.500000 4.006406 1.842021
v 6.900912 9.500000 9.500000
v 6.835854 9.362922 9.500000
v 9.500000 1.777196 3.674663
v 7.221022 0.855292 5.387037
v 5.200301 9.500001 6.821549
v 4.358334 7.879769 4.496351
v 4.580083 7.270569 3.814692
v 9.500000 4.266085 1.821848
v 9.182032 4.291974 1.740425
v 5.752491 5.577844 2.119655
v 9.500000 7.919413 6.385493
v 8.508427 9.500000 8.005152
vt 0.589346 0.250000
vt 0.577174 0.353797
vt 0.577174 0.353561
vt 0.595391 0.353870
vt 0.595391 0.353893
vt 0.725763 0.177716
vt 0.590801 0.250000
vt 0.589945 0.248196
vt 0.701649 0.148384
vt 0.612878 0.249479
vt 0.612878 0.249424
vt 0.568425 0.285243
vt 0.571581 0.282086
vt 0.566511 0.319818
vt 0.566511 0.319735
vt 0.577032 0.329862
vt 0.577032 0.329903
vt 0.726028 0.181133
vt 0.717639 0.197658
vt 0.619597 0.335653
vt 0.619597 0.335673
vt 0.640687 0.254496
vt 0.665980 0.229203
vt 0.611953 0.269669
vn 0.000000 0.000000 1.000000
vn 0.000000 0.000000 1.000000
vn 0.000000 0.000000 1.000000
vn -0.826816 -0.274718 0.490822
vn -0.826816 -0.274718 0.490822
vn -0.826816 -0.274718 0.490822
vn -0.826816 -0.274718 0.490822
vn -0.826816 -0.274718 0.490822
vn -0.826816 -0.274718 0.490822
vn -0.918571 0.094954 -0.383680
vn -0.918571 0.094954 -0.383680
vn -0.918571 0.094954 -0.383680
vn -0.918571 0.094954 -0.383681
vn 0.647976 -0.307535 0.696814
vn 0.647976 -0.307534 0.696814
vn 0.647976 -0.307535 0.696814
vn 0.647976 -0.307535 0.696814
vn 0.647976 -0.307534 0.696814
vn 0.647976 -0.307534 0.696814
vn 0.241622 -0.075154 -0.967456
vn 0.241622 -0.075154 -0.967456
vn 0.241622 -0.075154 -0.967456
vn 0.000000 1.000000 0.000000
vn 0.000000 1.000000 0.000000
vn 0.000000 1.000000 0.000000
vn 0.000000 1.000000 0.000000
vn -0.347457 0.532339 -0.771938
vn -0.347457 0.532339 -0.771938
vn -0.347457 0.532339 -0.771938
vn -0.307815 -0.604217 -0.734964
vn -0.307815 -0.604217 -0.734964
vn -0.307815 -0.604217 -0.734964
vn -0.307815 -0.604217 -0.734964
vn -0.307815 -0.604217 -0.734964
vn -0.307815 -0.604217 -0.734964
vn -0.307815 -0.604217 -0.734964
vn 1.000000 0.000000 0.000000
vn 1.000000 0.000000 0.000000
vn 1.000000 0.000000 0.000000
vn 1.000000 0.000000 0.000000
vn 0.218209 0.761855 -0.609887
vn 0.218209 0.761855 -0.609887
vn 0.218209 0.761855 -0.609887
vn 0.218209 0.761855 -0.609887
vn 0.218209 0.761855 -0.609887
vn 0.218209 0.761855 -0.609887
vn 0.218209 0.761855 -0.609887
vn 0.218209 0.761855 -0.609887
f 1/1/1 6/8/2 5/7/3
f 1/1/4 9/13/5 10/14/6 2/2/7 8/10/8 6/8/9
f 3/4/10 2/3/11 10/15/12 11/16/13
f 5/7/14 6/8/15 8/11/16 7/9/17 15/22/18 16/24/19
f 13/19/20 12/18/21 4/6/22
f 16/24/23 9/12/24 1/1/25 5/7/26
f 11/17/27 14/20/28 3/5/29
f 14/21/30 13/19/31 4/6/32 7/9/33 8/11/34 2/3/35 3/5/36
f 12/18/37 15/23/38 7/9/39 4/6/40
f 13/19/41 14/20/42 11/16/43 10/14/44 9/12/45 16/24/46 15/23/47 12/18/48
