# This file uses centimeters as units for non-parametric coordinates.

v -9.500000 -9.500000 9.500000
v -9.500000 -4.443567 9.500000
v -2.680015 -9.500000 9.500000
v -2.776067 -9.500000 1.647186
v -9.500000 -9.500000 2.418970
v -9.500000 -4.929310 4.530988
v -7.027216 -9.500000 1.300078
v -2.891065 -8.743672 1.857471
v -7.380021 -4.228058 3.895767
v -5.948957 -6.144325 2.362770
v -5.989511 -3.179535 9.500000
v -3.196814 -6.175447 9.500000
v -5.745265 -3.234152 8.041623
v -3.302949 -5.695326 6.924576
vt 0.375000 0.000000
vt 0.375000 1.000000
vt 0.375000 0.066532
vt 0.464737 0.000000
vt 0.464737 1.000000
vt 0.394202 0.339341
vt 0.463473 0.896674
vt 0.281829 0.000000
vt 0.375000 0.906829
vt 0.309618 0.060141
vt 0.312167 0.124796
vt 0.407537 0.892106
vt 0.394506 0.336557
vt 0.397855 0.313028
vt 0.337089 0.149831
vt 0.336879 0.149621
vt 0.348347 0.160557
vt 0.381074 0.423867
vt 0.421191 0.083164
vt 0.421191 0.312684
vt 0.457937 0.043744
vt 0.457937 0.419167
vt 0.411995 0.301411
vt 0.417280 0.264279
vt 0.434343 0.161442
vt 0.435461 0.153588
vn 0.000000 0.000000 1.000000
vn 0.000000 0.000000 1.000000
vn 0.000000 0.000000 1.000000
vn 0.000000 0.000000 1.000000
vn 0.000000 0.000000 1.000000
vn -1.000000 0.000000 0.000000
vn -1.000000 0.000000 0.000000
vn -1.000000 0.000000 0.000000
vn -1.000000 0.000000 0.000000
vn -0.337356 0.936911 -0.091587
vn -0.337356 0.936911 -0.091587
vn -0.337356 0.936911 -0.091587
vn -0.337356 0.936911 -0.091587
vn -0.337356 0.936911 -0.091587
vn 0.000000 -1.000000 0.000000
vn 0.000000 -1.000000 0.000000
vn 0.000000 -1.000000 0.000000
vn 0.000000 -1.000000 0.000000
vn 0.000000 -1.000000 0.000000
vn -0.379948 0.388006 -0.839697
vn -0.379948 0.388006 -0.839697
vn -0.379948 0.388006 -0.839697
vn -0.379948 0.388006 -0.839697
vn -0.379948 0.388006 -0.839697
vn 0.078170 0.278068 -0.957375
vn 0.078170 0.278068 -0.957375
vn 0.078170 0.278068 -0.957375
vn 0.078170 0.278068 -0.957375
vn 0.556358 0.731228 -0.394679
vn 0.556358 0.731228 -0.394679
vn 0.556359 0.731228 -0.394679
vn 0.556358 0.731228 -0.394679
vn 0.556358 0.731228 -0.394679
vn 0.988060 0.153593 -0.012085
vn 0.988060 0.153593 -0.012085
vn 0.988060 0.153593 -0.012085
vn 0.988060 0.153593 -0.012085
vn 0.988060 0.153593 -0.012085
vn 0.728065 0.678680 0.096518
vn 0.728065 0.678680 0.096518
vn 0.728065 0.678680 0.096518
vn 0.728065 0.678680 0.096518
f 1/1/1 3/4/2 12/21/3 11/19/4 2/3/5
f 2/3/6 6/10/7 5/8/8 1/1/9
f 2/3/10 11/20/11 13/23/12 9/15/13 6/10/14
f 5/9/15 7/12/16 4/7/17 3/5/18 1/2/19
f 5/8/20 6/10/21 9/16/22 10/18/23 7/12/24
f 10/17/25 8/14/26 4/6/27 7/11/28
f 9/15/29 13/24/30 14/26/31 8/14/32 10/18/33
f 14/25/34 12/22/35 3/5/36 4/6/37 8/13/38
f 11/19/39 12/22/40 14/26/41 13/23/42
