# This file uses centimeters as units for non-parametric coordinates.

v 4.704698 9.500000 -9.500000
v 7.150068 9.500000 -5.156417
v 2.786265 3.967474 -2.504064
v 3.778246 9.500000 -9.500000
v 3.858374 8.700566 -9.500000
v 2.837870 6.836719 -7.807822
v 6.007859 6.857818 -2.216814
v 5.844474 9.500000 -1.758445
v 1.394880 9.500000 -0.079894
v 1.637614 5.314575 -2.393592
v 0.365180 8.045772 -4.511948
v -0.632555 9.500000 -1.280993
v -0.465742 9.500000 -3.551622
v 3.591206 4.353644 -1.800455
v 3.740273 4.452992 -1.722491
v 3.670557 4.450525 -1.696562
vt 0.561904 0.500000
vt 0.594080 0.442848
vt 0.664415 0.372512
vt 0.566879 0.353765
vt 0.557248 0.363396
vt 0.549714 0.500000
vt 0.550768 0.510519
vt 0.544650 0.482064
vt 0.542320 0.484393
vt 0.633921 0.325938
vt 0.593424 0.366435
vt 0.576901 0.398137
vt 0.518354 0.376051
vt 0.537121 0.372790
vt 0.508131 0.434542
vt 0.491677 0.391855
vt 0.493872 0.421732
vt 0.582571 0.334294
vt 0.568800 0.348065
vt 0.585565 0.331725
vt 0.584727 0.332563
vt 0.569760 0.346422
vt 0.583915 0.332267
vn 0.000000 0.000000 -1.000000
vn 0.000000 0.000000 -1.000000
vn 0.000000 0.000000 -1.000000
vn 0.640486 -0.678054 -0.360584
vn 0.640486 -0.678054 -0.360584
vn 0.640486 -0.678054 -0.360584
vn 0.640486 -0.678054 -0.360584
vn 0.640486 -0.678054 -0.360584
vn 0.640486 -0.678054 -0.360584
vn 0.640486 -0.678054 -0.360584
vn 0.640486 -0.678054 -0.360584
vn 0.000000 1.000000 -0.000000
vn 0.000000 1.000000 -0.000000
vn 0.000000 1.000000 -0.000000
vn 0.000000 1.000000 -0.000000
vn 0.000000 1.000000 -0.000000
vn 0.000000 1.000000 -0.000000
vn 0.000000 1.000000 -0.000000
vn -0.811351 -0.081322 -0.578874
vn -0.811351 -0.081322 -0.578874
vn -0.811351 -0.081322 -0.578874
vn -0.811351 -0.081322 -0.578874
vn -0.811351 -0.081322 -0.578874
vn 0.933457 -0.004498 0.358660
vn 0.933457 -0.004498 0.358660
vn 0.933457 -0.004498 0.358660
vn -0.454941 -0.450897 0.767933
vn -0.454941 -0.450897 0.767933
vn -0.454941 -0.450897 0.767933
vn -0.454941 -0.450897 0.767933
vn -0.454941 -0.450897 0.767933
vn -0.454941 -0.450897 0.767933
vn -0.731513 -0.596693 -0.329919
vn -0.731513 -0.596693 -0.329919
vn -0.731513 -0.596693 -0.329919
vn -0.731513 -0.596693 -0.329919
vn -0.884302 -0.462374 -0.064966
vn -0.884302 -0.462374 -0.064966
vn -0.884302 -0.462374 -0.064966
vn -0.884302 -0.462374 -0.064966
vn 0.349525 -0.139124 0.926540
vn 0.349525 -0.139124 0.926540
vn 0.349525 -0.139124 0.926540
vn 0.349525 -0.139124 0.926540
vn 0.349525 -0.139124 0.926540
vn 0.236358 -0.794090 0.559960
vn 0.236358 -0.794090 0.559960
vn 0.236358 -0.794090 0.559960
f 1/1/1 5/7/2 4/6/3
f 1/1/4 2/3/5 7/10/6 15/20/7 14/18/8 3/4/9 6/8/10 5/7/11
f 4/6/12 13/17/13 12/16/14 9/13/15 8/12/16 2/2/17 1/1/18
f 4/6/19 5/7/20 6/9/21 11/15/22 13/17/23
f 8/12/24 7/11/25 2/2/26
f 12/16/27 10/14/28 3/5/29 14/19/30 16/22/31 9/13/32
f 10/14/33 11/15/34 6/9/35 3/5/36
f 12/16/37 13/17/38 11/15/39 10/14/40
f 16/23/41 15/21/42 7/11/43 8/12/44 9/13/45
f 14/18/46 15/21/47 16/22/48
