# This file uses centimeters as units for non-parametric coordinates.

v 9.500000 -9.500000 9.500000
v 9.500000 -6.098530 9.500000
v 9.500000 -9.500000 5.241918
v 6.249574 -9.500000 3.933780
v 2.090941 -9.500000 9.500000
v 5.650517 -9.356165 3.872746
v 5.675053 -9.500000 3.866932
v 4.312017 -9.500000 4.456318
v 4.422539 -8.558465 4.377135
v 3.911696 -4.301952 9.500000
v 2.316195 -6.696539 9.500000
v 3.527656 -6.321399 6.817429
vt 0.625000 0.000000
vt 0.625000 1.000000
vt 0.625000 0.044756
vt 0.625000 0.943973
vt 0.681027 0.000000
vt 0.582231 0.926760
vt 0.582231 0.718105
vt 0.527512 0.000000
vt 0.527512 1.000000
vt 0.574992 0.671481
vt 0.575057 0.674062
vt 0.574672 0.925881
vt 0.574672 0.680345
vt 0.556737 0.810005
vt 0.556737 0.933636
vt 0.559938 0.535081
vt 0.560091 0.541187
vt 0.551470 0.068395
vt 0.530476 0.036888
vt 0.548258 0.301254
vt 0.548330 0.304113
vn 1.000000 0.000000 0.000000
vn 1.000000 0.000000 0.000000
vn 1.000000 0.000000 0.000000
vn 0.000000 0.000000 1.000000
vn 0.000000 0.000000 1.000000
vn 0.000000 0.000000 1.000000
vn 0.000000 0.000000 1.000000
vn 0.000000 0.000000 1.000000
vn 0.243616 0.757776 -0.605332
vn 0.243616 0.757776 -0.605332
vn 0.243616 0.757776 -0.605332
vn 0.243616 0.757776 -0.605332
vn 0.243616 0.757776 -0.605332
vn 0.243616 0.757776 -0.605332
vn 0.243616 0.757776 -0.605332
vn 0.000000 -1.000000 0.000000
vn 0.000000 -1.000000 0.000000
vn 0.000000 -1.000000 0.000000
vn 0.000000 -1.000000 0.000000
vn 0.000000 -1.000000 0.000000
vn 0.000000 -1.000000 0.000000
vn -0.912726 0.073336 -0.401936
vn -0.912726 0.073336 -0.401936
vn -0.912726 0.073336 -0.401936
vn -0.912726 0.073336 -0.401936
vn -0.912726 0.073336 -0.401936
vn 0.115367 0.059759 -0.991524
vn 0.115367 0.059759 -0.991524
vn 0.115367 0.059759 -0.991524
vn -0.396706 -0.030589 -0.917436
vn -0.396706 -0.030589 -0.917436
vn -0.396706 -0.030589 -0.917436
vn -0.396706 -0.030589 -0.917436
vn -0.797473 0.531352 -0.285836
vn -0.797473 0.531352 -0.285836
vn -0.797473 0.531352 -0.285836
f 1/1/1 3/5/2 2/3/3
f 2/3/4 10/18/5 11/19/6 5/8/7 1/1/8
f 2/3/9 3/4/10 4/7/11 6/10/12 9/16/13 12/20/14 10/18/15
f 5/9/16 8/15/17 7/12/18 4/6/19 3/4/20 1/2/21
f 5/8/22 11/19/23 12/21/24 9/17/25 8/14/26
f 7/13/27 6/11/28 4/7/29
f 9/16/30 6/11/31 7/12/32 8/14/33
f 11/19/34 10/18/35 12/21/36
