# This file uses centimeters as units for non-parametric coordinates.

v -6.397817 -2.743221 2.305310
v -0.559300 -2.653448 -0.234265
v -5.100429 -1.848442 8.123162
v -5.372918 -2.676878 7.464522
v 0.717939 -2.608890 1.971441
v 1.548911 0.908544 0.461704
v 1.938293 1.019151 2.863692
v 1.656524 0.395319 0.179601
v 2.363725 -0.278635 3.020315
v 2.395582 -0.604652 2.633977
v -5.476342 1.071716 3.641405
v -5.006611 -0.887031 7.755281
v -0.183342 2.172835 1.805120
v 1.131472 1.563558 3.184939
vt 0.379596 0.151736
vt 0.477322 0.361694
vt 0.477315 0.361701
vt 0.436628 0.504316
vt 0.434902 0.506042
vt 0.426000 0.487601
vt 0.519312 0.359152
vt 0.519255 0.359210
vt 0.539101 0.389311
vt 0.539130 0.389282
vt 0.557310 0.191759
vt 0.536141 0.374240
vt 0.538556 0.398789
vt 0.538527 0.398818
vt 0.565956 0.232050
vt 0.566037 0.231968
vt 0.563557 0.242046
vt 0.563539 0.242064
vt 0.411490 0.179694
vt 0.438862 0.449541
vt 0.436675 0.451728
vt 0.510812 0.317795
vt 0.510829 0.317778
vt 0.542270 0.196401
vt 0.525311 0.342593
vn -0.967448 0.167124 0.190038
vn -0.967448 0.167124 0.190039
vn -0.967448 0.167124 0.190038
vn -0.967448 0.167124 0.190038
vn -0.967448 0.167124 0.190038
vn 0.019297 -0.999773 0.009023
vn 0.019297 -0.999773 0.009023
vn 0.019297 -0.999773 0.009023
vn 0.019297 -0.999773 0.009023
vn 0.520853 0.844690 -0.123331
vn 0.520853 0.844690 -0.123331
vn 0.520853 0.844690 -0.123331
vn 0.520853 0.844690 -0.123331
vn 0.757502 -0.492353 -0.428694
vn 0.757502 -0.492353 -0.428694
vn 0.757502 -0.492353 -0.428694
vn 0.757502 -0.492353 -0.428694
vn 0.524600 -0.628830 0.573906
vn 0.524600 -0.628830 0.573906
vn 0.524600 -0.628830 0.573906
vn 0.524600 -0.628830 0.573906
vn 0.524600 -0.628830 0.573906
vn 0.942798 0.289011 -0.166144
vn 0.942798 0.289011 -0.166144
vn 0.942798 0.289011 -0.166144
vn 0.942798 0.289011 -0.166144
vn 0.942798 0.289011 -0.166144
vn 0.505635 0.264847 0.821090
vn 0.505635 0.264847 0.821090
vn 0.505635 0.264847 0.821090
vn 0.505635 0.264847 0.821090
vn 0.505635 0.264847 0.821090
vn -0.372996 0.385648 -0.843890
vn -0.372996 0.385648 -0.843890
vn -0.372996 0.385648 -0.843890
vn -0.372996 0.385648 -0.843890
vn -0.372996 0.385648 -0.843890
vn -0.372996 0.385648 -0.843890
vn -0.037121 0.900607 0.433046
vn -0.037121 0.900607 0.433046
vn -0.037121 0.900607 0.433046
vn -0.037121 0.900607 0.433046
f 1/1/1 4/6/2 3/4/3 12/20/4 11/19/5
f 5/8/6 4/6/7 1/1/8 2/3/9
f 7/12/10 6/9/11 13/22/12 14/25/13
f 8/14/14 10/17/15 5/7/16 2/3/17
f 10/18/18 9/16/19 3/4/20 4/6/21 5/7/22
f 7/11/23 9/16/24 10/17/25 8/13/26 6/9/27
f 14/24/28 12/21/29 3/5/30 9/15/31 7/11/32
f 11/19/33 13/23/34 6/10/35 8/13/36 2/2/37 1/1/38
f 14/25/39 13/23/40 11/19/41 12/21/42
